<svg xmlns="http://www.w3.org/2000/svg" xmlns:xlink="http://www.w3.org/1999/xlink" viewBox="0 0 964.2 161.2"><path fill="#F7C2DA" d="M91.7 91.1H56.2c-4.3 0-8.1 2.5-9.7 6.5L37 120.1c-.6 1.5.1 3.3 1.6 3.9.4.2.8.2 1.2.2 1.2 0 2.3-.7 2.8-1.9L52 99.9c.7-1.7 2.3-2.8 4.2-2.8h35.6c1.7 0 3-1.3 3-3s-1.4-3-3.1-3z"/><image overflow="visible" width="548" height="445" xlink:href="88D397E320DA76E6.png" transform="matrix(.24 0 0 .24 0 54.37)"/><path fill="#F7C2DA" d="M88.7 43.2c-1.7-4-5.4-6.5-9.7-6.5-4.3 0-8.1 2.5-9.7 6.5L53.4 80.9c-.6 1.5.1 3.3 1.6 3.9 1.5.6 3.3-.1 3.9-1.6l15.8-37.7c.7-1.7 2.3-2.8 4.2-2.8 1.9 0 3.4 1 4.2 2.8l32.2 76.9c.5 1.2 1.6 1.9 2.8 1.9.4 0 .8-.1 1.2-.2 1.5-.6 2.3-2.4 1.6-3.9l-32.2-77z"/><image overflow="visible" width="590" height="671" xlink:href="88D397E320DA76EA.png" transform="translate(16.43) scale(.24)"/><path fill="#F7C2DA" d="M179.9 76.1h-28.6c-1.7 0-3 1.3-3 3s1.3 3 3 3h28.6c1.7 0 3-1.3 3-3s-1.3-3-3-3z"/><image overflow="visible" width="451" height="332" xlink:href="88D397E320DA76EB.png" transform="matrix(.24 0 0 .24 111.54 39.3)"/><path fill="#F7C2DA" d="M189 36.9h-42.2c-5.8 0-10.6 4.7-10.6 10.6v73.9c0 1.7 1.3 3 3 3s3-1.3 3-3v-74c0-2.5 2-4.5 4.5-4.5H189c1.7 0 3-1.3 3-3s-1.3-3-3-3z"/><image overflow="visible" width="539" height="671" xlink:href="88D397E320DA76EC.png" transform="matrix(.24 0 0 .24 99.48 .11)"/><path fill="#F7C2DA" d="M305.1 76.1c-1.7 0-3 1.3-3 3s1.3 3 3 3h28.6c1.7 0 3-1.3 3-3s-1.3-3-3-3h-28.6z"/><image overflow="visible" width="451" height="332" xlink:href="88D397E320DA76ED.png" transform="matrix(.24 0 0 .24 265.29 39.3)"/><path fill="#F7C2DA" d="M345.8 39.9c0-1.7-1.3-3-3-3h-42.2c-5.8 0-10.6 4.7-10.6 10.6V113.8c0 5.8 4.7 10.6 10.6 10.6h42.2c1.7 0 3-1.3 3-3s-1.3-3-3-3h-42.2c-2.5 0-4.5-2-4.5-4.5V47.4c0-2.5 2-4.5 4.5-4.5h42.2c1.6 0 3-1.4 3-3z"/><image overflow="visible" width="539" height="671" xlink:href="88D397E320DA76E8.png" transform="matrix(.24 0 0 .24 253.23 .11)"/><path fill="#F7C2DA" d="M547.7 76.1h-42.2c-1.6 0-3.1.4-4.5 1V39.9c0-1.7-1.3-3-3-3s-3 1.3-3 3V121.2c0 1.7 1.3 3 3 3s3-1.3 3-3V86.6c0-2.5 2-4.5 4.5-4.5h42.2c1.7 0 3-1.4 3-3s-1.3-3-3-3z"/><image overflow="visible" width="539" height="671" xlink:href="88D397E320DA76E9.png" transform="matrix(.24 0 0 .24 458.22 .11)"/><path fill="#F7C2DA" d="M561.3 36.9c-1.7 0-3 1.3-3 3v81.4c0 1.7 1.3 3 3 3s3-1.3 3-3V39.9c0-1.7-1.3-3-3-3z"/><image overflow="visible" width="332" height="671" xlink:href="88D397E320DA76F8.png" transform="matrix(.24 0 0 .24 521.53 .11)"/><path fill="#F7C2DA" d="M758.8 36.9c-1.7 0-3 1.3-3 3v49.7c0 15.8-12.8 28.6-28.6 28.6s-28.6-12.8-28.6-28.6V39.9c0-1.7-1.3-3-3-3s-3 1.3-3 3v49.7c0 19.1 15.6 34.7 34.7 34.7S762 108.7 762 89.6V39.9c-.2-1.7-1.6-3-3.2-3z"/><image overflow="visible" width="596" height="671" xlink:href="88D397E320DA76F9.png" transform="matrix(.24 0 0 .24 655.68 .11)"/><path fill="#F7C2DA" d="M913.3 82.3c-6.5-3.5-13-4.6-13.2-4.7-.2 0-22.2-4.1-22.2-18.8 0-9.6 8.5-15.9 21.7-15.9 15.2 0 22 8.6 22.3 9 1 1.3 2.9 1.6 4.2.6 1.3-1 1.6-2.9.6-4.2-.3-.5-8.7-11.4-27.1-11.4-16.6 0-27.7 8.8-27.7 21.9 0 8.3 4.8 15.3 14 20.1 6.5 3.5 13 4.6 13.2 4.7.2 0 22.2 4.1 22.2 18.8 0 9.6-8.5 15.9-21.7 15.9-15.2 0-22-8.6-22.3-9-1-1.3-2.9-1.6-4.2-.6-1.3 1-1.6 2.9-.6 4.2.3.5 8.7 11.4 27.1 11.4 16.6 0 27.7-8.8 27.7-21.9-.1-8.3-4.9-15.3-14-20.1z"/><image overflow="visible" width="538" height="671" xlink:href="C694F3D3BF932EBE.png" transform="matrix(.24 0 0 .24 835.04 .11)"/><path fill="#F7C2DA" d="M632.7 97.3c.6 1 1.6 1.5 2.6 1.5.5 0 1-.1 1.5-.4 1.5-.8 2-2.7 1.2-4.1l-5.4-9.6c-1.3-2.2-1.9-4.8-1.9-7.4V59.5c0-1.7-1.3-3-3-3s-3 1.3-3 3v17.9c0 3.6.9 7.2 2.7 10.3l5.3 9.6z"/><image overflow="visible" width="364" height="483" xlink:href="C694F3D3BF932EBA.png" transform="matrix(.24 0 0 .24 587.85 19.7)"/><path fill="#F7C2DA" d="M629.1 36.9h-1.6c-1.7.1-3 1.5-2.9 3.1.1 1.7 1.5 3 3.1 2.9h1.4c20.8 0 37.7 16.9 37.7 37.7 0 20.8-16.9 37.7-37.7 37.7-20.8 0-37.7-16.9-37.7-37.7 0-14.9 8.8-28.4 22.3-34.4 1.5-.7 2.2-2.5 1.5-4-.7-1.5-2.5-2.2-4-1.5-15.7 7-25.9 22.7-25.9 39.9 0 24.1 19.6 43.7 43.7 43.7s43.7-19.6 43.7-43.7-19.5-43.7-43.6-43.7z"/><image overflow="visible" width="671" height="671" xlink:href="C694F3D3BF932EB9.png" transform="matrix(.24 0 0 .24 548.66 .11)"/><path fill="#F7C2DA" d="M271.9 36.9h-20.3c-1.7 0-3 1.3-3 3s1.3 3 3 3h20.3c1.7 0 3-1.3 3-3s-1.3-3-3-3z"/><image overflow="visible" width="417" height="332" xlink:href="C694F3D3BF932EB6.png" transform="matrix(.24 0 0 .24 211.78 .11)"/><path fill="#F7C2DA" d="M241 124.3c1.7 0 3-1.4 3-3V47.4c0-5.8-4.7-10.6-10.6-10.6H210c-1.7 0-3 1.4-3 3s1.4 3 3 3h23.4c2.5 0 4.5 2 4.5 4.5v73.9c.1 1.7 1.4 3.1 3.1 3.1z"/><image overflow="visible" width="461" height="671" xlink:href="C694F3D3BF932EA9.png" transform="matrix(.24 0 0 .24 170.32 .11)"/><path fill="#F7C2DA" d="M831.4 94.8c-1.1-1.3-3-1.5-4.2-.4-1.3 1.1-1.5 3-.4 4.2l20.1 24.6c.6.7 1.5 1.1 2.3 1.1.7 0 1.3-.2 1.9-.7 1.3-1.1 1.5-3 .4-4.2l-20.1-24.6z"/><image overflow="visible" width="416" height="434" xlink:href="C694F3D3BF932EA8.png" transform="matrix(.24 0 0 .24 789.31 56.99)"/><path fill="#F7C2DA" d="M799.4 88.1h26.5c14.1 0 25.6-10.7 26.2-24.4.3-7.1-2.2-13.8-7.1-18.9-4.9-5.1-11.5-7.9-18.5-7.9h-31.7c-5.8 0-10.6 4.7-10.6 10.6v73.9c0 1.7 1.4 3 3 3s3-1.4 3-3v-74c0-2.5 2-4.5 4.5-4.5h31.7c5.4 0 10.4 2.2 14.2 6.1 3.7 3.9 5.6 9.1 5.4 14.5-.5 10.5-9.4 18.6-20.2 18.6h-26.5c-1.7 0-3 1.4-3 3 .1 1.7 1.5 3 3.1 3z"/><image overflow="visible" width="589" height="671" xlink:href="C694F3D3BF932EAE.png" transform="matrix(.24 0 0 .24 747.62 .11)"/><path fill="#F7C2DA" d="M413.9 94.8c-1.1-1.3-3-1.5-4.2-.4-1.3 1.1-1.5 3-.4 4.2l20.1 24.6c.6.7 1.5 1.1 2.3 1.1.7 0 1.3-.2 1.9-.7 1.3-1.1 1.5-3 .4-4.2l-20.1-24.6z"/><image overflow="visible" width="416" height="434" xlink:href="C694F3D3BF932EA4.png" transform="matrix(.24 0 0 .24 371.79 56.99)"/><path fill="#F7C2DA" d="M434.7 63.7c.3-7.1-2.2-13.8-7.1-18.9-4.9-5.1-11.5-7.9-18.5-7.9h-31.7c-5.8 0-10.6 4.7-10.6 10.6V121.3c0 1.7 1.3 3 3 3s3-1.3 3-3V47.4c0-2.5 2-4.5 4.5-4.5H409c5.4 0 10.4 2.2 14.2 6.1 3.7 3.9 5.6 9.1 5.4 14.5-.5 10.5-9.4 18.6-20.2 18.6h-26.5c-1.7 0-3 1.3-3 3s1.3 3 3 3h26.5c14.1 0 25.6-10.7 26.3-24.4z"/><image overflow="visible" width="589" height="671" xlink:href="C694F3D3BF932EA5.png" transform="matrix(.24 0 0 .24 330.1 .11)"/></svg>