<svg xmlns="http://www.w3.org/2000/svg" viewBox="0 0 163.9 55.3"><path d="M.2 0h55.3v55.3H.2z"/><g fill="#FFF"><path d="M16 34.4c-.2-.1-1.3-.6-1.7-.7-.3-.2-.3-.4-.3-.6 0-.2.2-12.6.1-12.7 0-.1-.1-.1-.2 0S1.8 33.6 1.5 33.8c-.4.3-1.3.6-1.3.7l-.2.1h6.5c.1 0 .1-.1 0-.1-.5-.1-2.5-.5-2.9-.6-.3-.1-.4-.3-.2-.5.1-.2 3.4-4.2 3.6-4.3.3-.2.4-.3.9-.3h2c.8 0 1.5.1 1.7.1.5 0 .4.4.4.6 0 .2-.1 3.1-.2 3.6 0 .5-.1.6-.4.7-.2 0-2.3.7-2.4.8-.1 0 0 .1 0 .1s6.9-.2 7-.3c.1.1.1.1 0 0zm-3.7-6.7c0 .3-.1.4-.6.4H8.4c-.5 0-.5-.3-.3-.5s3.6-3.9 3.7-4c.2-.3.5-.3.5.1v4zM52.8 34.4c-.2-.1-1.3-.6-1.7-.7-.3-.2-.4-.4-.4-.6 0-.2.2-12.6.1-12.7 0-.1-.1-.1-.2 0-.2.2-12.2 13.3-12.4 13.4-.4.3-1.3.6-1.3.7 0 0-.1.1 0 .1h6.3c.1 0 .1-.1 0-.1-.5-.1-2.5-.5-2.9-.6-.3-.1-.4-.3-.2-.5.1-.2 3.3-4.2 3.6-4.3.3-.2.4-.3.9-.3h2c.8 0 1.5.1 1.7.1.5 0 .4.4.4.6 0 .2-.1 3.1-.2 3.6 0 .5-.1.6-.4.7-.2 0-2.3.7-2.4.8-.1 0 0 .1 0 .1s7-.2 7.1-.3c.1.1.1.1 0 0zm-3.7-6.7c0 .3-.1.4-.6.4h-3.3c-.5 0-.5-.3-.3-.5s3.6-3.9 3.7-4c.3-.3.5-.3.5.1v4zM19.1 20.8h6.5c.1 0 .1.1 0 .1s-1.2.3-1.3.4c-.1 0-.5.2-.7.3-.3.1-.4.3-.5.6-.1.1-2.6 10.8-2.6 11 0 .2-.1.5.2.6.3.1 1.7.6 1.8.7.1 0 .1.1 0 .1h-6.2c-.1 0-.2 0-.1-.1s1.5-.5 1.6-.6c.1-.1.5-.2.6-.5.1-.2 2.7-11 2.7-11.2.1-.3 0-.5-.3-.6-.1-.2-1.7-.7-1.7-.8-.1 0-.1 0 0 0zM37.6 25.7c0-.1.2-3.5.2-3.6 0-.4 0-.6-.4-.7-.6-.2-3.2-.4-5.2.5-3.3 1.5-5.2 5.1-4.8 7.9.3 2.3 2.2 4.2 5.1 4.3.9 0 1.6-.1 1.8-.2.3-.1.3-.2.4-.3.1-.2.6-2.3.6-2.3 0-.1.1-.4-.2-.5-.3-.1-3-.8-3.1-.8-.1 0-.1-.1 0-.1h5c.2 0 .7-.1.6.5-.1.5-.9 2.9-1 3.1-.1.2-.2.3-.4.3-.2.1-2.4.9-4.5 1-5.4.1-7.4-3.6-6.5-7.1.5-1.8 1.7-3.5 3.2-4.7.9-.7 3.4-2.3 6.8-2.3.6 0 2.3.1 3.4.4.6.2.5.5.4.7 0 .1-1.3 3.9-1.3 4 0 0-.1.1-.1-.1z"/></g><g><path d="M88.8 37.8c.3 0 .6.3.6.7 0 .4-.3.6-.6.6-.4 0-.8-.2-3.9-.2h-.5c-3.1 0-3.5.2-3.9.2-.3 0-.6-.2-.6-.6 0-.4.3-.7.6-.7H83l-2.4-6.5h-9.4l-2.5 6.5H71.4c.3 0 .6.3.6.7 0 .4-.3.6-.6.6-.4 0-.5-.2-3.2-.2H68c-2.7 0-2.9.2-3.2.2-.3 0-.6-.2-.6-.6 0-.4.3-.7.6-.7h2.5l9-23.6c.1-.3.2-.4.7-.4.4 0 .5.2.6.4l8.6 23.6h2.6zM76.1 18.7L71.9 30h8.3l-4.1-11.3zM95.4 39.6c-3.2 0-4.4-2.4-4.4-5.7v-8.8c-1.9 0-2.1.2-2.4.2-.3 0-.6-.3-.6-.7 0-.4.3-.6.6-.6.4 0 .6.1 2.4.1.6 0 1.8-.2 2.1-.2.3 0 .6.3.6.7v10.7c0 2.1.6 2.9 2.1 2.9 2.4 0 4.9-3.5 4.9-7.4v-5.6c-1.8 0-2.1.2-2.4.2-.3 0-.6-.3-.6-.7 0-.4.3-.6.6-.6.4 0 .6.1 2.4.1.6 0 1.8-.2 2.1-.2.3 0 .6.3.6.7V37c0 1.1.2 1.4.7 1.4.5 0 .5-.5 1-.8.3-.2.6-.2.8.1.3.3.1.8-.2 1-1 .8-1.6.9-2.6.9-1.4 0-2.5-1.1-2.5-2.9v-1.2c-.7 1.8-2.8 4.1-5.2 4.1zM113.9 39.7c-3.7 0-6-2.4-6-4.1 0-1.1.6-1.7 1.7-1.7.7 0 1.3.8 1.3 1.3 0 .9-.6 1.3-1 1.4.6 1.2 2.6 1.9 4.1 1.9 1.9 0 3.8-1 3.8-2.9 0-1.4-1.8-2.1-3.2-2.5l-1.6-.5c-3.8-1-4.6-2.6-4.6-4.5 0-3.4 3.2-4.7 5.5-4.7 2.6 0 5.1 1.4 5.1 3.1 0 1.1-.6 1.8-1.6 1.8-.7 0-1.4-.7-1.4-1.4s.5-1.1.8-1.2c-.4-.6-1.5-1.1-2.9-1.1-2.1 0-3.6 1-3.6 2.8 0 1.2 1.2 1.8 2.6 2.2l1.9.5c3.2.8 5.1 2.1 5.1 4.7 0 3.1-2.7 4.9-6 4.9zM131.3 24c.3 0 .6.2.6.7 0 .4-.3.6-.6.6-.4 0-1.9-.1-3.7-.1v11.5c0 1.1.4 1.5 1.1 1.5 1 0 1.5-.9 1.6-1.6.1-.5.3-.7.7-.7.3 0 .5.2.5.6 0 1.2-1.1 2.8-3.5 2.8-1.8 0-3.1-1-3.1-3.2V25.2c-1.9 0-2.4.1-2.8.1-.3 0-.6-.2-.6-.6 0-.4.3-.7.6-.7 2.7 0 3.5-.4 3.9-2.9.4-2.1.5-2.4 1-2.4.4 0 .5.4.5 1.1V24h3.8zM142.2 37.8c.3 0 .6.3.6.7 0 .4-.3.6-.6.6-.4 0-.6-.2-3.7-.2h-.2c-3.1 0-3.3.2-3.7.2-.3 0-.6-.2-.6-.6 0-.4.3-.7.6-.7h2.4V25.2c-1.9 0-2.1.1-2.4.1-.3 0-.6-.3-.6-.7 0-.4.3-.7.6-.7h2.4c.6 0 1.8-.2 2.1-.2.3 0 .6.3.6.7v13.2c1.9.2 2.1.2 2.5.2zm-3.8-18.3c-.9 0-1.7-.8-1.7-1.7 0-.9.8-1.7 1.7-1.7.9 0 1.7.8 1.7 1.7-.1.9-.8 1.7-1.7 1.7zM156.2 23.4c3.4 0 4.7 2.4 4.7 5.7v8.7h2.4c.3 0 .6.3.6.7 0 .4-.3.6-.6.6-.4 0-.6-.2-3.7-.2h-.2c-3.1 0-3.3.2-3.7.2-.3 0-.6-.2-.6-.6 0-.4.3-.7.6-.7h2.4v-10c0-2.1-.6-2.9-2.3-2.9-2.6 0-5.3 3.4-5.3 7.2v5.7h2.4c.3 0 .6.3.6.7 0 .4-.3.6-.6.6-.4 0-.6-.2-3.7-.2h-.2c-3.1 0-3.3.2-3.7.2-.3 0-.6-.2-.6-.6 0-.4.3-.7.6-.7h2.4V25.2c-1.9 0-2.1.1-2.4.1-.3 0-.6-.3-.6-.7 0-.4.3-.7.6-.7h2.4c.6 0 1.8-.2 2.1-.2.3 0 .6.3.6.7v3.2c1-1.9 3.2-4.2 5.8-4.2z"/></g></svg>