<svg xmlns="http://www.w3.org/2000/svg" viewBox="0 0 125.7 42.5"><g fill="#F8B521"><path d="M0 20.5h20.5V0H0v20.5zm4.6-9s1.2-.1 1.1.4c-.1.5.4 1.3.9 1.5.5.3 3.2-1.3 2.6-3-.5-1.7-2.3-2.1-3.1-2-.7.1.5-1.9.5-1.9s.7-1 .8-2c.1-1 1.5-.3 2 .1s2 1.1 2.6 1.2c.5.1-.6.6-.4 1.8.1 1.2 1.2 1.6 2.3 1 1.1-.6 1.6-1.8 1.4-2.3 0 0 3.2 1.4 3.9 1.6.7.2-.9.5-.6 1.3.4.8 1.1 1 1 1.4-.1.4-1 4.5-1.3 5-.3.5-2.9-2.6-3.7-.5-.8 2.1 2.1 2.7 2.9 2.3.8-.4.4 1.7.4 1.7H1s3.4-6.5 3.6-7.6z"/><path d="M15.7 11.3c.2-1.4-2-1.2-2-1.2-1.5.5-.8 2.4 0 3 .8.7 1.8-.5 2-1.8zM10.1 16c-1.4-.4-1.5.7-1.5 1.4s1.8.4 2-.7c0-.5-.5-.7-.5-.7z"/></g><g fill="#D43D2B"><path d="M22 0v20.5h20.5V0H22zm17.6 19h-14s-3.2-3.9-2-7.8c.6-2.2 2.3-4 5.4-4 3 0 3 .9 3.6 2 0 0 .3-3.9 3-5.2 0 0 1.3.3 1.2 1 0 0-2.9.9-3.1 3 0 0-.1 1.2.2 1.5 0 0 2.6-4.8 7.3-3.5 0 0-1.9 7-7 4.5 0 0 4.7 2.4 5.2 4.4.2.6 1.5-1.3.6-4.6 0 .1 3.2 3.9-.4 8.7z"/><path d="M36.7 9.3s1-.4 1.5 0c0 0 .1-.5-.3-.8 0 0 .8-.7 1.4-1.6 0 0-2.9 2.3-4.6 2.8 0 0 1.9 0 2.3.6 0 0 .3-.6-.3-1zM29.2 8.8s-4.3-.2-4.7 3.7c0 0 1.9-.4 3 2.3 0 0-.4-4.9 3.3-5.2 0 0-.6-.6-1.6-.8z"/></g><g fill="#006E9A"><path d="M0 42.5h20.5V22H0v20.5zm1.6-4.7c-.2-.2-.1-.2-.1-.2 1.9-1.2.2-2.3.2-2.3s.4-.8 1.7-1c0 0-.3-4.9 5.5-7.6 0 0 .2-.9 1.7-.6 0 0 1.2 0 2.3 2 .7 1.2 2.5 3 2.5 4.1 0 1.2-.8 4.2-2.5 5.1-1.6.9-4.1 1-4.1 1s2.8 1.4 5-.3c2.1-1.7 1.9-3.2 1.9-3.4 0-.2 1 1.1 1.2 1.8.2.7 1.8.8 2 .9.2.1.8 1.6.6 2.3-.2.7-1.7 1.3-1.9.7-.2-.6-1-2.3-1-2.3s.1 2.3-.2 3.1L1 41c2.5-1.4.8-3 .6-3.2z"/><path d="M8.1 31.1c.7 0 .9-1 .9-1 0-.4-.2-.7-.2-.7s-.8-1.2-1.6-.1c-.8 1.1.2 1.8.9 1.8zM6.6 37.5c1.3.2 1.7-.8 1.7-.8-1.7.8-2.3-.9-2.3-.9s-.7 1.5.6 1.7zM9.9 36.4c1.4.1 1.2-1.1 1.2-1.1-1.4 1.5-2.4-.4-2.4-.4s-.1 1.4 1.2 1.5zM6.8 34.4c1.3.2 1.7-.8 1.7-.8-1.7.8-2.3-.9-2.3-.9s-.7 1.5.6 1.7z"/></g><g fill="#A87430"><path d="M22 42.5h20.5V22H22v20.5zm1.7-10.4c1.2-3.9 5.3-4.8 7.4-2.6 0 .2.3 1.4.9 1.3 1.1-.1.8-.6.7-1.4-.2-1.6 2.7-3.5 5.1-3.3 2.5.2 3.2 3.2 2.9 4.9-.3 1.7-.2 2.3-.2 2.3s.9 3.3.6 7.6h-.8c0 .2-.1.5-.2.6l-1.2-.2.2-.4H26.4s-.8-3.3-1.2-3.9c0 0-2.3-2.4-1.5-4.9z"/><path d="M26.9 39.1s.4-4.1-.2-5c-.6-.9-1.3-1.4-.3-2.2.9-.8 2.8-2.5 3.5-1.9 0 0-.2-.9-1.3-.7 0 0-4 1.8-4 3.8 0 1.9.7 2.1 1.3 3 .6.7 1 3 1 3zM37.1 28.7c.9-.4.7-1.5.3-2 0 0-3.4.5-3.6 2.3-.1.9-.1 2 .3 2.4.4.3 2.1-2.2 3-2.7zM34.2 39.6c-.2-.8-.8 0-.8 0 .1.8 1 .8.8 0zM35.8 39c.5-.2-.3-.9-.3-.9-1.4.5-.2 1.1.3.9zM37.6 39.8c.3.8.8-.5.8-.5-.7-.7-1.1-.3-.8.5zM38.8 41.4l1.2.2c.1-.2.1-.4.2-.6H39l-.2.4zM40.1 36.5c-.1 2.1-.7 3.7-1 4.4h1.2c.2-1.6-.2-4.4-.2-4.4z"/></g><path d="M52 1.8c-.1-.2-.3-.3-.5-.3s-.3 0-.4.1c-.1.1-.2.2-.3.5-.1.2-.1.5-.1.9v2.8c0 .4.1.7.1.9.1.2.1.4.3.5.1.1.3.1.4.1.2 0 .3 0 .4-.1.1-.1.1-.2.2-.3.1-.2.1-.4.1-.6v-1h2.4v.6c0 .6-.1 1.1-.3 1.5-.1.3-.3.6-.6.8-.3.2-.6.4-1 .4-.4.1-.8.1-1.2.1-.7 0-1.3-.1-1.7-.2-.4-.1-.8-.4-1-.7-.3-.4-.4-.8-.5-1.4-.1-.6-.1-1.2-.1-2s.1-1.5.2-2c.1-.6.3-1 .6-1.4.3-.3.6-.6 1.1-.8.4-.2 1-.2 1.6-.2.6 0 1 .1 1.4.2.4.1.7.3 1 .5.2.2.4.5.5.8.1.3.2.7.2 1.1v.5h-2.4v-.3c-.2-.5-.3-.9-.4-1zM60.3.2l2.3 8.4H60l-.3-1.5h-2l-.3 1.5h-2.6L57.1.2h3.2zm-1.6 1.7L58 5.5h1.4l-.7-3.6zM66.7.2c.5 0 .9.1 1.2.2.3.1.6.3.9.6.2.2.4.5.5.8.1.3.2.7.2 1 0 .9-.3 1.5-.8 2-.5.4-1.3.7-2.3.7h-.9v3.2H63V.2h3.7zm-.8 3.6c.3 0 .5-.1.7-.2.2-.2.2-.4.2-.8 0-.7-.3-1-1-1h-.5v2.1h.6zM72.7.2v8.4h-2.5V.2h2.5zM73.2 2.1V.2h6.2v1.9h-1.9v6.6H75V2.1h-1.8zM83.9.2l2.3 8.4h-2.7l-.3-1.5h-2l-.3 1.5h-2.6L80.6.2h3.3zm-1.5 1.7l-.7 3.6h1.4l-.7-3.6zM89.2.2v6.6h3.1v1.8h-5.6V.2h2.5zM100.6.2l2.3 8.4h-2.7l-.3-1.5h-2l-.3 1.5H95L97.3.2h3.3zm-1.5 1.7l-.7 3.6h1.4l-.7-3.6zM107.3.2c.5 0 .9.1 1.2.2.3.1.6.3.8.5.2.2.4.4.5.7.1.3.1.6.1.9 0 .6-.1 1-.4 1.4-.3.3-.7.6-1.2.6.6 0 1 .2 1.2.6.2.3.3.8.3 1.3V8c0 .1 0 .2.1.2l.1.1s.1.1.2.1v.1h-2.6c-.1-.1-.1-.2-.1-.4 0-.1-.1-.3-.1-.4v-.4-.8-.6c0-.2-.1-.3-.1-.4-.1-.1-.2-.2-.3-.2-.1 0-.2-.1-.4-.1h-.7v3.4h-2.5V.2h3.9zm-.9 3.6c.4 0 .6-.1.8-.3.2-.2.3-.4.3-.7 0-.4-.1-.6-.3-.8-.2-.1-.4-.2-.8-.2h-.5v2h.5zM116.8.2V2h-3.2v1.4h3v1.7h-3v1.7h3.3v1.8h-5.8V.2h5.7zM122.5.2l2.3 8.4h-2.7l-.1-1.4h-2l-.3 1.5h-2.6l2.3-8.4h3.1zM121 1.9l-.7 3.6h1.4l-.7-3.6z"/><g><path d="M55.6 15.5v2.3h-4v1.8h3.8v2.2h-3.8v4.4h-3.1V15.5h7.1zM56.5 18.3c.1-.7.4-1.3.7-1.7.3-.4.8-.8 1.3-1 .6-.2 1.2-.3 2-.3s1.5.1 2 .3c.6.2 1 .5 1.3 1 .3.4.6 1 .7 1.7.1.7.2 1.5.2 2.5s-.1 1.8-.2 2.5c0 .7-.2 1.3-.5 1.7-.3.4-.8.8-1.3.9-.6.2-1.2.3-2 .3s-1.5-.1-2-.3c-.6-.2-1-.5-1.3-.9-.3-.4-.6-1-.7-1.7-.1-.7-.2-1.5-.2-2.5-.2-1-.2-1.8 0-2.5zm3 4.3c0 .5.1.8.1 1.1.1.3.2.5.3.6.1.1.3.2.6.2.2 0 .4-.1.6-.2.1-.1.3-.3.3-.6.1-.3.1-.7.1-1.1v-1.8V19c0-.5-.1-.8-.1-1.1-.1-.3-.2-.5-.3-.6-.1-.1-.3-.2-.6-.2-.2 0-.4.1-.6.2-.1.1-.3.3-.3.6-.1.3-.1.7-.1 1.1v3.6zM65.9 18.3c.1-.7.4-1.3.7-1.7.3-.4.8-.8 1.3-1 .6-.2 1.2-.3 2-.3s1.5.1 2 .3c.6.2 1 .5 1.3 1 .3.4.6 1 .7 1.7.1.7.2 1.5.2 2.5s-.1 1.8-.2 2.5-.4 1.3-.7 1.7c-.2.5-.6.8-1.2 1-.6.2-1.2.3-2 .3s-1.5-.1-2-.3c-.6-.2-1-.5-1.3-.9-.3-.4-.6-1-.7-1.7-.1-.7-.2-1.5-.2-2.5-.1-1.1-.1-1.9.1-2.6zm3 4.3c0 .5.1.8.1 1.1.1.3.2.5.3.6.1.1.3.2.6.2.2 0 .4-.1.6-.2.1-.1.3-.3.3-.6.1-.3.1-.7.1-1.1v-1.8V19c0-.5-.1-.8-.1-1.1-.1-.3-.2-.5-.3-.6-.1-.1-.3-.2-.6-.2-.2 0-.4.1-.6.2-.1.1-.3.3-.3.6-.1.3-.1.7-.1 1.1v3.6zM80 15.5c.9 0 1.6.1 2.1.4.5.3.9.7 1.1 1.2.3.5.4 1.1.5 1.7.1.6.1 1.3.1 2s0 1.4-.1 2c-.1.6-.2 1.2-.5 1.7s-.6.9-1.1 1.2c-.5.3-1.2.4-2.1.4h-4.6V15.5H80zm-.8 8.6c.3 0 .6 0 .7-.1.2-.1.3-.2.4-.5.1-.2.2-.6.2-1v-1.7-1.7c0-.4-.1-.8-.2-1-.1-.2-.2-.4-.4-.5-.2-.1-.4-.1-.7-.1h-.6v6.6h.6zM92.3 15.5c1.1 0 2 .2 2.5.7.5.5.8 1.1.8 1.9 0 .3 0 .5-.1.8-.1.3-.2.5-.3.7-.2.2-.3.4-.6.5-.2.1-.5.3-.9.3.4 0 .7.1 1 .3.3.2.5.3.7.6.2.2.3.5.4.7.1.3.1.5.1.8 0 .5-.1.9-.2 1.3s-.3.7-.6 1c-.3.3-.7.5-1.1.6-.5.2-1 .2-1.7.2h-4.8V15.5h4.8zm-.8 4.2c.3 0 .6-.1.8-.3.2-.2.3-.5.3-.7 0-.3-.1-.6-.3-.8-.2-.2-.4-.3-.8-.3h-.8v2.2h.8zm.1 4.4c.3 0 .6-.1.8-.3.2-.2.3-.5.3-1 0-.4-.1-.7-.3-1-.2-.2-.5-.3-.8-.3h-.9v2.6h.9zM103.1 15.5l2.9 10.6h-3.3l-.3-1.8h-2.5l-.3 1.8h-3.3l2.9-10.6h3.9zm-2 2.2l-.9 4.5h1.8l-.9-4.5zM110.1 15.5l2 6.5v-6.5h2.9v10.6h-3.4l-2.1-6.5v6.5h-2.9V15.5h3.5zM119.6 15.5v4.1l2.3-4.1h3.3l-3 4.6 3.4 6H122l-1.8-3.7-.7.9v2.8h-3.1V15.5h3.2z"/></g><g><path d="M48.3 35.4c.2-.6.4-1.1.7-1.5.3-.4.8-.7 1.4-.8.6-.2 1.3-.3 2.1-.3s1.5.1 2.1.3c.6.2 1 .5 1.4.8.3.4.6.9.7 1.5.1.6.2 1.3.2 2.2 0 .9-.1 1.6-.2 2.2-.2.6-.4 1.1-.7 1.5-.3.4-.8.7-1.4.8-.6.2-1.3.2-2.1.2s-1.5-.1-2.1-.2c-.6-.2-1-.4-1.4-.8-.3-.4-.6-.9-.7-1.5-.2-.6-.2-1.3-.2-2.2-.1-.8 0-1.6.2-2.2zm3.1 3.8c0 .4.1.7.1 1 .1.2.2.4.3.5.1.1.3.1.6.1.2 0 .4 0 .6-.1.1-.1.3-.3.3-.5.1-.2.1-.6.1-1v-1.5-1.5c0-.4-.1-.7-.1-1-.1-.2-.2-.4-.3-.5-.1-.1-.3-.1-.6-.1-.2 0-.4 0-.6.1-.1.1-.3.3-.3.5-.1.2-.1.6-.1 1v3zM66.7 33v2h-4.1v1.6h3.9v1.9h-3.9v3.8h-3.2V33h7.3zM73.8 35.1v-2h8.1v2h-2.4v7.2h-3.2v-7.2h-2.5zM91.6 33v2h-4.1v1.6h3.9v1.9h-3.9v1.8h4.3v2h-7.5V33h7.3zM97.6 33l1 2.7 1-2.7h3.6l-2.7 4.5 2.9 4.7h-3.6l-1.2-2.8-1.2 2.8h-3.6l2.9-4.7L94 33h3.6zM112.2 33l3 9.2h-3.4l-.3-1.6h-2.6l-.3 1.6h-3.4l3-9.2h4zm-2 1.9l-.9 3.9h1.8l-.9-3.9zM122.2 35.5c0-.3-.1-.5-.2-.7-.2-.2-.4-.3-.7-.3-.4 0-.6.1-.8.3-.2.2-.2.4-.2.6 0 .3.1.5.4.7.3.2.6.3 1 .5.4.1.8.3 1.3.4.5.1.9.3 1.3.5s.7.5 1 .8c.3.3.4.8.4 1.4 0 1-.4 1.7-1.1 2.1-.8.4-1.8.7-3.3.7-.7 0-1.3 0-1.8-.1s-1-.2-1.3-.4c-.4-.2-.6-.5-.8-.8-.2-.3-.3-.7-.3-1.2v-.3h3.1v.2c0 .4.1.7.3.8.2.2.5.2.8.2.3 0 .6-.1.8-.3.2-.2.3-.4.3-.6 0-.3-.1-.5-.4-.7-.3-.2-.6-.3-.9-.4-.4-.1-.8-.3-1.2-.4-.4-.1-.9-.3-1.2-.5-.4-.2-.7-.5-.9-.8-.3-.3-.4-.8-.4-1.3 0-.9.3-1.6 1-2.1s1.7-.7 3.1-.7c1.4 0 2.5.2 3.1.7.6.4 1 1.2 1 2.1h-3v-.4z"/></g><path d="M48.4 10.8h76.7v1.6H48.4zM48.6 28.9h76.7v1.6H48.6z"/></svg>