<?xml version="1.0" encoding="utf-8"?>
<!-- Generator: Adobe Illustrator 17.1.0, SVG Export Plug-In . SVG Version: 6.00 Build 0)  -->
<!DOCTYPE svg PUBLIC "-//W3C//DTD SVG 1.1//EN" "http://www.w3.org/Graphics/SVG/1.1/DTD/svg11.dtd">
<svg version="1.1" id="Layer_1" xmlns="http://www.w3.org/2000/svg" xmlns:xlink="http://www.w3.org/1999/xlink" x="0px" y="0px"
	 viewBox="0 0 674.2 100.6" enable-background="new 0 0 674.2 100.6" xml:space="preserve">
<path d="M93.8,65.4C89,84,74.6,94.7,52.8,95.5v-10c0-9.7,5.4-15.1,15.1-15.1c12.6,0,20.1-7.5,20.1-20.1c0-12.4-7.4-19.9-19.8-20.1
	c-3-6.4-9.3-10.1-18-10.1c-8.7,0-14.9,3.7-18,10.1C20,30.4,12.6,37.9,12.6,50.3c0,12.6,7.5,20.1,20.1,20.1c9.7,0,15.1,5.4,15.1,15.1
	v10C20.6,94.5,5,78.2,5,50.3C5,21.5,21.5,5,50.3,5c23.3,0,38.5,10.8,43.5,30.2h5.1C93.7,12.9,76.3,0,50.3,0C18.9,0,0,18.9,0,50.3
	c0,31.4,18.9,50.3,50.3,50.3c26,0,43.4-12.9,48.6-35.2H93.8z M70.4,40.2c0-1.7-0.2-3.3-0.5-4.9c8.4,0.7,13,5.9,13,14.9
	c0,9.7-5.4,15.1-15.1,15.1c-5.8,0-10-1.9-12.5-5.5C64.9,58,70.4,51,70.4,40.2 M65.4,40.2c0,8.6-4.2,13.8-12,14.9
	c-0.3-1.5-0.6-3-0.6-4.8c0-8.6,4.2-13.8,12-14.9C65.2,36.9,65.4,38.5,65.4,40.2 M50.3,25.1c5.8,0,10,1.9,12.5,5.6
	c-5.8,1.1-10,4.2-12.5,8.8c-2.5-4.6-6.7-7.7-12.5-8.8C40.3,27.1,44.5,25.1,50.3,25.1 M35.8,35.4c7.8,1.1,12,6.2,12,14.9
	c0,1.8-0.2,3.3-0.6,4.8c-7.8-1.1-12-6.2-12-14.9C35.2,38.5,35.4,36.9,35.8,35.4 M32.7,65.4c-9.7,0-15.1-5.4-15.1-15.1
	c0-9,4.6-14.2,13-14.9c-0.3,1.5-0.5,3.2-0.5,4.9c0,10.8,5.5,17.8,15,19.6C42.7,63.4,38.5,65.4,32.7,65.4 M43.5,67.9
	c2.9-1.6,5.2-3.9,6.8-6.8c1.6,2.9,3.9,5.2,6.8,6.8c-2.9,1.6-5.2,3.9-6.8,6.8C48.7,71.8,46.4,69.5,43.5,67.9"/>
<path d="M166.6,32.5c-4.1-5-10.4-8.1-16.7-8.1c-14.2,0-22.4,13.1-22.4,26.2c0,12.8,8.5,25.6,22.3,25.6c6.4,0,12.7-3.3,16.8-8.1v17.6
	c-5.5,2.6-11.1,4.5-17.2,4.5c-21.4,0-37.2-18.4-37.2-39.4c0-21.6,15.2-40.6,37.5-40.6c5.9,0,11.8,1.6,16.9,4.4V32.5z"/>
<path d="M222.6,63.6c0,15.3-10.5,26.3-26,26.3c-15.5,0-26-11-26-26.3c0-15.4,10.6-26.4,26-26.4C212,37.2,222.6,48.2,222.6,63.6z
	 M184.9,63.6c0,6.7,4.4,13.8,11.7,13.8c7.3,0,11.7-7.2,11.7-13.8c0-6.9-4.4-13.9-11.7-13.9C189.3,49.7,184.9,56.7,184.9,63.6z"/>
<path d="M243,88.3h-14.1V50.7h-4.8V38.8h4.8V22.1H243v16.7h8.7v11.9H243V88.3z"/>
<path d="M274.7,88.3h-14.1V50.7h-4.8V38.8h4.8V22.1h14.1v16.7h8.7v11.9h-8.7V88.3z"/>
<path d="M335.1,63.6c0,15.3-10.5,26.3-26,26.3c-15.5,0-26-11-26-26.3c0-15.4,10.6-26.4,26-26.4C324.5,37.2,335.1,48.2,335.1,63.6z
	 M297.4,63.6c0,6.7,4.4,13.8,11.7,13.8c7.3,0,11.7-7.2,11.7-13.8c0-6.9-4.4-13.9-11.7-13.9C301.8,49.7,297.4,56.7,297.4,63.6z"/>
<path d="M353.8,43.3h0.2c2.9-4.4,7.9-6.1,12.9-6.1c13.3,0,17.1,9.4,17.1,20.9v30.2H370V62.1c0-5.9,0.3-13.6-7.7-13.6
	c-8.4,0-8.5,9.4-8.5,15.3v24.5h-14.1V38.8h14.1V43.3z"/>
<path d="M390.5,12.3H409c14.1,0,22.8,5.5,22.8,20.7c0,5.4-1.9,11.7-6.7,14.7c9,1.6,13,10.7,13,19.1c0,14.9-10.5,21.6-24.3,21.6
	h-23.3V12.3z M405.3,43.9h1.8c7.3,0,10.8-2.1,10.8-10c0-7.8-4.4-9.8-10.7-9.8h-1.9V43.9z M405.3,76.4h3.1c8,0,14.8-1,14.8-10.9
	s-8.1-10.3-15.5-10.3h-2.4V76.4z"/>
<path d="M455.6,38.8v26.8c0,5.6,0.9,12.4,8.1,12.4c7.2,0,8.1-6.8,8.1-12.4V38.8h14.1v29.1c0,14.4-7.5,22-22.2,22
	c-14.7,0-22.2-7.6-22.2-22V38.8H455.6z"/>
<path d="M505.8,43.9h0.2c2.8-4.3,7.1-6.8,12.3-6.8c2,0,4,0.5,5.8,1.2l-1.7,13.1c-1.7-1.2-3.7-1.8-5.8-1.8c-9.8,0-10.8,8.7-10.8,16.3
	v22.3h-14.1V38.8h14.1V43.9z"/>
<path d="M538.1,65.8c0,6.3,2.4,13.3,9.8,13.3c4.6,0,7.6-2.8,9.5-6.8l13,2.1c-3.4,9.9-12.1,15.4-22.5,15.4
	c-15.3,0-24.7-10.9-24.7-25.9c0-15,8-26.8,24-26.8c16.2,0,23.5,12,23.5,26.9v1.7H538.1z M557.3,57c-0.7-5-3.9-10-9.4-10
	c-5.6,0-8.8,4.8-9.5,10H557.3z"/>
<path d="M624,88.3h-13.9v-4.5h-0.2c-3,3.9-8.3,6.1-13.4,6.1c-14.5,0-22.8-13.2-22.8-26.6c0-13.1,8.4-26.1,22.6-26.1
	c5.1,0,10.4,2.2,13.8,6.2v-4.6H624V88.3z M611.5,63.5c0-6.7-4.5-13.8-11.8-13.8c-7.3,0-11.7,7.2-11.7,13.8c0,6.7,4.4,13.9,11.7,13.9
	C606.9,77.4,611.5,70.2,611.5,63.5z"/>
<path d="M643.9,38.8v26.8c0,5.6,0.9,12.4,8.1,12.4s8.1-6.8,8.1-12.4V38.8h14.1v29.1c0,14.4-7.5,22-22.2,22c-14.7,0-22.2-7.6-22.2-22
	V38.8H643.9z"/>
</svg>
