<?xml version="1.0" encoding="utf-8"?>
<!-- Generator: Adobe Illustrator 17.1.0, SVG Export Plug-In . SVG Version: 6.00 Build 0)  -->
<!DOCTYPE svg PUBLIC "-//W3C//DTD SVG 1.1//EN" "http://www.w3.org/Graphics/SVG/1.1/DTD/svg11.dtd">
<svg version="1.1" id="Layer_1" xmlns="http://www.w3.org/2000/svg" xmlns:xlink="http://www.w3.org/1999/xlink" x="0px" y="0px"
	 viewBox="0 0 163.4 97.3" enable-background="new 0 0 163.4 97.3" xml:space="preserve">
<g>
	<path fill="#231F20" d="M156.3,22.3L88.9,0.9c-3.9-1.2-10.4-1.2-14.3,0L7.2,22.3C3.2,23.6,0,28,0,32.1v33.1c0,4.1,3.2,8.5,7.2,9.8
		l67.4,21.4c3.9,1.2,10.4,1.2,14.3,0L156.3,75c3.9-1.3,7.2-5.6,7.2-9.8V32.1C163.4,28,160.2,23.6,156.3,22.3z"/>
	<g>
		<path fill="#FFFFFF" d="M91.5,29H65.1v38.1l26.2,0.1c5.2,0,9.5-4.3,9.5-9.5l0-19.3C100.8,33.2,96.6,29,91.5,29z M89.7,57.2
			c0,0.7-0.6,1.3-1.3,1.3H76.2V37.6h12.2c0.7,0,1.3,0.6,1.3,1.3V57.2z M46.8,29H20.5v38.1l26.2,0.1c5.2,0,9.5-4.3,9.5-9.5l0-19.3
			C56.2,33.2,52,29,46.8,29z M45.1,57.2c0,0.7-0.6,1.3-1.3,1.3H31.6V37.6h12.2c0.7,0,1.3,0.6,1.3,1.3V57.2z M145.4,41.7v-5.3
			c0-4.1-3.3-7.4-7.4-7.4h-20.9c-4.1,0-7.4,3.3-7.4,7.4v23.4c0,4.1,3.3,7.4,7.4,7.4H138c4.1,0,7.4-3.3,7.4-7.4v-5.3h-11.1v2.7
			c0,0.7-0.6,1.3-1.3,1.3h-10.9c-0.7,0-1.3-0.6-1.3-1.3V39c0-0.7,0.6-1.3,1.3-1.3H133c0.7,0,1.3,0.6,1.3,1.3v2.7H145.4z"/>
	</g>
</g>
</svg>
