<svg xmlns="http://www.w3.org/2000/svg" viewBox="-611 829 144 144"><path d="M-561.2 867.4c-1-1.7-1.3-3.9-.7-6.1.5-2.4 1.8-4.3 3.5-5.4 1.5-1 3.4-1.3 5.6-.8 3.9.9 5.7 3.4 5.5 6.7l-3.6-.8c0-1.3-.8-2.4-2.4-2.8-2.5-.6-4.2 1.2-4.8 4-.6 2.8.4 5.1 2.7 5.6 2 .4 3.4-.6 3.8-1.9l-2.8-.6.6-2.7 6.3 1.4-1.8 8.1-2.7-.7.2-1.9c-1.3 1.3-2.9 1.6-4.7 1.2-2.2-.5-3.8-1.6-4.7-3.3zM-546.5 864.7c1-4.5 4.6-7.2 9.2-6.2s6.7 5 5.7 9.5-4.6 7.2-9.2 6.2-6.7-5-5.7-9.5zm11.1 2.5c.6-2.7-.1-5.1-2.6-5.6-2.4-.5-4.1 1.3-4.7 4-.6 2.7.2 5.1 2.6 5.6s4.1-1.3 4.7-4zM-530.8 868.2c1-4.5 4.6-7.2 9.2-6.2s6.7 5 5.7 9.5-4.6 7.2-9.2 6.2-6.7-5-5.7-9.5zm11.1 2.5c.6-2.7-.1-5.1-2.6-5.6-2.4-.5-4.1 1.3-4.7 4-.6 2.7.2 5.1 2.6 5.6s4.1-1.3 4.7-4zM-512.8 864.3l6.4 1.4c4.2.9 6.3 4.6 5.3 9.2-.6 2.6-2 4.6-4 5.5-1.4.6-3 .8-4.9.3l-6.2-1.4 3.4-15zm3.2 13.2c2.4.5 4-.7 4.7-3.5.6-2.7-.3-4.8-2.7-5.3l-2.2-.5-2 8.8 2.2.5zM-579.9 871.9l11.2 2.5-.7 3.1-7.5-1.7-.7 3 6.2 1.4-.7 3-6.2-1.4-1.3 5.8-3.7-.8 3.4-14.9zM-569.6 884.4l2.2-9.7 3.7.8-2.2 9.8c-.3 1.5.2 2.6 2 3 1.7.4 2.8-.5 3.1-2l2.2-9.8 3.7.8-2.1 9.9c-.8 3.5-3.3 5.1-7.5 4.2-4.2-.9-5.9-3.5-5.1-7zM-555.2 885.4c1-4.5 4.7-7.2 9.1-6.2 1.7.4 3.1 1.2 4 2.3 1.1 1.3 1.5 2.9 1.3 4.6l-3.7-.8c.1-1.4-.7-2.6-2.3-3-2.4-.5-4 1.2-4.7 4-.6 2.8.3 5.1 2.6 5.6 1.7.4 3-.4 3.5-1.8l3.7.8c-.4 1.5-1.4 2.7-2.7 3.4-1.4.9-3.1 1.1-5.2.6-4.3-1.1-6.6-5-5.6-9.5zM-538.2 881.2l3.7.8-1.2 5.4 6.4-4.3 4.4 1-7.1 4.8 4.1 10.3-4.3-1-2.9-7.5-1.6 1-1.2 5.2-3.7-.8 3.4-14.9zM-523.5 884.5l3.7.8-3.3 15-3.7-.8 3.3-15zM-517.7 885.8l3.7.8 2.8 8.5c.1.5.6 2.1.6 2.1s.4-1.8.5-2.3l1.6-7.1 3.6.8-3.3 15-3.7-.8-2.8-8.4c-.2-.5-.6-2.3-.6-2.3s-.4 1.9-.5 2.5l-1.6 7-3.6-.8 3.3-15zM-504.3 902.7c-1-1.7-1.3-3.9-.7-6.1.5-2.4 1.8-4.3 3.5-5.4 1.5-1 3.4-1.3 5.6-.8 3.9.9 5.7 3.4 5.5 6.7l-3.6-.8c0-1.3-.8-2.4-2.4-2.8-2.5-.6-4.2 1.2-4.8 4-.6 2.8.4 5.1 2.7 5.6 2 .4 3.4-.6 3.8-1.9l-2.8-.6.6-2.7 6.3 1.4-1.8 8.1-2.6-.6.2-1.9c-1.3 1.3-2.9 1.6-4.7 1.2-2.3-.7-3.9-1.8-4.8-3.4zM-577.3 895.1l6.4 1.4c4.2.9 6.3 4.6 5.3 9.2-.6 2.6-2 4.6-4 5.5-1.4.6-3 .8-4.9.3l-6.2-1.4 3.4-15zm3.3 13.2c2.4.5 4-.7 4.7-3.5.6-2.7-.3-4.8-2.7-5.3l-2.3-.5-2 8.8 2.3.5zM-562.5 898.4l11.4 2.5-.7 3.1-7.7-1.7-.5 2.6 6.6 1.5-.6 2.9-6.6-1.5-.8 3.2 7.8 1.7-.7 3.2-11.5-2.6 3.3-14.9zM-552.4 911.4l3.7.8c-.2 1.5.7 2.4 2.5 2.8 1.2.3 2.5.1 2.8-1 .3-1.2-.9-1.7-2.8-2.7-2.5-1.2-5-2.6-4.3-5.8s3.6-4 7-3.3c3.3.7 5.4 2.8 4.9 5.9l-3.6-.8c.1-1.2-.6-2-2-2.3-1.3-.3-2.3.1-2.5.9-.2 1 .9 1.6 3 2.6 2.6 1.3 5 2.7 4.3 5.9-.7 3.2-3.8 4.3-7.2 3.5-4.2-.8-6.5-3.2-5.8-6.5zM-535.7 904.3l3.7.8-3.3 15-3.7-.8 3.3-15zM-531.5 919.2c-1-1.7-1.3-3.9-.7-6.1.5-2.4 1.8-4.3 3.5-5.4 1.5-1 3.4-1.3 5.6-.8 3.9.9 5.7 3.4 5.5 6.7l-3.6-.8c0-1.3-.8-2.4-2.4-2.8-2.5-.6-4.2 1.2-4.8 4-.6 2.8.4 5.1 2.7 5.6 2 .4 3.4-.6 3.8-1.9l-2.8-.6.6-2.7 6.3 1.4-1.8 8.1-2.6-.6.2-1.9c-1.3 1.3-2.9 1.6-4.7 1.2-2.3-.7-3.8-1.8-4.8-3.4zM-514.5 909.1l3.7.8 2.8 8.5c.1.5.6 2.1.6 2.1s.4-1.8.5-2.3l1.6-7.1 3.6.8-3.3 15-3.7-.8-2.8-8.4c-.2-.5-.6-2.3-.6-2.3s-.4 1.9-.5 2.5l-1.6 7-3.6-.8 3.3-15zM-576.9 917.7l3.8.9 2.1 16.2-3.9-.9-.3-2.9-5.2-1.2-1.5 2.5-3.7-.8 8.7-13.8zm1.4 10.4l-.3-3.9c-.1-.8-.1-2.3-.1-2.3s-.7 1.3-1.1 2l-2 3.4 3.5.8zM-566.6 920l6.4 1.4c4.2.9 6.3 4.6 5.3 9.2-.6 2.6-2 4.6-4 5.5-1.4.6-3 .8-4.9.3l-6.2-1.4 3.4-15zm3.2 13.2c2.4.5 4-.7 4.7-3.5.6-2.7-.3-4.8-2.7-5.3l-2.2-.5-2 8.8 2.2.5zM-553.6 922.9l3.9.9.6 8.4c.1 1.2.1 2.8.1 2.8s.7-1.4 1.3-2.5l4.1-7.4 3.8.8-8.3 13.9-3.9-.8-1.6-16.1zM-538.9 926.2l3.7.8-3.3 15-3.7-.8 3.3-15zM-535.4 934.9c1-4.5 4.7-7.2 9.1-6.2 1.7.4 3.1 1.2 4 2.3 1.1 1.3 1.5 2.9 1.3 4.6l-3.7-.8c.1-1.4-.7-2.6-2.3-3-2.4-.5-4 1.2-4.7 4-.6 2.8.3 5.1 2.6 5.6 1.7.4 3-.4 3.5-1.8l3.7.8c-.4 1.5-1.4 2.7-2.7 3.4-1.4.9-3.1 1.1-5.2.6-4.3-1.1-6.6-5-5.6-9.5zM-518.3 930.7l11.4 2.5-.7 3.1-7.7-1.7-.6 2.7 6.6 1.5-.6 2.9-6.6-1.5-.7 3.2 7.8 1.7-.7 3.1-11.5-2.6 3.3-14.9z"/><path d="M-539 833c37.5 0 68 30.5 68 68s-30.5 68-68 68-68-30.5-68-68 30.5-68 68-68m0-4c-39.8 0-72 32.2-72 72s32.2 72 72 72 72-32.2 72-72-32.2-72-72-72z"/></svg>