<?xml version="1.0" encoding="utf-8"?>
<!-- Generator: Adobe Illustrator 17.1.0, SVG Export Plug-In . SVG Version: 6.00 Build 0)  -->
<!DOCTYPE svg PUBLIC "-//W3C//DTD SVG 1.1//EN" "http://www.w3.org/Graphics/SVG/1.1/DTD/svg11.dtd">
<svg version="1.1" id="Layer_1" xmlns="http://www.w3.org/2000/svg" xmlns:xlink="http://www.w3.org/1999/xlink" x="0px" y="0px"
	 viewBox="0 0 436.8 129.1" enable-background="new 0 0 436.8 129.1" xml:space="preserve">
<g>
	<g>
		<path d="M428.5,0.8v56.6l1.3,18.9l-6.4-18.1L399.5,0.8h-8V92h8.4V37.2l-1.3-19.8l6.9,19L428.9,92h7.8V0.8H428.5z M347.3,6.1
			c9.1,0,13.1,6.5,13.1,12.9v54.9c0,6.9-4.3,12.8-13.1,12.8c-9.4,0-13.7-6-13.7-12.7V18.9C333.6,11.9,337.9,6.1,347.3,6.1 M347.3,93
			c14.2,0,21.2-9.4,21.2-19V19c0-10.2-7.8-19-21.2-19c-14.7,0-22.2,9.1-22.2,18.9v55.2C325.2,84.4,333.5,93,347.3,93 M283.6,93.1
			c14.5,0,21.4-8.9,21.4-19V58.9c0-9.3-9.9-12.9-21.2-18.1c-6.5-3-13.1-6.4-13.5-12.4v-9.5c0-8.5,4.8-12.5,12-12.5
			c8.4,0,11.6,5.6,11.6,12.4v10h8.1V18.7c0-10.6-7.2-18.5-19.8-18.5c-14,0-20.4,8.3-20.4,18.8v9.7c1,10.4,11.8,14.7,20.9,18.9
			c7.6,3.5,14.2,5.9,14.2,11.9v14.6c0,7.2-4.5,12.9-13.2,12.9c-9.6,0-14.2-6.4-13.9-13.2v-8.9h-8.3v8.9
			C261.3,85.4,270.5,93.1,283.6,93.1 M240.1,0.8h-8.4V92h8.4V0.8z M181.8,61.4l4.1-22.2l4-27l4,27l4.3,22.2H181.8z M203.8,92h8.3
			L194.7,0.8H185L167.7,92h8.4l4.6-24.5v0.1h18.3v-0.1L203.8,92z M148.9,0.8h-8.4V92h8.4V0.8z M96.5,85.9V0.8h-8.4V92h32.8v-6.1
			H96.5z"/>
		<g>
			<path d="M102.7,113.6c-0.5-0.7-1.2-1.2-2-1.6c-0.8-0.4-1.6-0.6-2.5-0.6c-1.1,0-2,0.2-2.9,0.6c-0.8,0.4-1.6,0.9-2.2,1.6
				c-0.6,0.7-1.1,1.5-1.4,2.4c-0.3,0.9-0.5,1.9-0.5,3c0,1,0.2,1.9,0.5,2.8c0.3,0.9,0.8,1.7,1.4,2.3c0.6,0.7,1.3,1.2,2.2,1.6
				c0.9,0.4,1.8,0.6,2.9,0.6c1.1,0,2-0.2,2.8-0.7c0.8-0.4,1.5-1,2-1.8l2.1,1.6c-0.1,0.2-0.4,0.5-0.7,0.8c-0.4,0.4-0.8,0.7-1.4,1.1
				c-0.6,0.4-1.3,0.7-2.1,0.9c-0.8,0.3-1.8,0.4-2.8,0.4c-1.5,0-2.8-0.3-4-0.8c-1.2-0.6-2.2-1.3-3-2.2c-0.8-0.9-1.5-1.9-1.9-3.1
				c-0.4-1.1-0.7-2.3-0.7-3.5c0-1.4,0.2-2.8,0.7-4c0.5-1.2,1.1-2.3,2-3.2c0.8-0.9,1.9-1.6,3.1-2.1c1.2-0.5,2.5-0.7,3.9-0.7
				c1.2,0,2.4,0.2,3.6,0.7c1.2,0.5,2.2,1.2,2.9,2.2L102.7,113.6z"/>
			<path d="M110.3,109.5h6.5c1.2,0,2.2,0.2,2.9,0.5c0.8,0.3,1.4,0.7,1.8,1.2c0.4,0.5,0.8,1.1,0.9,1.7c0.2,0.6,0.3,1.2,0.3,1.8
				c0,0.6-0.1,1.2-0.3,1.7c-0.2,0.6-0.5,1.1-0.9,1.5c-0.4,0.4-0.9,0.8-1.4,1.1c-0.6,0.3-1.2,0.5-1.9,0.6l5.3,8.5h-3.2l-4.7-8.2h-2.8
				v8.2h-2.5V109.5z M112.8,117.7h3.3c0.5,0,1,0,1.5-0.1c0.5-0.1,0.9-0.2,1.3-0.4c0.4-0.2,0.7-0.5,0.9-0.9c0.2-0.4,0.3-0.9,0.3-1.5
				c0-0.6-0.1-1.1-0.3-1.5c-0.2-0.4-0.5-0.7-0.9-0.9c-0.4-0.2-0.8-0.4-1.3-0.4c-0.5-0.1-1-0.1-1.5-0.1h-3.3V117.7z"/>
			<path d="M128.4,109.5h12v2.4h-9.5v5.5h8.8v2.4h-8.8v6h10v2.4h-12.5V109.5z"/>
			<path d="M152.4,109.5h2.3l8,18.6h-2.9l-1.9-4.6H149l-1.8,4.6h-2.9L152.4,109.5z M156.9,121.3l-3.5-8.5h-0.1l-3.5,8.5H156.9z"/>
			<path d="M171,111.9h-6v-2.4h14.5v2.4h-6v16.2H171V111.9z"/>
			<path d="M184.3,109.5h2.5v18.6h-2.5V109.5z"/>
			<path d="M191.1,109.5h2.9l5.5,15.1h0l5.7-15.1h2.8l-7.3,18.6h-2.4L191.1,109.5z"/>
			<path d="M212.3,109.5h12v2.4h-9.5v5.5h8.8v2.4h-8.8v6h10v2.4h-12.5V109.5z"/>
		</g>
		<g>
			<path d="M266.3,110h3.8l5.9,14.1h0.1l5.9-14.1h3.8v18.6h-2.5v-15.3h-0.1l-6.3,15.3h-1.7l-6.3-15.3h0v15.3h-2.5V110z"/>
			<path d="M298.6,110h2.3l8,18.6h-2.9L304,124h-8.9l-1.8,4.6h-2.9L298.6,110z M303.1,121.8l-3.5-8.5h0l-3.5,8.5H303.1z"/>
			<path d="M313.7,110h6.5c1.2,0,2.2,0.2,2.9,0.5c0.8,0.3,1.4,0.7,1.8,1.2c0.4,0.5,0.8,1.1,0.9,1.7c0.2,0.6,0.3,1.2,0.3,1.8
				c0,0.6-0.1,1.2-0.3,1.7c-0.2,0.6-0.5,1.1-0.9,1.5c-0.4,0.4-0.9,0.8-1.4,1.1c-0.6,0.3-1.2,0.5-1.9,0.6l5.3,8.5h-3.2l-4.7-8.2h-2.8
				v8.2h-2.5V110z M316.2,118.2h3.3c0.5,0,1,0,1.5-0.1c0.5-0.1,0.9-0.2,1.3-0.4c0.4-0.2,0.7-0.5,0.9-0.9c0.2-0.4,0.3-0.9,0.3-1.5
				c0-0.6-0.1-1.1-0.3-1.5c-0.2-0.4-0.5-0.7-0.9-0.9c-0.4-0.2-0.8-0.4-1.3-0.4s-1-0.1-1.5-0.1h-3.3V118.2z"/>
			<path d="M332.2,110h2.5v8h0.2l8.2-8h3.5l-9,8.6l9.6,10h-3.7l-8.7-9.3h-0.2v9.3h-2.5V110z"/>
			<path d="M351.7,110h12v2.4h-9.5v5.5h8.8v2.4h-8.8v6h10v2.4h-12.5V110z"/>
			<path d="M374.1,112.3h-6V110h14.5v2.4h-6v16.2h-2.5V112.3z"/>
			<path d="M387.8,110h2.5v18.6h-2.5V110z"/>
			<path d="M397.6,110h3.3l10.2,15.3h0.1V110h2.5v18.6h-3.2l-10.3-15.3h-0.1v15.3h-2.5V110z"/>
			<path d="M436.8,118.2v9.2c-0.5,0.3-1,0.5-1.5,0.7c-0.6,0.2-1.2,0.4-1.8,0.5c-0.6,0.1-1.3,0.3-1.9,0.3c-0.6,0.1-1.2,0.1-1.8,0.1
				c-1.6,0-3-0.3-4.2-0.8c-1.2-0.5-2.3-1.2-3.1-2.1c-0.8-0.9-1.5-1.9-1.9-3.1c-0.5-1.2-0.7-2.4-0.7-3.8c0-1.4,0.2-2.7,0.7-3.9
				c0.5-1.2,1.1-2.2,2-3.1c0.8-0.9,1.9-1.6,3.1-2.1c1.2-0.5,2.5-0.8,3.9-0.8c1.7,0,3.1,0.2,4.2,0.6c1.1,0.4,2,1,2.7,1.8l-1.8,1.9
				c-0.8-0.7-1.6-1.2-2.4-1.5c-0.9-0.3-1.8-0.4-2.7-0.4c-1.1,0-2,0.2-2.9,0.6c-0.9,0.4-1.6,0.9-2.2,1.6c-0.6,0.7-1.1,1.4-1.4,2.3
				c-0.3,0.9-0.5,1.9-0.5,2.9c0,1.1,0.2,2,0.6,2.9c0.4,0.9,0.9,1.7,1.5,2.4c0.6,0.7,1.4,1.2,2.3,1.6c0.9,0.4,1.8,0.6,2.9,0.6
				c0.9,0,1.7-0.1,2.5-0.2c0.8-0.2,1.5-0.4,2-0.7v-5.2h-4.1v-2.4H436.8z"/>
		</g>
	</g>
	<g>
		<g>
			<path fill="#009BDE" d="M237.8,117.2h5.5v-5.5h4.3v5.5h5.5v4.3h-5.5v5.5h-4.3v-5.5h-5.5V117.2z"/>
		</g>
		<path fill="#009BDE" d="M0,0.4v2.3c27.5,10.8,46,35.9,43.3,62.1C42,76.5,36.7,86.9,28.5,94.9c8.6-13.3,12.1-28.5,8.5-43.2
			C32.6,34.2,18.8,20.7,0,14.3v78.3c11.4-5.1,19.8-13.5,22.8-24.5c2.9-10.5,0.4-21.6-6.2-31.5c4.9,5,8.4,11,10,17.7
			C31.5,74,20.2,95.2,0,108.6v12.8c29.3-6.2,50.9-27.6,53.8-55.4c2.3-22-7.8-43.4-25.4-58.4c15.7,9.3,26.8,23,31,39.6
			c7.4,29.5-8.5,61.1-37.7,82H67V0.4H0z"/>
	</g>
</g>
</svg>
