<svg xmlns="http://www.w3.org/2000/svg" viewBox="0 0 284.4 110.6"><path fill="#003E7E" d="M46.3 59c3.2 0 5.9.5 8.1 1.4 2.2.9 4 2.1 5.4 3.7 1.4 1.5 2.4 3.2 3.1 5.2.6 1.9 1 4 1 6s-.3 4-1 6c-.6 2-1.7 3.7-3.1 5.2-1.4 1.5-3.2 2.7-5.4 3.7-2.2.9-4.9 1.4-8.1 1.4H34.6v18.2H23.4V59h22.9zm-3 23.9c1.3 0 2.5-.1 3.7-.3 1.2-.2 2.2-.6 3.1-1.1.9-.5 1.6-1.3 2.2-2.3.5-1 .8-2.3.8-3.9s-.3-2.9-.8-3.9-1.3-1.8-2.2-2.3c-.9-.5-1.9-.9-3.1-1.1-1.2-.2-2.4-.3-3.7-.3h-8.7v15.2h8.7zM65.5 83.4c.9-2.4 2.2-4.4 3.8-6.1 1.7-1.7 3.6-3 6-3.9 2.3-.9 4.9-1.4 7.8-1.4 2.9 0 5.5.5 7.9 1.4 2.3.9 4.3 2.2 6 3.9 1.7 1.7 2.9 3.7 3.8 6.1.9 2.4 1.4 5.1 1.4 8 0 2.9-.5 5.6-1.4 8-.9 2.4-2.2 4.4-3.8 6.1-1.7 1.7-3.7 3-6 3.9-2.3.9-5 1.4-7.9 1.4-2.9 0-5.5-.4-7.8-1.4-2.3-.9-4.3-2.2-6-3.9-1.7-1.7-2.9-3.7-3.8-6.1-.9-2.4-1.4-5-1.4-8s.5-5.6 1.4-8m9.2 12.3c.3 1.4.8 2.7 1.5 3.8.7 1.1 1.6 2 2.7 2.7 1.1.7 2.6 1 4.3 1 1.7 0 3.1-.3 4.3-1 1.2-.7 2.1-1.5 2.8-2.7.7-1.1 1.2-2.4 1.5-3.8.3-1.4.4-2.8.4-4.3s-.1-2.9-.4-4.3c-.3-1.4-.8-2.7-1.5-3.8-.7-1.1-1.6-2-2.8-2.7-1.2-.7-2.6-1-4.3-1-1.7 0-3.1.3-4.3 1-1.1.7-2.1 1.6-2.7 2.7-.7 1.1-1.2 2.3-1.5 3.8-.3 1.4-.4 2.9-.4 4.3-.1 1.5.1 2.9.4 4.3M125.9 73v6.8h-7.4V98c0 1.7.3 2.8.9 3.4.6.6 1.7.9 3.4.9.6 0 1.1 0 1.6-.1.5 0 1-.1 1.5-.2v7.8c-.9.1-1.8.2-2.8.3-1 0-2.1.1-3.1.1-1.6 0-3-.1-4.4-.3-1.4-.2-2.6-.6-3.7-1.2s-1.9-1.5-2.5-2.6c-.6-1.1-.9-2.6-.9-4.5V79.7h-6.1V73h6.1V62h10.1v11h7.3zM140.8 100.9c1.5 1.5 3.7 2.2 6.5 2.2 2 0 3.8-.5 5.3-1.5s2.4-2.1 2.7-3.2h8.9c-1.4 4.4-3.6 7.6-6.5 9.5-2.9 1.9-6.5 2.8-10.7 2.8-2.9 0-5.5-.5-7.8-1.4-2.3-.9-4.3-2.2-5.9-3.9-1.6-1.7-2.9-3.7-3.7-6.1-.9-2.4-1.3-5-1.3-7.8 0-2.7.4-5.3 1.3-7.7.9-2.4 2.2-4.4 3.8-6.1 1.7-1.7 3.6-3.1 5.9-4.1 2.3-1 4.8-1.5 7.6-1.5 3.1 0 5.8.6 8.2 1.8 2.3 1.2 4.2 2.8 5.7 4.9 1.5 2 2.6 4.4 3.2 7 .7 2.6.9 5.3.7 8.2h-26.5c.2 3.1 1 5.4 2.6 6.9m11.4-19.3c-1.2-1.3-3-2-5.5-2-1.6 0-2.9.3-4 .8s-1.9 1.2-2.6 2c-.6.8-1.1 1.7-1.4 2.6-.3.9-.4 1.7-.5 2.4h16.4c-.4-2.6-1.2-4.5-2.4-5.8M178 100.6c.4.8 1 1.4 1.7 1.9s1.5.9 2.5 1.1c.9.2 1.9.4 2.9.4.7 0 1.5-.1 2.2-.2.8-.2 1.5-.4 2.1-.8.6-.4 1.2-.8 1.6-1.4.4-.6.6-1.3.6-2.2 0-1.5-1-2.7-3-3.4-2-.8-4.8-1.5-8.4-2.3-1.5-.3-2.9-.7-4.3-1.2-1.4-.4-2.6-1-3.7-1.8-1.1-.7-2-1.7-2.6-2.8-.7-1.1-1-2.5-1-4.1 0-2.4.5-4.3 1.4-5.8.9-1.5 2.1-2.7 3.7-3.6 1.5-.9 3.2-1.5 5.1-1.8 1.9-.4 3.8-.5 5.8-.5s3.9.2 5.8.6c1.9.4 3.5 1 5 1.9 1.5.9 2.7 2.1 3.7 3.6s1.5 3.4 1.7 5.6h-9.6c-.1-1.9-.9-3.3-2.2-3.9-1.3-.7-2.9-1-4.7-1-.6 0-1.2 0-1.8.1-.7.1-1.3.2-1.8.5-.5.2-1 .6-1.4 1-.4.5-.6 1.1-.6 1.8 0 .9.3 1.6 1 2.2.7.6 1.5 1 2.6 1.4 1.1.4 2.3.7 3.7 1l4.2.9c1.5.3 2.9.7 4.3 1.2s2.6 1.1 3.7 1.9c1.1.8 2 1.8 2.6 2.9.7 1.2 1 2.6 1 4.3 0 2.4-.5 4.4-1.5 6.1-1 1.6-2.2 2.9-3.8 3.9-1.6 1-3.4 1.7-5.4 2.1-2 .4-4.1.6-6.1.6-2.1 0-4.2-.2-6.3-.6-2-.4-3.8-1.1-5.4-2.1-1.6-1-2.9-2.3-3.9-3.9s-1.6-3.7-1.7-6.1h9.6c0 .8.2 1.7.7 2.5M226.6 73v6.8h-7.4V98c0 1.7.3 2.8.9 3.4.6.6 1.7.9 3.4.9.6 0 1.1 0 1.6-.1.5 0 1-.1 1.5-.2v7.8c-.9.1-1.8.2-2.8.3-1 0-2.1.1-3.1.1-1.6 0-3-.1-4.4-.3-1.4-.2-2.6-.6-3.7-1.2s-1.9-1.5-2.5-2.6c-.6-1.1-.9-2.6-.9-4.5V79.7H203V73h6.1V62h10.1v11h7.4zM232.2 59h10.1v8.3h-10.1V59zm10.1 50.7h-10.1V73h10.1v36.7zM247.7 83.4c.9-2.4 2.2-4.4 3.8-6.1 1.7-1.7 3.6-3 6-3.9 2.3-.9 4.9-1.4 7.8-1.4 2.9 0 5.5.5 7.9 1.4 2.3.9 4.3 2.2 6 3.9 1.7 1.7 2.9 3.7 3.8 6.1.9 2.4 1.4 5.1 1.4 8 0 2.9-.4 5.6-1.4 8-.9 2.4-2.2 4.4-3.8 6.1-1.7 1.7-3.7 3-6 3.9-2.3.9-5 1.4-7.9 1.4-2.9 0-5.5-.4-7.8-1.4-2.3-.9-4.3-2.2-6-3.9-1.7-1.7-2.9-3.7-3.8-6.1-.9-2.4-1.4-5-1.4-8 .1-3 .5-5.6 1.4-8m9.2 12.3c.3 1.4.8 2.7 1.5 3.8.7 1.1 1.6 2 2.7 2.7 1.1.7 2.6 1 4.3 1 1.7 0 3.1-.3 4.3-1 1.2-.7 2.1-1.5 2.8-2.7.7-1.1 1.2-2.4 1.5-3.8.3-1.4.4-2.8.4-4.3s-.1-2.9-.4-4.3c-.3-1.4-.8-2.7-1.5-3.8-.7-1.1-1.6-2-2.8-2.7-1.2-.7-2.6-1-4.3-1-1.7 0-3.1.3-4.3 1-1.1.7-2 1.6-2.7 2.7-.7 1.1-1.2 2.3-1.5 3.8-.3 1.4-.4 2.9-.4 4.3 0 1.5.1 2.9.4 4.3"/><path fill="#BABCBE" d="M5.9 52.6v-5.9h3.2v5.9H15v3.2H9.1v5.9H5.9v-5.9H0v-3.2"/><path fill="#EE3124" d="M39.1 0L51 34.9h.1L62.3 0H78v50.7H67.6V14.8h-.2L55 50.7h-8.6L34 15.1h-.2v35.6H23.4V0M85.6 19.4c1-1.6 2.4-2.8 4-3.8 1.6-.9 3.4-1.6 5.4-2 2-.4 4-.6 6.1-.6 1.8 0 3.7.1 5.6.4 1.9.3 3.6.8 5.2 1.5 1.6.8 2.8 1.8 3.8 3.2 1 1.4 1.5 3.1 1.5 5.4v19.1c0 1.7.1 3.2.3 4.8.2 1.5.5 2.7 1 3.4h-10.2c-.2-.6-.3-1.1-.5-1.7-.1-.6-.2-1.2-.2-1.8-1.6 1.7-3.5 2.8-5.7 3.5-2.2.7-4.4 1-6.7 1-1.8 0-3.4-.2-4.9-.6-1.5-.4-2.8-1.1-4-2-1.1-.9-2-2-2.7-3.4-.6-1.4-1-3-1-4.9 0-2.1.4-3.8 1.1-5.2.7-1.4 1.7-2.4 2.8-3.2 1.2-.8 2.5-1.4 4-1.8 1.5-.4 3-.7 4.5-1l4.5-.6c1.5-.1 2.8-.4 3.9-.6 1.1-.3 2-.7 2.7-1.2.7-.5 1-1.3.9-2.4 0-1.1-.2-2-.5-2.6-.4-.6-.8-1.1-1.4-1.5-.6-.4-1.3-.6-2.1-.7-.8-.1-1.6-.2-2.5-.2-2 0-3.6.4-4.7 1.3s-1.8 2.3-2 4.3h-10c.2-2.6.8-4.5 1.8-6.1m20 14.2c-.6.2-1.3.4-2.1.5-.7.1-1.5.3-2.3.4-.8.1-1.6.2-2.4.4-.8.1-1.5.3-2.2.6-.7.2-1.4.6-1.9 1s-1 .9-1.3 1.5c-.3.6-.5 1.4-.5 2.3 0 .9.2 1.7.5 2.3.3.6.8 1.1 1.4 1.5.6.4 1.2.6 2 .7.8.1 1.5.2 2.3.2 2 0 3.5-.3 4.6-1 1.1-.7 1.9-1.5 2.4-2.4.5-.9.8-1.9 1-2.8.1-.9.2-1.7.2-2.3v-3.8c-.6.4-1.1.7-1.7.9M143.2 14v6.8h-7.4V39c0 1.7.3 2.8.9 3.4.6.6 1.7.9 3.4.9.6 0 1.1 0 1.6-.1.5 0 1-.1 1.5-.2v7.8c-.9.1-1.8.2-2.8.3-1 0-2.1.1-3.1.1-1.6 0-3-.1-4.4-.3-1.4-.2-2.6-.6-3.7-1.2s-1.9-1.5-2.5-2.6c-.6-1.1-.9-2.6-.9-4.5V20.7h-6.1V14h6.1V3h10.1v11h7.3zM158.2 0v19.1h.2c1.3-2.1 2.9-3.7 4.9-4.7 2-1 3.9-1.5 5.8-1.5 2.7 0 4.9.4 6.6 1.1 1.7.7 3.1 1.8 4.1 3.1 1 1.3 1.7 2.9 2.1 4.8.4 1.9.6 3.9.6 6.2v22.6h-10.1V30c0-3-.5-5.3-1.4-6.8-.9-1.5-2.6-2.2-5-2.2-2.8 0-4.7.8-6 2.5-1.2 1.6-1.8 4.3-1.8 8.1v19.3h-10.1V0h10.1zM201.5 61.7c-1.9 1.3-4.6 1.9-8.1 1.9-1 0-2.1 0-3.1-.1s-2-.2-3.1-.2V55c.9.1 1.9.2 2.9.3 1 .1 2 .1 3 .1 1.3-.1 2.3-.7 3-1.6.6-.9 1-1.9 1-3 0-.8-.1-1.6-.4-2.3L183.8 14h10.7l8.3 25.2h.1l8-25.2h10.4L206 55.3c-1 3-2.5 5.1-4.5 6.4M231.6 41.6c.4.8 1 1.4 1.7 1.9s1.5.9 2.5 1.1c.9.2 1.9.4 2.9.4.7 0 1.5-.1 2.2-.2.8-.2 1.5-.4 2.1-.8.6-.4 1.2-.8 1.6-1.4.4-.6.6-1.3.6-2.2 0-1.5-1-2.7-3-3.4-2-.8-4.8-1.5-8.4-2.3-1.5-.3-2.9-.7-4.3-1.2s-2.6-1-3.7-1.8c-1.1-.7-2-1.7-2.6-2.8-.7-1.1-1-2.5-1-4.1 0-2.4.5-4.3 1.4-5.8.9-1.5 2.1-2.7 3.7-3.6 1.5-.9 3.2-1.5 5.1-1.8 1.9-.4 3.8-.5 5.8-.5s3.9.2 5.8.6c1.9.4 3.5 1 5 1.9 1.5.9 2.7 2.1 3.7 3.6s1.6 3.4 1.7 5.6h-9.6c-.1-1.9-.9-3.3-2.2-3.9-1.3-.7-2.9-1-4.7-1-.6 0-1.2 0-1.8.1-.7.1-1.3.2-1.8.5-.5.2-1 .6-1.4 1-.4.5-.6 1.1-.6 1.8 0 .9.3 1.6 1 2.2.7.6 1.5 1 2.6 1.4 1.1.4 2.3.7 3.7 1l4.2.9c1.5.3 2.9.7 4.3 1.2s2.6 1.1 3.7 1.9c1.1.8 2 1.8 2.6 2.9.7 1.2 1 2.6 1 4.3 0 2.4-.5 4.4-1.5 6.1-1 1.6-2.2 2.9-3.8 3.9-1.6 1-3.4 1.7-5.4 2.1-2 .4-4.1.6-6.1.6-2.1 0-4.2-.2-6.3-.6-2-.4-3.9-1.1-5.4-2.1-1.6-1-2.9-2.3-3.9-3.9s-1.6-3.7-1.7-6.1h9.6c0 .8.2 1.7.7 2.5"/></svg>