<svg id="Layer_1" xmlns="http://www.w3.org/2000/svg" xmlns:xlink="http://www.w3.org/1999/xlink" viewBox="-503 847 360 108"><style>.st0{clip-path:url(#SVGID_2_);}</style><g id="Layer_2"><g id="Shield_x5F_shape.tif"><image width="268" height="289" id="Shield_x5F_shape_2_" xlink:href="9D7BBAF4A1ED2B3A.png" transform="matrix(.3866 0 0 .387 -514.456 844.733)" overflow="visible"/></g><defs><path id="SVGID_1_" d="M-501.5 851.9h355.4V951h-355.4z"/></defs><clipPath id="SVGID_2_"><use xlink:href="#SVGID_1_" overflow="visible"/></clipPath><path class="st0" d="M-436.7 865.7l-5.8 20.9 5.8 21.3h-7.4l-4.8-17.6v17.6h-7.4v-42.2h7.4v17l4.8-17h7.4zm-29.7 17.3h7.4v6.7h-7.4V883zm-14-9.9v27.3h3.7v-27.3h-3.7zm10.3-6.5c.6.6.9 1.4.9 2.2v35.9c0 .9-.4 1.7-.9 2.2-.6.6-1.4.9-2.2.9h-12.3c-.9 0-1.7-.4-2.2-.9-.6-.6-.9-1.4-.9-2.2v-35.9c0-.9.4-1.7.9-2.2.6-.6 1.4-.9 2.2-.9h12.3c.8-.1 1.6.3 2.2.9zm45.6-14.7h-76.9s-2.8 35 13 66.6c8.1 16.2 24.8 31.9 25.4 32.4.6-.5 17.3-16.2 25.4-32.4 15.9-31.6 13.1-66.6 13.1-66.6z"/><path d="M-384.6 875.3c0-1.9-1.1-3.3-3.1-3.3s-3.1 1.3-3.1 3.3v23.6c0 1.9 1.1 3.3 3.1 3.3s3.1-1.3 3.1-3.3v-23.6zm-3.1 32.6c-5.8 0-9.6-3.9-9.6-9.5v-22.6c0-5.6 3.8-9.5 9.6-9.5s9.6 4 9.6 9.5v22.6c0 5.6-3.8 9.5-9.6 9.5zM-373.5 907.2V867h6.4v34.4h9.3v5.8zM-335.2 907.2v-29.9l-1.2 8.5-3.8 21.4h-4.8l-3.6-21.4-1.2-8.5v29.9h-5.7V867h8.7l3.5 20.3 1.1 7.8 1.1-7.8 3.5-20.3h8.5v40.2zM-315.9 907.9c-5.8 0-9.4-3.6-9.4-9.2v-3.6h5.9v3.4c0 2.5 1.1 4 3.4 4s3.4-1.4 3.4-3.6c0-3.5-1.8-6.1-5.1-9.7-3.3-3.3-7.2-8-7.2-13.2 0-5.4 3.1-9.8 9.4-9.8 5.4 0 8.9 3.7 8.9 9.2v3.6h-5.8v-3.6c0-2.2-1-3.7-3.1-3.7-1.9 0-3.1 1.2-3.1 3.3 0 3.9 1.7 5.9 5.5 9.8 3.9 4 6.8 8.1 6.8 13.2-.2 6.4-4.3 9.9-9.6 9.9zM-292.4 872.8v34.4h-6.4v-34.4h-6.2V867h18.7v5.8zM-283.2 907.2V867h16.1v5.6h-9.7v11.2h6.7v5.3h-6.7v12.2h9.7v5.9zM-251.1 876.5c0-2.5-1-3.8-3.2-3.8h-3v28.8h3c2.2 0 3.2-1.3 3.2-3.8v-21.2zm-2.8 30.7h-9.8V867h9.8c5.8 0 9.2 3.6 9.2 9.6v21.3c0 6-3.4 9.3-9.2 9.3zM-240.5 890.8v-4.5h10.8v4.5zM-212.1 907.2l-4.5-16.7-2.1 5.8v10.9h-6.4V867h6.4v18.9l6.6-18.9h6.3l-6.4 17.1 6.7 23.1zM-201.6 907.2V867h6.4v40.2zM-177.6 875.1c0-1.7-.7-2.6-2.2-2.6h-3.2v12.7h3.1c1.6 0 2.4-.9 2.4-2.8v-7.3h-.1zm3.7 32.3c-2.5 0-3.4-2.4-3.4-5.6v-8.6c0-1.6-.8-3-2.6-3h-3.1v17h-6.4V867h10.3c4.5 0 7.9 2.5 7.9 7.9v7.1c0 2.7-1.2 4.7-3.8 5.7 2.6.9 3.9 3.1 3.9 5.6v8.2c0 1.8.4 3.1 1.2 4.1v1.8h-4zM-152.7 907.2l-4.5-16.7-2.2 5.8v10.9h-6.4V867h6.4v18.9l6.7-18.9h6.3l-6.5 17.1 6.7 23.1z"/><g><path d="M-305.1 918.7v3.5h5v2.7h-5v7.1h-3.1v-16h8.4v2.7h-5.3zM-288.5 932h-3.1v-16h3.1v16zM-279.4 915.7h2.2l9.7 11.1V916h3.1v16.3h-2.1l-9.8-11.1V932h-3.1v-16.3zM-252.8 918.7v3.5h5.5v2.7h-5.5v4.3h5.7v2.8h-8.9v-16h8.9v2.7h-5.7zM-226.6 932h-3.1v-16h4.7c2.1 0 3.2.3 4.2 1.2 1.1.9 1.6 2.3 1.6 3.8 0 3.2-2 5-5.4 5h-2v6zm1.3-8.6c2 0 3-.8 3-2.4s-1-2.4-3-2.4h-1.2v4.8h1.2zM-211 928.6l-1.4 3.4h-3.3l6.9-16.3h2.3l6.7 16.3h-3.3l-1.4-3.4h-6.5zm3.3-8.2l-2.3 5.8h4.6l-2.3-5.8zM-190.1 932h-3.1v-16h4.7c2.1 0 3.2.3 4.2 1.2 1.1.9 1.6 2.3 1.6 3.8 0 3.2-2 5-5.4 5h-2v6zm1.3-8.6c2 0 3-.8 3-2.4s-1-2.4-3-2.4h-1.2v4.8h1.2zM-172.6 918.7v3.5h5.5v2.7h-5.5v4.3h5.7v2.8h-8.9v-16h8.9v2.7h-5.7zM-147.4 932h-3.8l-4.3-6.4h-.4v6.4h-3.1v-16h4.6c1.8 0 3.1.4 4 1.2 1 .8 1.6 2.2 1.6 3.6 0 1.6-.7 3-1.9 3.8-.5.4-.9.5-1.8.7l5.1 6.7zm-7.6-8.6c2 0 3.1-.9 3.1-2.4s-1.1-2.4-3.1-2.4h-1v4.8h1z"/></g></g></svg>