<?xml version="1.0" encoding="utf-8"?>
<!-- Generator: Adobe Illustrator 17.1.0, SVG Export Plug-In . SVG Version: 6.00 Build 0)  -->
<!DOCTYPE svg PUBLIC "-//W3C//DTD SVG 1.1//EN" "http://www.w3.org/Graphics/SVG/1.1/DTD/svg11.dtd">
<svg version="1.1" id="Layer_1" xmlns="http://www.w3.org/2000/svg" xmlns:xlink="http://www.w3.org/1999/xlink" x="0px" y="0px"
	 viewBox="0 0 360 108" enable-background="new 0 0 360 108" xml:space="preserve">
<g id="Layer_1_1_">
</g>
<g id="Layer_2">
	<g id="Shield_x5F_shape.tif">
		
			<image overflow="visible" enable-background="new    " width="268" height="289" id="Shield_x5F_shape_2_" xlink:href="9D7BBAF4A1ED2B3A.png"  transform="matrix(0.3866 0 0 0.3869 -11.4556 -2.2666)">
		</image>
	</g>
	<g>
		<g>
			<g>
				<defs>
					<rect id="SVGID_1_" x="1.5" y="4.9" width="355.4" height="99.1"/>
				</defs>
				<clipPath id="SVGID_2_">
					<use xlink:href="#SVGID_1_"  overflow="visible"/>
				</clipPath>
				<path clip-path="url(#SVGID_2_)" fill="#00245D" d="M66.3,18.7l-5.8,20.9l5.8,21.3h-7.4l-4.8-17.6v17.6h-7.4V18.7h7.4v17l4.8-17
					L66.3,18.7L66.3,18.7z M36.6,36H44v6.7h-7.4V36L36.6,36z M22.6,26.1v27.3h3.7V26.1H22.6L22.6,26.1z M32.9,19.6
					c0.6,0.6,0.9,1.4,0.9,2.2v35.9c0,0.9-0.4,1.7-0.9,2.2c-0.6,0.6-1.4,0.9-2.2,0.9H18.4c-0.9,0-1.7-0.4-2.2-0.9
					c-0.6-0.6-0.9-1.4-0.9-2.2V21.8c0-0.9,0.4-1.7,0.9-2.2c0.6-0.6,1.4-0.9,2.2-0.9h12.3C31.5,18.6,32.3,19,32.9,19.6L32.9,19.6
					L32.9,19.6z M78.5,4.9H1.6c0,0-2.8,35,13,66.6c8.1,16.2,24.8,31.9,25.4,32.4v0l0,0l0,0v0c0.6-0.5,17.3-16.2,25.4-32.4
					C81.3,39.9,78.5,4.9,78.5,4.9L78.5,4.9z"/>
			</g>
		</g>
		<path fill="#00245D" d="M118.4,28.3c0-1.9-1.1-3.3-3.1-3.3c-2,0-3.1,1.3-3.1,3.3v23.6c0,1.9,1.1,3.3,3.1,3.3c2,0,3.1-1.3,3.1-3.3
			V28.3L118.4,28.3z M115.3,60.9c-5.8,0-9.6-3.9-9.6-9.5V28.8c0-5.6,3.8-9.5,9.6-9.5s9.6,4,9.6,9.5v22.6
			C124.9,57,121.1,60.9,115.3,60.9L115.3,60.9z"/>
		<polygon fill="#00245D" points="129.5,60.2 129.5,20 135.9,20 135.9,54.4 145.2,54.4 145.2,60.2 		"/>
		<polygon fill="#00245D" points="167.8,60.2 167.8,30.3 166.6,38.8 162.8,60.2 158,60.2 154.4,38.8 153.2,30.3 153.2,60.2 
			147.5,60.2 147.5,20 156.2,20 159.7,40.3 160.8,48.1 161.9,40.3 165.4,20 173.9,20 173.9,60.2 		"/>
		<path fill="#00245D" d="M187.1,60.9c-5.8,0-9.4-3.6-9.4-9.2v-3.6h5.9v3.4c0,2.5,1.1,4,3.4,4c2.3,0,3.4-1.4,3.4-3.6
			c0-3.5-1.8-6.1-5.1-9.7c-3.3-3.3-7.2-8-7.2-13.2c0-5.4,3.1-9.8,9.4-9.8c5.4,0,8.9,3.7,8.9,9.2v3.6h-5.8v-3.6c0-2.2-1-3.7-3.1-3.7
			c-1.9,0-3.1,1.2-3.1,3.3c0,3.9,1.7,5.9,5.5,9.8c3.9,4,6.8,8.1,6.8,13.2C196.5,57.4,192.4,60.9,187.1,60.9L187.1,60.9z"/>
		<polygon fill="#00245D" points="210.6,25.8 210.6,60.2 204.2,60.2 204.2,25.8 198,25.8 198,20 216.7,20 216.7,25.8 		"/>
		<polygon fill="#00245D" points="219.8,60.2 219.8,20 235.9,20 235.9,25.6 226.2,25.6 226.2,36.8 232.9,36.8 232.9,42.1 
			226.2,42.1 226.2,54.3 235.9,54.3 235.9,60.2 		"/>
		<path fill="#00245D" d="M251.9,29.5c0-2.5-1-3.8-3.2-3.8h-3v28.8h3c2.2,0,3.2-1.3,3.2-3.8V29.5L251.9,29.5z M249.1,60.2h-9.8V20
			h9.8c5.8,0,9.2,3.6,9.2,9.6v21.3C258.3,56.9,254.9,60.2,249.1,60.2L249.1,60.2z"/>
		<polygon fill="#00245D" points="262.5,43.8 262.5,39.3 273.3,39.3 273.3,43.8 		"/>
		<polygon fill="#00245D" points="290.9,60.2 286.4,43.5 284.3,49.3 284.3,60.2 277.9,60.2 277.9,20 284.3,20 284.3,38.9 290.9,20 
			297.2,20 290.8,37.1 297.5,60.2 		"/>
		<polygon fill="#00245D" points="301.4,60.2 301.4,20 307.8,20 307.8,60.2 		"/>
		<path fill="#00245D" d="M325.4,28.1c0-1.7-0.7-2.6-2.2-2.6H320v12.7h3.1c1.6,0,2.4-0.9,2.4-2.8V28.1L325.4,28.1z M329.1,60.4
			c-2.5,0-3.4-2.4-3.4-5.6v-8.6c0-1.6-0.8-3-2.6-3H320v17h-6.4V20h10.3c4.5,0,7.9,2.5,7.9,7.9V35c0,2.7-1.2,4.7-3.8,5.7
			c2.6,0.9,3.9,3.1,3.9,5.6v8.2c0,1.8,0.4,3.1,1.2,4.1v1.8L329.1,60.4L329.1,60.4z"/>
		<polygon fill="#00245D" points="350.3,60.2 345.8,43.5 343.6,49.3 343.6,60.2 337.2,60.2 337.2,20 343.6,20 343.6,38.9 350.3,20 
			356.6,20 350.1,37.1 356.8,60.2 		"/>
		<polygon fill="#C4C6C8" points="38.5,39.5 36.6,42.8 36.6,42.8 44,42.8 44,42.8 42.1,39.5 		"/>
		<polygon fill="#C4C6C8" points="26.4,53.5 30.1,57.2 30.1,22.5 26.4,26.2 		"/>
		<path fill="#C4C6C8" d="M18.9,57.2l0-34.7l0,0v0l-2.8-2.8c-0.6,0.6-0.9,1.4-0.9,2.2v35.9c0,0.9,0.4,1.7,0.9,2.2L18.9,57.2
			L18.9,57.2z"/>
		<polygon fill="#C4C6C8" points="50.4,22.5 46.7,18.8 46.7,61 46.7,61 50.4,57.3 50.4,57.3 		"/>
		<polygon fill="#C4C6C8" points="56.8,39.5 61.7,22.5 58.9,18.8 54.1,35.7 54.1,43.4 58.9,61 58.9,61 61.8,57.3 		"/>
		<polygon fill="#C4C6C8" points="54.1,61 50.4,57.3 46.7,61 		"/>
		<polygon fill="#C4C6C8" points="66.3,61 61.8,57.3 58.9,61 		"/>
		<path fill="#C4C6C8" d="M30.1,57.2L30.1,57.2l-11.2,0v0L16.1,60c0,0,0,0,0,0c0.6,0.6,1.4,0.9,2.2,0.9h12.3c0.9,0,1.7-0.4,2.2-0.9
			L30.1,57.2L30.1,57.2L30.1,57.2z M22.6,26.2L22.6,26.2l-3.7-3.8v0l11.2,0v0l-3.7,3.7v0L22.6,26.2L22.6,26.2L22.6,26.2z"/>
		<polygon fill="#C4C6C8" points="36.6,36.1 36.6,42.8 38.5,39.5 		"/>
	</g>
	<g>
		<path fill="#20255B" d="M197.9,71.7v3.5h5v2.7h-5V85h-3.1V69h8.4v2.7L197.9,71.7L197.9,71.7z"/>
		<path fill="#20255B" d="M214.5,85h-3.1V69h3.1V85z"/>
		<path fill="#20255B" d="M223.6,68.7h2.2l9.7,11.1V69h3.1v16.3h-2.1l-9.8-11.1V85h-3.1L223.6,68.7L223.6,68.7z"/>
		<path fill="#20255B" d="M250.2,71.7v3.5h5.5v2.7h-5.5v4.3h5.7V85h-8.9V69h8.9v2.7L250.2,71.7L250.2,71.7z"/>
		<path fill="#20255B" d="M276.4,85h-3.1V69h4.7c2.1,0,3.2,0.3,4.2,1.2c1.1,0.9,1.6,2.3,1.6,3.8c0,3.2-2,5-5.4,5h-2V85z M277.7,76.4
			c2,0,3-0.8,3-2.4c0-1.6-1-2.4-3-2.4h-1.2v4.8H277.7z"/>
		<path fill="#20255B" d="M292,81.6l-1.4,3.4h-3.3l6.9-16.3h2.3l6.7,16.3h-3.3l-1.4-3.4H292z M295.3,73.4l-2.3,5.8h4.6L295.3,73.4z"
			/>
		<path fill="#20255B" d="M312.9,85h-3.1V69h4.7c2.1,0,3.2,0.3,4.2,1.2c1.1,0.9,1.6,2.3,1.6,3.8c0,3.2-2,5-5.4,5h-2V85z M314.2,76.4
			c2,0,3-0.8,3-2.4c0-1.6-1-2.4-3-2.4h-1.2v4.8H314.2z"/>
		<path fill="#20255B" d="M330.4,71.7v3.5h5.5v2.7h-5.5v4.3h5.7V85h-8.9V69h8.9v2.7L330.4,71.7L330.4,71.7z"/>
		<path fill="#20255B" d="M355.6,85h-3.8l-4.3-6.4h-0.4V85H344V69h4.6c1.8,0,3.1,0.4,4,1.2c1,0.8,1.6,2.2,1.6,3.6
			c0,1.6-0.7,3-1.9,3.8c-0.5,0.4-0.9,0.5-1.8,0.7L355.6,85z M348,76.4c2,0,3.1-0.9,3.1-2.4c0-1.5-1.1-2.4-3.1-2.4h-1v4.8
			C347.1,76.4,348,76.4,348,76.4z"/>
	</g>
</g>
</svg>
