<?xml version="1.0" encoding="utf-8"?>
<!-- Generator: Adobe Illustrator 17.1.0, SVG Export Plug-In . SVG Version: 6.00 Build 0)  -->
<!DOCTYPE svg PUBLIC "-//W3C//DTD SVG 1.1//EN" "http://www.w3.org/Graphics/SVG/1.1/DTD/svg11.dtd">
<svg version="1.1" id="Layer_1" xmlns="http://www.w3.org/2000/svg" xmlns:xlink="http://www.w3.org/1999/xlink" x="0px" y="0px"
	 viewBox="0 0 111.7 113" enable-background="new 0 0 111.7 113" xml:space="preserve">
<g>
	<g>
		<path fill="#161616" d="M55.7,91.2c-19.2,0-34.7-15.6-34.7-34.7h2c0,18,14.7,32.7,32.7,32.7s32.7-14.7,32.7-32.7h2
			C90.4,75.6,74.8,91.2,55.7,91.2z"/>
	</g>
	<g>
		<path fill="#FFFFFF" d="M90.4,56.5h-2c0-18-14.7-32.7-32.7-32.7S22.9,38.4,22.9,56.5h-2c0-19.2,15.6-34.7,34.7-34.7
			C74.8,21.8,90.4,37.3,90.4,56.5z"/>
	</g>
	<g>
		<g>
			<path fill="#FFFFFF" d="M7.6,47.3l1.9,1.5l-0.4,1.7l-8.5-6.5l0.4-1.7l10.5-1.9l-0.4,1.7l-2.4,0.4L7.6,47.3z M7.2,42.8l-4.3,0.8
				l3.5,2.7L7.2,42.8z"/>
		</g>
		<g>
			<path fill="#FFFFFF" d="M10.9,23.4c0.8-0.3,1.8-0.1,2.8,0.6c1,0.6,1.5,1.4,1.6,2.3c0.1,0.9-0.3,1.9-1.1,3.1l-1,1.5l2.4,1.6
				l-0.9,1.4l-8.2-5.4l1.8-2.8C9.2,24.4,10.1,23.7,10.9,23.4z M13.7,26.6c-0.1-0.5-0.5-0.9-1-1.3c-0.6-0.4-1.1-0.5-1.5-0.3
				c-0.5,0.2-0.9,0.7-1.4,1.4l-0.9,1.4l3.3,2.1l1.1-1.6C13.6,27.7,13.8,27.1,13.7,26.6z"/>
		</g>
		<g>
			<path fill="#FFFFFF" d="M25.8,18.8c-0.1,1.4-0.6,2.6-1.7,3.6s-2.3,1.5-3.7,1.4c-1.4,0-2.6-0.6-3.5-1.6s-1.4-2.3-1.4-3.7
				c0.1-1.4,0.6-2.6,1.7-3.6c1.1-1,2.3-1.5,3.7-1.4c1.4,0,2.6,0.6,3.5,1.6S25.9,17.4,25.8,18.8z M20.8,15.1c-1-0.1-1.8,0.2-2.5,0.9
				s-1.1,1.5-1.1,2.4c0,1,0.3,1.8,1,2.5c0.7,0.7,1.5,1.1,2.4,1.2c1,0.1,1.8-0.2,2.5-0.9s1.1-1.5,1.1-2.4c0-1-0.3-1.8-1-2.5
				C22.5,15.5,21.7,15.1,20.8,15.1z"/>
		</g>
		<g>
			<path fill="#FFFFFF" d="M28.8,8.4c-0.4,0.2-0.7,0.5-0.9,0.8c-0.2,0.3-0.2,0.7,0,1c0.2,0.3,0.5,0.5,0.8,0.6s1.1-0.1,2-0.4
				s1.8-0.3,2.5-0.2s1.2,0.6,1.6,1.3s0.5,1.5,0.2,2.3c-0.3,0.8-0.9,1.4-1.8,1.9c-1.3,0.7-2.8,0.9-4.3,0.6l0.3-1.6
				c1.3,0.3,2.4,0.1,3.3-0.4c0.5-0.3,0.8-0.6,0.9-0.9c0.2-0.4,0.2-0.7,0-1c-0.2-0.3-0.5-0.5-0.8-0.6c-0.4,0-0.9,0-1.6,0.2
				c-0.7,0.2-1.3,0.3-1.7,0.4c-0.4,0.1-0.8,0.1-1.1,0c-0.7-0.1-1.3-0.5-1.7-1.3c-0.4-0.8-0.5-1.6-0.2-2.3c0.3-0.7,0.9-1.4,1.8-1.8
				c0.5-0.3,1.1-0.5,1.8-0.6c0.6-0.1,1.2-0.1,1.8,0l-0.2,1.5c-0.4-0.1-0.8-0.1-1.3,0C29.7,8,29.2,8.1,28.8,8.4z"/>
		</g>
		<g>
			<path fill="#FFFFFF" d="M40.1,3.8l2.5,7.9L41,12.2l-2.5-7.9l-2.8,0.9l-0.4-1.4l7.2-2.3L42.9,3L40.1,3.8z"/>
		</g>
		<g>
			<path fill="#FFFFFF" d="M54,0l0.1,1.5L48.9,2l0.2,2.6l4.7-0.4L54,5.6l-4.7,0.4l0.2,2.6l5.4-0.5l0.1,1.5l-7,0.7l-0.9-9.7L54,0z"/>
		</g>
		<g>
			<path fill="#FFFFFF" d="M66.7,4.3c-0.2,1.6-1,2.5-2.5,2.8l2.1,3.9l-2.1-0.3L62.3,7l-2.2-0.3L59.7,10l-1.6-0.2l1.3-9.7L63,0.6
				c1.5,0.2,2.5,0.6,3.1,1.2C66.6,2.3,66.8,3.2,66.7,4.3z M64.3,5.3C64.7,5.1,64.9,4.7,65,4c0.1-0.6,0-1.1-0.3-1.4s-0.9-0.5-1.8-0.6
				l-2.1-0.3l-0.5,3.5l2,0.3C63.3,5.6,64,5.6,64.3,5.3z"/>
		</g>
		<g>
			<path fill="#FFFFFF" d="M83.6,8.4c0.3,0.8,0.3,1.8-0.3,2.8c-0.5,1.1-1.2,1.7-2.1,1.9c-0.9,0.2-1.9-0.1-3.2-0.7l-1.5-0.8l-1.3,2.6
				l-1.5-0.7l4.4-8.7l3,1.5C82.4,6.8,83.3,7.6,83.6,8.4z M80.7,11.4c0.5-0.2,0.8-0.5,1.1-1.1c0.3-0.6,0.3-1.1,0.1-1.6
				c-0.2-0.4-0.8-0.9-1.6-1.3l-1.5-0.8l-1.8,3.5l1.7,0.9C79.6,11.5,80.3,11.6,80.7,11.4z"/>
		</g>
		<g>
			<path fill="#FFFFFF" d="M84.9,17.3l-2.2,1.1l-1.4-1.1l9.6-4.8l1.4,1.1l-2.9,10.3L88,22.7l0.7-2.3L84.9,17.3z M89.1,18.8l1.2-4.2
				l-3.9,2L89.1,18.8z"/>
		</g>
		<g>
			<path fill="#FFFFFF" d="M100.7,27.9c-1.3,1-2.5,1-3.7,0.1l-1.3,4.2l-1.3-1.7l1.2-3.8l-1.3-1.7l-2.6,2l-1-1.3l7.8-5.9l2.2,2.9
				c0.9,1.2,1.3,2.2,1.3,3S101.6,27.2,100.7,27.9z M98.3,26.9c0.4,0.1,0.9,0,1.4-0.4s0.8-0.8,0.7-1.2s-0.3-1-0.8-1.7l-1.3-1.7
				L95.6,24l1.2,1.6C97.4,26.4,97.9,26.8,98.3,26.9z"/>
		</g>
		<g>
			<path fill="#FFFFFF" d="M106,34.5L98.5,38l-0.7-1.5l7.5-3.4l-1.2-2.7l1.4-0.6l3.1,6.9l-1.4,0.6L106,34.5z"/>
		</g>
		<g>
			<path fill="#FFFFFF" d="M101.3,47l-0.4-1.6l3.8-0.8l5-4.9l0.4,1.8l-3.8,3.6l4.9,1.6l0.4,1.8l-6.6-2.3L101.3,47z"/>
		</g>
		<g>
			<path fill="#010101" d="M100.9,72.9c-0.7-1.2-0.8-2.5-0.4-3.9c0.4-1.4,1.2-2.5,2.4-3.1s2.5-0.8,3.9-0.5c1.4,0.4,2.4,1.2,3.1,2.4
				s0.8,2.5,0.4,3.9c-0.4,1.4-1.2,2.5-2.4,3.1c-1.2,0.7-2.5,0.8-3.9,0.5C102.6,75,101.6,74.2,100.9,72.9z M107.1,73.4
				c0.8-0.5,1.4-1.2,1.7-2.1c0.3-0.9,0.1-1.8-0.3-2.6c-0.5-0.8-1.2-1.4-2.2-1.6s-1.8-0.2-2.7,0.3c-0.8,0.5-1.4,1.2-1.7,2.1
				s-0.1,1.8,0.3,2.6c0.5,0.8,1.2,1.4,2.2,1.6C105.4,74,106.3,73.9,107.1,73.4z"/>
		</g>
		<g>
			<path fill="#010101" d="M104.2,82.1l-2.3-1.3l-2.1,3.8l-1.3-0.7l2.1-3.8l-3.5-2l0.8-1.4l8.5,4.8l-3.2,5.7l-1.3-0.8L104.2,82.1z"
				/>
		</g>
		<g>
			<path fill="#010101" d="M98.1,91.3l-2-1.8l-2.8,3.3l-1.2-1l2.8-3.3l-3.1-2.6l1.1-1.3l7.4,6.4l-4.2,5L95,95L98.1,91.3z"/>
		</g>
		<g>
			<path fill="#010101" d="M80.9,105.3L76.9,98l1.5-0.8l3.9,7.3l2.6-1.4l0.7,1.3L79,108l-0.7-1.3L80.9,105.3z"/>
		</g>
		<g>
			<path fill="#010101" d="M71.8,100.4l2.6,9.4l-1.6,0.4l-1.1-4.1l-4.7,1.3l1.1,4.1l-1.6,0.4l-2.6-9.4l1.6-0.4l1,3.9l4.7-1.3l-1-3.9
				L71.8,100.4z"/>
		</g>
		<g>
			<path fill="#010101" d="M53.9,113l-0.1-1.6l5.2-0.2l-0.1-2.6l-4.7,0.2l0-1.5l4.7-0.2l-0.1-2.6l-5.4,0.2l0-1.6l7-0.2l0.3,9.8
				L53.9,113z"/>
		</g>
		<g>
			<path fill="#010101" d="M37.2,100.9c-0.5-0.2-1-0.3-1.5-0.3s-1,0.1-1.5,0.4l-0.6-1.4c1.4-0.7,2.8-0.7,4.1-0.2
				c1.4,0.5,2.3,1.4,2.9,2.7c0.6,1.2,0.6,2.5,0,3.9c-0.5,1.4-1.5,2.3-2.7,2.8c-1.3,0.5-2.6,0.5-4,0s-2.4-1.6-2.9-3l1.4-0.7
				c0.3,0.6,0.6,1,0.9,1.4c0.3,0.3,0.7,0.6,1.3,0.8c0.9,0.4,1.8,0.4,2.7,0s1.5-1,1.8-1.9c0.4-0.9,0.4-1.8,0-2.7S38,101.3,37.2,100.9
				z"/>
		</g>
		<g>
			<path fill="#010101" d="M31.7,96.5l-5.5,8.1l-1.4-0.9l4.6-6.8l-3.7-2.5l0.9-1.3L31.7,96.5z"/>
		</g>
		<g>
			<path fill="#010101" d="M18.1,86.6c1.4,0.1,2.6,0.6,3.6,1.7s1.5,2.3,1.4,3.7s-0.6,2.6-1.6,3.6c-1.1,1-2.3,1.4-3.7,1.4
				s-2.6-0.6-3.6-1.7s-1.5-2.3-1.4-3.7s0.6-2.6,1.6-3.6C15.5,87,16.7,86.5,18.1,86.6z M14.5,91.6c0,1,0.3,1.8,0.9,2.5
				c0.7,0.7,1.5,1.1,2.4,1.1s1.8-0.3,2.5-1c0.7-0.7,1.1-1.5,1.2-2.4c0-1-0.3-1.8-0.9-2.5c-0.7-0.7-1.5-1.1-2.4-1.1
				c-1,0-1.8,0.3-2.5,1C14.9,89.9,14.5,90.7,14.5,91.6z"/>
		</g>
		<g>
			<path fill="#010101" d="M13.1,78.9c-0.3-0.5-0.6-0.9-1-1.2c-0.4-0.3-0.8-0.5-1.4-0.7l0.5-1.5c1.5,0.4,2.6,1.2,3.3,2.5
				c0.7,1.3,0.9,2.6,0.5,3.9c-0.4,1.3-1.2,2.3-2.5,3s-2.6,0.8-3.9,0.4c-1.3-0.4-2.4-1.3-3.1-2.6c-0.7-1.3-0.8-2.7-0.3-4.1l1.5,0.4
				c-0.2,0.6-0.2,1.2-0.2,1.6c0,0.4,0.2,0.9,0.5,1.4c0.5,0.9,1.2,1.4,2,1.7c0.9,0.3,1.8,0.2,2.6-0.3c0.9-0.5,1.4-1.2,1.7-2.1
				C13.6,80.6,13.5,79.7,13.1,78.9z"/>
		</g>
		<g>
			<path fill="#010101" d="M2.1,74.7l-0.4-1.6l4.6-1.2l-5.8-3.1l-0.5-2l5.2,2.7l4.3-5.3L9.9,66l-3.3,4.3l1.9,1l2.6-0.7l0.4,1.6
				L2.1,74.7z"/>
		</g>
	</g>
</g>
<g>
	<g>
		<path fill="#FFFFFF" d="M59.1,46.2l-1-2.4h-4.7l-1,2.4h-2.7L54.5,35h2.4l4.8,11.2H59.1z M55.7,38.3l-1.4,3.2h2.8L55.7,38.3z"/>
	</g>
	<g>
		<path fill="#161616" d="M57.9,66.8h2.5V78h-2.5v-4.4h-4.4V78h-2.5V66.8h2.5v4.7h4.4V66.8z"/>
	</g>
</g>
</svg>
