<svg xmlns="http://www.w3.org/2000/svg" viewBox="0 0 111.7 113"><path fill="#161616" d="M55.7 91.2C36.5 91.2 21 75.6 21 56.5h2c0 18 14.7 32.7 32.7 32.7s32.7-14.7 32.7-32.7h2c0 19.1-15.6 34.7-34.7 34.7z"/><path fill="#FFF" d="M90.4 56.5h-2c0-18-14.7-32.7-32.7-32.7S22.9 38.4 22.9 56.5h-2c0-19.2 15.6-34.7 34.7-34.7 19.2 0 34.8 15.5 34.8 34.7zM7.6 47.3l1.9 1.5-.4 1.7L.6 44l.4-1.7 10.5-1.9-.4 1.7-2.4.4-1.1 4.8zm-.4-4.5l-4.3.8 3.5 2.7.8-3.5zM10.9 23.4c.8-.3 1.8-.1 2.8.6 1 .6 1.5 1.4 1.6 2.3.1.9-.3 1.9-1.1 3.1l-1 1.5 2.4 1.6-.9 1.4-8.2-5.4 1.8-2.8c.9-1.3 1.8-2 2.6-2.3zm2.8 3.2c-.1-.5-.5-.9-1-1.3-.6-.4-1.1-.5-1.5-.3-.5.2-.9.7-1.4 1.4l-.9 1.4 3.3 2.1 1.1-1.6c.3-.6.5-1.2.4-1.7zM25.8 18.8c-.1 1.4-.6 2.6-1.7 3.6s-2.3 1.5-3.7 1.4c-1.4 0-2.6-.6-3.5-1.6s-1.4-2.3-1.4-3.7c.1-1.4.6-2.6 1.7-3.6s2.3-1.5 3.7-1.4c1.4 0 2.6.6 3.5 1.6s1.5 2.3 1.4 3.7zm-5-3.7c-1-.1-1.8.2-2.5.9s-1.1 1.5-1.1 2.4c0 1 .3 1.8 1 2.5s1.5 1.1 2.4 1.2c1 .1 1.8-.2 2.5-.9s1.1-1.5 1.1-2.4c0-1-.3-1.8-1-2.5-.7-.8-1.5-1.2-2.4-1.2zM28.8 8.4c-.4.2-.7.5-.9.8-.2.3-.2.7 0 1 .2.3.5.5.8.6s1.1-.1 2-.4 1.8-.3 2.5-.2 1.2.6 1.6 1.3.5 1.5.2 2.3c-.3.8-.9 1.4-1.8 1.9-1.3.7-2.8.9-4.3.6l.3-1.6c1.3.3 2.4.1 3.3-.4.5-.3.8-.6.9-.9.2-.4.2-.7 0-1-.2-.3-.5-.5-.8-.6-.4 0-.9 0-1.6.2-.7.2-1.3.3-1.7.4-.4.1-.8.1-1.1 0-.7-.1-1.3-.5-1.7-1.3-.4-.8-.5-1.6-.2-2.3.3-.7.9-1.4 1.8-1.8.5-.3 1.1-.5 1.8-.6.6-.1 1.2-.1 1.8 0l-.2 1.5c-.4-.1-.8-.1-1.3 0s-1 .2-1.4.5zM40.1 3.8l2.5 7.9-1.6.5-2.5-7.9-2.8.9-.4-1.4 7.2-2.3.4 1.5-2.8.8zM54 0l.1 1.5-5.2.5.2 2.6 4.7-.4.2 1.4-4.7.4.2 2.6 5.4-.5.1 1.5-7 .7-.9-9.7L54 0zM66.7 4.3c-.2 1.6-1 2.5-2.5 2.8l2.1 3.9-2.1-.3L62.3 7l-2.2-.3-.4 3.3-1.6-.2L59.4.1l3.6.5c1.5.2 2.5.6 3.1 1.2.5.5.7 1.4.6 2.5zm-2.4 1c.4-.2.6-.6.7-1.3.1-.6 0-1.1-.3-1.4s-.9-.5-1.8-.6l-2.1-.3-.5 3.5 2 .3c1 .1 1.7.1 2-.2zM83.6 8.4c.3.8.3 1.8-.3 2.8-.5 1.1-1.2 1.7-2.1 1.9-.9.2-1.9-.1-3.2-.7l-1.5-.8-1.3 2.6-1.5-.7 4.4-8.7 3 1.5c1.3.5 2.2 1.3 2.5 2.1zm-2.9 3c.5-.2.8-.5 1.1-1.1.3-.6.3-1.1.1-1.6-.2-.4-.8-.9-1.6-1.3l-1.5-.8-1.8 3.5 1.7.9c.9.5 1.6.6 2 .4zM84.9 17.3l-2.2 1.1-1.4-1.1 9.6-4.8 1.4 1.1-2.9 10.3-1.4-1.2.7-2.3-3.8-3.1zm4.2 1.5l1.2-4.2-3.9 2 2.7 2.2zM100.7 27.9c-1.3 1-2.5 1-3.7.1l-1.3 4.2-1.3-1.7 1.2-3.8-1.3-1.7-2.6 2-1-1.3 7.8-5.9 2.2 2.9c.9 1.2 1.3 2.2 1.3 3s-.4 1.5-1.3 2.2zm-2.4-1c.4.1.9 0 1.4-.4s.8-.8.7-1.2-.3-1-.8-1.7l-1.3-1.7-2.7 2.1 1.2 1.6c.6.8 1.1 1.2 1.5 1.3zM106 34.5L98.5 38l-.7-1.5 7.5-3.4-1.2-2.7 1.4-.6 3.1 6.9-1.4.6-1.2-2.8zM101.3 47l-.4-1.6 3.8-.8 5-4.9.4 1.8-3.8 3.6 4.9 1.6.4 1.8-6.6-2.3-3.7.8z"/><path fill="#010101" d="M100.9 72.9c-.7-1.2-.8-2.5-.4-3.9s1.2-2.5 2.4-3.1 2.5-.8 3.9-.5c1.4.4 2.4 1.2 3.1 2.4s.8 2.5.4 3.9-1.2 2.5-2.4 3.1c-1.2.7-2.5.8-3.9.5-1.4-.3-2.4-1.1-3.1-2.4zm6.2.5c.8-.5 1.4-1.2 1.7-2.1.3-.9.1-1.8-.3-2.6-.5-.8-1.2-1.4-2.2-1.6s-1.8-.2-2.7.3c-.8.5-1.4 1.2-1.7 2.1s-.1 1.8.3 2.6c.5.8 1.2 1.4 2.2 1.6 1 .3 1.9.2 2.7-.3zM104.2 82.1l-2.3-1.3-2.1 3.8-1.3-.7 2.1-3.8-3.5-2 .8-1.4 8.5 4.8-3.2 5.7-1.3-.8 2.3-4.3zM98.1 91.3l-2-1.8-2.8 3.3-1.2-1 2.8-3.3-3.1-2.6 1.1-1.3 7.4 6.4-4.2 5-1.1-1 3.1-3.7zM80.9 105.3l-4-7.3 1.5-.8 3.9 7.3 2.6-1.4.7 1.3L79 108l-.7-1.3 2.6-1.4zM71.8 100.4l2.6 9.4-1.6.4-1.1-4.1-4.7 1.3 1.1 4.1-1.6.4-2.6-9.4 1.6-.4 1 3.9 4.7-1.3-1-3.9 1.6-.4zM53.9 113l-.1-1.6 5.2-.2-.1-2.6-4.7.2v-1.5l4.7-.2-.1-2.6-5.4.2v-1.6l7-.2.3 9.8-6.8.3zM37.2 100.9c-.5-.2-1-.3-1.5-.3s-1 .1-1.5.4l-.6-1.4c1.4-.7 2.8-.7 4.1-.2 1.4.5 2.3 1.4 2.9 2.7.6 1.2.6 2.5 0 3.9-.5 1.4-1.5 2.3-2.7 2.8-1.3.5-2.6.5-4 0s-2.4-1.6-2.9-3l1.4-.7c.3.6.6 1 .9 1.4.3.3.7.6 1.3.8.9.4 1.8.4 2.7 0s1.5-1 1.8-1.9c.4-.9.4-1.8 0-2.7s-1.1-1.4-1.9-1.8zM31.7 96.5l-5.5 8.1-1.4-.9 4.6-6.8-3.7-2.5.9-1.3 5.1 3.4zM18.1 86.6c1.4.1 2.6.6 3.6 1.7s1.5 2.3 1.4 3.7-.6 2.6-1.6 3.6c-1.1 1-2.3 1.4-3.7 1.4s-2.6-.6-3.6-1.7-1.5-2.3-1.4-3.7.6-2.6 1.6-3.6c1.1-1 2.3-1.5 3.7-1.4zm-3.6 5c0 1 .3 1.8.9 2.5.7.7 1.5 1.1 2.4 1.1s1.8-.3 2.5-1 1.1-1.5 1.2-2.4c0-1-.3-1.8-.9-2.5-.7-.7-1.5-1.1-2.4-1.1-1 0-1.8.3-2.5 1-.8.7-1.2 1.5-1.2 2.4zM13.1 78.9c-.3-.5-.6-.9-1-1.2-.4-.3-.8-.5-1.4-.7l.5-1.5c1.5.4 2.6 1.2 3.3 2.5.7 1.3.9 2.6.5 3.9-.4 1.3-1.2 2.3-2.5 3s-2.6.8-3.9.4c-1.3-.4-2.4-1.3-3.1-2.6-.7-1.3-.8-2.7-.3-4.1l1.5.4c-.2.6-.2 1.2-.2 1.6 0 .4.2.9.5 1.4.5.9 1.2 1.4 2 1.7.9.3 1.8.2 2.6-.3.9-.5 1.4-1.2 1.7-2.1.3-.7.2-1.6-.2-2.4zM2.1 74.7l-.4-1.6 4.6-1.2-5.8-3.1-.5-2 5.2 2.7 4.3-5.3.4 1.8-3.3 4.3 1.9 1 2.6-.7.4 1.6-9.4 2.5z"/><g><path fill="#FFF" d="M59.1 46.2l-1-2.4h-4.7l-1 2.4h-2.7L54.5 35h2.4l4.8 11.2h-2.6zm-3.4-7.9l-1.4 3.2h2.8l-1.4-3.2z"/><path fill="#161616" d="M57.9 66.8h2.5V78h-2.5v-4.4h-4.4V78H51V66.8h2.5v4.7h4.4v-4.7z"/></g></svg>