<?xml version="1.0" encoding="utf-8"?>
<!-- Generator: Adobe Illustrator 17.1.0, SVG Export Plug-In . SVG Version: 6.00 Build 0)  -->
<!DOCTYPE svg PUBLIC "-//W3C//DTD SVG 1.1//EN" "http://www.w3.org/Graphics/SVG/1.1/DTD/svg11.dtd">
<svg version="1.1" id="Layer_1" xmlns="http://www.w3.org/2000/svg" xmlns:xlink="http://www.w3.org/1999/xlink" x="0px" y="0px"
	 viewBox="0 0 163.9 55.3" enable-background="new 0 0 163.9 55.3" xml:space="preserve">
<g>
	<g>
		<rect x="0.2" y="0" width="55.3" height="55.3"/>
		<g>
			<path fill="#FFFFFF" d="M16,34.4c-0.2-0.1-1.3-0.6-1.7-0.7C14,33.5,14,33.3,14,33.1c0-0.2,0.2-12.6,0.1-12.7c0-0.1-0.1-0.1-0.2,0
				C13.8,20.5,1.8,33.6,1.5,33.8c-0.4,0.3-1.3,0.6-1.3,0.7c0,0-0.2,0.1-0.2,0.1c0,0,0.2,0,0.2,0c0,0,6.3,0,6.3,0
				c0.1,0,0.1-0.1,0-0.1c-0.5-0.1-2.5-0.5-2.9-0.6c-0.3-0.1-0.4-0.3-0.2-0.5c0.1-0.2,3.4-4.2,3.6-4.3c0.3-0.2,0.4-0.3,0.9-0.3
				c0.2,0,1.1,0,2,0c0.8,0,1.5,0.1,1.7,0.1c0.5,0,0.4,0.4,0.4,0.6c0,0.2-0.1,3.1-0.2,3.6c0,0.5-0.1,0.6-0.4,0.7
				c-0.2,0-2.3,0.7-2.4,0.8c-0.1,0,0,0.1,0,0.1S15.9,34.5,16,34.4C16.1,34.5,16.1,34.5,16,34.4z M12.3,27.7c0,0.3-0.1,0.4-0.6,0.4
				c-0.5,0-3.3,0-3.3,0c-0.5,0-0.5-0.3-0.3-0.5c0.2-0.2,3.6-3.9,3.7-4c0.2-0.3,0.5-0.3,0.5,0.1C12.3,24.1,12.3,27.5,12.3,27.7z"/>
			<path fill="#FFFFFF" d="M52.8,34.4c-0.2-0.1-1.3-0.6-1.7-0.7c-0.3-0.2-0.4-0.4-0.4-0.6c0-0.2,0.2-12.6,0.1-12.7
				c0-0.1-0.1-0.1-0.2,0c-0.2,0.2-12.2,13.3-12.4,13.4c-0.4,0.3-1.3,0.6-1.3,0.7c0,0-0.1,0.1,0,0.1c0,0,6.3,0,6.3,0
				c0.1,0,0.1-0.1,0-0.1c-0.5-0.1-2.5-0.5-2.9-0.6c-0.3-0.1-0.4-0.3-0.2-0.5c0.1-0.2,3.3-4.2,3.6-4.3c0.3-0.2,0.4-0.3,0.9-0.3
				c0.2,0,1.1,0,2,0c0.8,0,1.5,0.1,1.7,0.1c0.5,0,0.4,0.4,0.4,0.6c0,0.2-0.1,3.1-0.2,3.6c0,0.5-0.1,0.6-0.4,0.7
				c-0.2,0-2.3,0.7-2.4,0.8c-0.1,0,0,0.1,0,0.1S52.7,34.5,52.8,34.4C52.9,34.5,52.9,34.5,52.8,34.4z M49.1,27.7
				c0,0.3-0.1,0.4-0.6,0.4c-0.5,0-3.3,0-3.3,0c-0.5,0-0.5-0.3-0.3-0.5c0.2-0.2,3.6-3.9,3.7-4c0.3-0.3,0.5-0.3,0.5,0.1
				C49.1,24.1,49.1,27.5,49.1,27.7z"/>
			<path fill="#FFFFFF" d="M19.1,20.8c0.1,0,6.5,0,6.5,0c0.1,0,0.1,0.1,0,0.1c-0.1,0-1.2,0.3-1.3,0.4c-0.1,0-0.5,0.2-0.7,0.3
				c-0.3,0.1-0.4,0.3-0.5,0.6C23,22.3,20.5,33,20.5,33.2c0,0.2-0.1,0.5,0.2,0.6c0.3,0.1,1.7,0.6,1.8,0.7c0.1,0,0.1,0.1,0,0.1
				c-0.1,0-6.1,0-6.2,0c-0.1,0-0.2,0-0.1-0.1c0.1-0.1,1.5-0.5,1.6-0.6c0.1-0.1,0.5-0.2,0.6-0.5c0.1-0.2,2.7-11,2.7-11.2
				c0.1-0.3,0-0.5-0.3-0.6C20.7,21.4,19.1,20.9,19.1,20.8C19,20.8,19,20.8,19.1,20.8z"/>
			<path fill="#FFFFFF" d="M37.6,25.7c0-0.1,0.2-3.5,0.2-3.6c0-0.4,0-0.6-0.4-0.7c-0.6-0.2-3.2-0.4-5.2,0.5
				c-3.3,1.5-5.2,5.1-4.8,7.9c0.3,2.3,2.2,4.2,5.1,4.3c0.9,0,1.6-0.1,1.8-0.2c0.3-0.1,0.3-0.2,0.4-0.3c0.1-0.2,0.6-2.3,0.6-2.3
				c0-0.1,0.1-0.4-0.2-0.5c-0.3-0.1-3-0.8-3.1-0.8c-0.1,0-0.1-0.1,0-0.1c0.1,0,4.8,0,5,0c0.2,0,0.7-0.1,0.6,0.5
				c-0.1,0.5-0.9,2.9-1,3.1c-0.1,0.2-0.2,0.3-0.4,0.3c-0.2,0.1-2.4,0.9-4.5,1c-5.4,0.1-7.4-3.6-6.5-7.1c0.5-1.8,1.7-3.5,3.2-4.7
				c0.9-0.7,3.4-2.3,6.8-2.3c0.6,0,2.3,0.1,3.4,0.4c0.6,0.2,0.5,0.5,0.4,0.7c0,0.1-1.3,3.9-1.3,4C37.7,25.8,37.6,25.9,37.6,25.7z"/>
		</g>
	</g>
	<g>
		<g>
			<path d="M88.8,37.8c0.3,0,0.6,0.3,0.6,0.7c0,0.4-0.3,0.6-0.6,0.6c-0.4,0-0.8-0.2-3.9-0.2h-0.5c-3.1,0-3.5,0.2-3.9,0.2
				c-0.3,0-0.6-0.2-0.6-0.6c0-0.4,0.3-0.7,0.6-0.7c0.4,0,0.8,0,2.5,0l-2.4-6.5h-9.4l-2.5,6.5h0.3c1.8,0,2,0,2.4,0
				c0.3,0,0.6,0.3,0.6,0.7c0,0.4-0.3,0.6-0.6,0.6c-0.4,0-0.5-0.2-3.2-0.2h-0.2c-2.7,0-2.9,0.2-3.2,0.2c-0.3,0-0.6-0.2-0.6-0.6
				c0-0.4,0.3-0.7,0.6-0.7c0.4,0,0.5,0,2.3,0h0.2l9-23.6c0.1-0.3,0.2-0.4,0.7-0.4c0.4,0,0.5,0.2,0.6,0.4l8.6,23.6
				C88,37.8,88.4,37.8,88.8,37.8z M76.1,18.7l-4.2,11.3h8.3L76.1,18.7z"/>
			<path d="M95.4,39.6c-3.2,0-4.4-2.4-4.4-5.7v-8.8c-1.9,0-2.1,0.2-2.4,0.2c-0.3,0-0.6-0.3-0.6-0.7c0-0.4,0.3-0.6,0.6-0.6
				c0.4,0,0.6,0.1,2.4,0.1c0.6,0,1.8-0.2,2.1-0.2c0.3,0,0.6,0.3,0.6,0.7v10.7c0,2.1,0.6,2.9,2.1,2.9c2.4,0,4.9-3.5,4.9-7.4v-5.6
				c-1.8,0-2.1,0.2-2.4,0.2c-0.3,0-0.6-0.3-0.6-0.7c0-0.4,0.3-0.6,0.6-0.6c0.4,0,0.6,0.1,2.4,0.1c0.6,0,1.8-0.2,2.1-0.2
				c0.3,0,0.6,0.3,0.6,0.7V37c0,1.1,0.2,1.4,0.7,1.4c0.5,0,0.5-0.5,1-0.8c0.3-0.2,0.6-0.2,0.8,0.1c0.3,0.3,0.1,0.8-0.2,1
				c-1,0.8-1.6,0.9-2.6,0.9c-1.4,0-2.5-1.1-2.5-2.9v-1.2C99.9,37.3,97.8,39.6,95.4,39.6z"/>
			<path d="M113.9,39.7c-3.7,0-6-2.4-6-4.1c0-1.1,0.6-1.7,1.7-1.7c0.7,0,1.3,0.8,1.3,1.3c0,0.9-0.6,1.3-1,1.4
				c0.6,1.2,2.6,1.9,4.1,1.9c1.9,0,3.8-1,3.8-2.9c0-1.4-1.8-2.1-3.2-2.5l-1.6-0.5c-3.8-1-4.6-2.6-4.6-4.5c0-3.4,3.2-4.7,5.5-4.7
				c2.6,0,5.1,1.4,5.1,3.1c0,1.1-0.6,1.8-1.6,1.8c-0.7,0-1.4-0.7-1.4-1.4c0-0.7,0.5-1.1,0.8-1.2c-0.4-0.6-1.5-1.1-2.9-1.1
				c-2.1,0-3.6,1-3.6,2.8c0,1.2,1.2,1.8,2.6,2.2l1.9,0.5c3.2,0.8,5.1,2.1,5.1,4.7C119.9,37.9,117.2,39.7,113.9,39.7z"/>
			<path d="M131.3,24c0.3,0,0.6,0.2,0.6,0.7c0,0.4-0.3,0.6-0.6,0.6c-0.4,0-1.9-0.1-3.7-0.1v11.5c0,1.1,0.4,1.5,1.1,1.5
				c1,0,1.5-0.9,1.6-1.6c0.1-0.5,0.3-0.7,0.7-0.7c0.3,0,0.5,0.2,0.5,0.6c0,1.2-1.1,2.8-3.5,2.8c-1.8,0-3.1-1-3.1-3.2V25.2
				c-1.9,0-2.4,0.1-2.8,0.1c-0.3,0-0.6-0.2-0.6-0.6c0-0.4,0.3-0.7,0.6-0.7c2.7,0,3.5-0.4,3.9-2.9c0.4-2.1,0.5-2.4,1-2.4
				c0.4,0,0.5,0.4,0.5,1.1v4.2C129.4,24,130.9,24,131.3,24z"/>
			<path d="M142.2,37.8c0.3,0,0.6,0.3,0.6,0.7c0,0.4-0.3,0.6-0.6,0.6c-0.4,0-0.6-0.2-3.7-0.2h-0.2c-3.1,0-3.3,0.2-3.7,0.2
				c-0.3,0-0.6-0.2-0.6-0.6c0-0.4,0.3-0.7,0.6-0.7c0.4,0,0.6,0,2.4,0V25.2c-1.9,0-2.1,0.1-2.4,0.1c-0.3,0-0.6-0.3-0.6-0.7
				c0-0.4,0.3-0.7,0.6-0.7c0.4,0,0.6,0,2.4,0c0.6,0,1.8-0.2,2.1-0.2c0.3,0,0.6,0.3,0.6,0.7c0,0.6,0,13.2,0,13.2
				C141.6,37.8,141.8,37.8,142.2,37.8z M138.4,19.5c-0.9,0-1.7-0.8-1.7-1.7c0-0.9,0.8-1.7,1.7-1.7c0.9,0,1.7,0.8,1.7,1.7
				C140,18.7,139.3,19.5,138.4,19.5z"/>
			<path d="M156.2,23.4c3.4,0,4.7,2.4,4.7,5.7v8.7c1.8,0,2.1,0,2.4,0c0.3,0,0.6,0.3,0.6,0.7c0,0.4-0.3,0.6-0.6,0.6
				c-0.4,0-0.6-0.2-3.7-0.2h-0.2c-3.1,0-3.3,0.2-3.7,0.2c-0.3,0-0.6-0.2-0.6-0.6c0-0.4,0.3-0.7,0.6-0.7c0.4,0,0.6,0,2.4,0v-10
				c0-2.1-0.6-2.9-2.3-2.9c-2.6,0-5.3,3.4-5.3,7.2v5.7c1.8,0,2.1,0,2.4,0c0.3,0,0.6,0.3,0.6,0.7c0,0.4-0.3,0.6-0.6,0.6
				c-0.4,0-0.6-0.2-3.7-0.2h-0.2c-3.1,0-3.3,0.2-3.7,0.2c-0.3,0-0.6-0.2-0.6-0.6c0-0.4,0.3-0.7,0.6-0.7c0.4,0,0.6,0,2.4,0V25.2
				c-1.9,0-2.1,0.1-2.4,0.1c-0.3,0-0.6-0.3-0.6-0.7c0-0.4,0.3-0.7,0.6-0.7c0.4,0,0.6,0,2.4,0c0.6,0,1.8-0.2,2.1-0.2
				c0.3,0,0.6,0.3,0.6,0.7c0,0.2,0,3.2,0,3.2C151.4,25.7,153.6,23.4,156.2,23.4z"/>
		</g>
	</g>
</g>
</svg>
