<?xml version="1.0" encoding="utf-8"?>
<!-- Generator: Adobe Illustrator 17.1.0, SVG Export Plug-In . SVG Version: 6.00 Build 0)  -->
<!DOCTYPE svg PUBLIC "-//W3C//DTD SVG 1.1//EN" "http://www.w3.org/Graphics/SVG/1.1/DTD/svg11.dtd">
<svg version="1.1" id="Layer_1" xmlns="http://www.w3.org/2000/svg" xmlns:xlink="http://www.w3.org/1999/xlink" x="0px" y="0px"
	 viewBox="0 0 125.7 42.5" enable-background="new 0 0 125.7 42.5" xml:space="preserve">
<g>
	<g>
		<path fill="#F8B521" d="M0,20.5h20.5V0H0V20.5z M4.6,11.5c0,0,1.2-0.1,1.1,0.4c-0.1,0.5,0.4,1.3,0.9,1.5c0.5,0.3,3.2-1.3,2.6-3
			C8.7,8.7,6.9,8.3,6.1,8.4C5.4,8.5,6.6,6.5,6.6,6.5s0.7-1,0.8-2c0.1-1,1.5-0.3,2,0.1c0.5,0.4,2,1.1,2.6,1.2
			c0.5,0.1-0.6,0.6-0.4,1.8c0.1,1.2,1.2,1.6,2.3,1C15,8,15.5,6.8,15.3,6.3c0,0,3.2,1.4,3.9,1.6c0.7,0.2-0.9,0.5-0.6,1.3
			c0.4,0.8,1.1,1,1,1.4c-0.1,0.4-1,4.5-1.3,5c-0.3,0.5-2.9-2.6-3.7-0.5c-0.8,2.1,2.1,2.7,2.9,2.3c0.8-0.4,0.4,1.7,0.4,1.7L1,19.1
			C1,19.1,4.4,12.6,4.6,11.5z"/>
		<path fill="#F8B521" d="M15.7,11.3c0.2-1.4-2-1.2-2-1.2c-1.5,0.5-0.8,2.4,0,3C14.5,13.8,15.5,12.6,15.7,11.3z"/>
		<path fill="#F8B521" d="M10.1,16c-1.4-0.4-1.5,0.7-1.5,1.4c0,0.7,1.8,0.4,2-0.7C10.6,16.2,10.1,16,10.1,16z"/>
	</g>
	<g>
		<path fill="#D43D2B" d="M22,0v20.5h20.5V0H22z M39.6,19h-14c0,0-3.2-3.9-2-7.8C24.2,9,25.9,7.2,29,7.2c3,0,3,0.9,3.6,2
			c0,0,0.3-3.9,3-5.2c0,0,1.3,0.3,1.2,1c0,0-2.9,0.9-3.1,3c0,0-0.1,1.2,0.2,1.5c0,0,2.6-4.8,7.3-3.5c0,0-1.9,7-7,4.5
			c0,0,4.7,2.4,5.2,4.4c0.2,0.6,1.5-1.3,0.6-4.6C40,10.4,43.2,14.2,39.6,19z"/>
		<path fill="#D43D2B" d="M36.7,9.3c0,0,1-0.4,1.5,0c0,0,0.1-0.5-0.3-0.8c0,0,0.8-0.7,1.4-1.6c0,0-2.9,2.3-4.6,2.8
			c0,0,1.9,0,2.3,0.6C37,10.3,37.3,9.7,36.7,9.3z"/>
		<path fill="#D43D2B" d="M29.2,8.8c0,0-4.3-0.2-4.7,3.7c0,0,1.9-0.4,3,2.3c0,0-0.4-4.9,3.3-5.2C30.8,9.6,30.2,9,29.2,8.8z"/>
	</g>
	<g>
		<path fill="#006E9A" d="M0,42.5h20.5V22H0V42.5z M1.6,37.8c-0.2-0.2-0.1-0.2-0.1-0.2c1.9-1.2,0.2-2.3,0.2-2.3s0.4-0.8,1.7-1
			c0,0-0.3-4.9,5.5-7.6c0,0,0.2-0.9,1.7-0.6c0,0,1.2,0,2.3,2c0.7,1.2,2.5,3,2.5,4.1c0,1.2-0.8,4.2-2.5,5.1c-1.6,0.9-4.1,1-4.1,1
			s2.8,1.4,5-0.3c2.1-1.7,1.9-3.2,1.9-3.4c0-0.2,1,1.1,1.2,1.8c0.2,0.7,1.8,0.8,2,0.9c0.2,0.1,0.8,1.6,0.6,2.3
			c-0.2,0.7-1.7,1.3-1.9,0.7c-0.2-0.6-1-2.3-1-2.3s0.1,2.3-0.2,3.1L1,41C3.5,39.6,1.8,38,1.6,37.8z"/>
		<path fill="#006E9A" d="M8.1,31.1c0.7,0,0.9-1,0.9-1c0-0.4-0.2-0.7-0.2-0.7S8,28.2,7.2,29.3C6.4,30.4,7.4,31.1,8.1,31.1z"/>
		<path fill="#006E9A" d="M6.6,37.5c1.3,0.2,1.7-0.8,1.7-0.8c-1.7,0.8-2.3-0.9-2.3-0.9S5.3,37.3,6.6,37.5z"/>
		<path fill="#006E9A" d="M9.9,36.4c1.4,0.1,1.2-1.1,1.2-1.1c-1.4,1.5-2.4-0.4-2.4-0.4S8.6,36.3,9.9,36.4z"/>
		<path fill="#006E9A" d="M6.8,34.4c1.3,0.2,1.7-0.8,1.7-0.8c-1.7,0.8-2.3-0.9-2.3-0.9S5.5,34.2,6.8,34.4z"/>
	</g>
	<g>
		<path fill="#A87430" d="M22,42.5h20.5V22H22V42.5z M23.7,32.1c1.2-3.9,5.3-4.8,7.4-2.6c0,0,0,0,0,0c0,0.2,0.3,1.4,0.9,1.3
			c1.1-0.1,0.8-0.6,0.7-1.4c-0.2-1.6,2.7-3.5,5.1-3.3c2.5,0.2,3.2,3.2,2.9,4.9c-0.3,1.7-0.2,2.3-0.2,2.3s0.9,3.3,0.6,7.6h-0.8
			c0,0.2-0.1,0.5-0.2,0.6l-1.2-0.2c0,0,0.1-0.2,0.2-0.4H26.4c0,0-0.8-3.3-1.2-3.9C25.2,37,22.9,34.6,23.7,32.1z"/>
		<path fill="#A87430" d="M26.9,39.1c0,0,0.4-4.1-0.2-5c-0.6-0.9-1.3-1.4-0.3-2.2c0.9-0.8,2.8-2.5,3.5-1.9c0,0-0.2-0.9-1.3-0.7
			c0,0-4,1.8-4,3.8c0,1.9,0.7,2.1,1.3,3C26.5,36.8,26.9,39.1,26.9,39.1z"/>
		<path fill="#A87430" d="M37.1,28.7c0.9-0.4,0.7-1.5,0.3-2c0,0-3.4,0.5-3.6,2.3c-0.1,0.9-0.1,2,0.3,2.4
			C34.5,31.7,36.2,29.2,37.1,28.7z"/>
		<path fill="#A87430" d="M34.2,39.6c-0.2-0.8-0.8,0-0.8,0C33.5,40.4,34.4,40.4,34.2,39.6z"/>
		<path fill="#A87430" d="M35.8,39c0.5-0.2-0.3-0.9-0.3-0.9C34.1,38.6,35.3,39.2,35.8,39z"/>
		<path fill="#A87430" d="M37.6,39.8c0.3,0.8,0.8-0.5,0.8-0.5C37.7,38.6,37.3,39,37.6,39.8z"/>
		<path fill="#A87430" d="M38.8,41.4l1.2,0.2c0.1-0.2,0.1-0.4,0.2-0.6H39C38.9,41.2,38.8,41.4,38.8,41.4z"/>
		<path fill="#A87430" d="M40.1,36.5c-0.1,2.1-0.7,3.7-1,4.4h1.2C40.5,39.3,40.1,36.5,40.1,36.5z"/>
	</g>
	<g>
		<g>
			<path d="M52,1.8c-0.1-0.2-0.3-0.3-0.5-0.3c-0.2,0-0.3,0-0.4,0.1c-0.1,0.1-0.2,0.2-0.3,0.5c-0.1,0.2-0.1,0.5-0.1,0.9
				c0,0.4,0,0.8,0,1.4c0,0.6,0,1,0,1.4c0,0.4,0.1,0.7,0.1,0.9c0.1,0.2,0.1,0.4,0.3,0.5c0.1,0.1,0.3,0.1,0.4,0.1c0.2,0,0.3,0,0.4-0.1
				C52,7.1,52,7,52.1,6.9c0.1-0.2,0.1-0.4,0.1-0.6c0-0.3,0-0.6,0-1h2.4v0.6c0,0.6-0.1,1.1-0.3,1.5C54.2,7.7,54,8,53.7,8.2
				c-0.3,0.2-0.6,0.4-1,0.4c-0.4,0.1-0.8,0.1-1.2,0.1c-0.7,0-1.3-0.1-1.7-0.2c-0.4-0.1-0.8-0.4-1-0.7c-0.3-0.4-0.4-0.8-0.5-1.4
				c-0.1-0.6-0.1-1.2-0.1-2c0-0.8,0.1-1.5,0.2-2c0.1-0.6,0.3-1,0.6-1.4c0.3-0.3,0.6-0.6,1.1-0.8c0.4-0.2,1-0.2,1.6-0.2
				c0.6,0,1,0.1,1.4,0.2c0.4,0.1,0.7,0.3,1,0.5c0.2,0.2,0.4,0.5,0.5,0.8c0.1,0.3,0.2,0.7,0.2,1.1v0.5h-2.4V2.8
				C52.2,2.3,52.1,1.9,52,1.8z"/>
			<path d="M60.3,0.2l2.3,8.4H60l-0.3-1.5h-2l-0.3,1.5h-2.6l2.3-8.4H60.3z M58.7,1.9L58,5.5h1.4L58.7,1.9L58.7,1.9z"/>
			<path d="M66.7,0.2c0.5,0,0.9,0.1,1.2,0.2c0.3,0.1,0.6,0.3,0.9,0.6c0.2,0.2,0.4,0.5,0.5,0.8c0.1,0.3,0.2,0.7,0.2,1
				c0,0.9-0.3,1.5-0.8,2c-0.5,0.4-1.3,0.7-2.3,0.7h-0.9v3.2H63V0.2H66.7z M65.9,3.8c0.3,0,0.5-0.1,0.7-0.2c0.2-0.2,0.2-0.4,0.2-0.8
				c0-0.7-0.3-1-1-1h-0.5v2.1H65.9z"/>
			<path d="M72.7,0.2v8.4h-2.5V0.2H72.7z"/>
			<path d="M73.2,2.1V0.2h6.2v1.9h-1.9v6.6H75V2.1H73.2z"/>
			<path d="M83.9,0.2l2.3,8.4h-2.7l-0.3-1.5h-2l-0.3,1.5h-2.6l2.3-8.4H83.9z M82.4,1.9l-0.7,3.6h1.4L82.4,1.9L82.4,1.9z"/>
			<path d="M89.2,0.2v6.6h3.1v1.8h-5.6V0.2H89.2z"/>
			<path d="M100.6,0.2l2.3,8.4h-2.7l-0.3-1.5h-2l-0.3,1.5h-2.6l2.3-8.4H100.6z M99.1,1.9l-0.7,3.6h1.4L99.1,1.9L99.1,1.9z"/>
			<path d="M107.3,0.2c0.5,0,0.9,0.1,1.2,0.2c0.3,0.1,0.6,0.3,0.8,0.5c0.2,0.2,0.4,0.4,0.5,0.7c0.1,0.3,0.1,0.6,0.1,0.9
				c0,0.6-0.1,1-0.4,1.4c-0.3,0.3-0.7,0.6-1.2,0.6v0c0.6,0,1,0.2,1.2,0.6c0.2,0.3,0.3,0.8,0.3,1.3v0.7c0,0.1,0,0.2,0,0.3
				c0,0.1,0,0.2,0,0.3c0,0.1,0,0.2,0,0.3c0,0.1,0,0.2,0.1,0.2c0,0,0.1,0.1,0.1,0.1c0,0,0.1,0.1,0.2,0.1v0.1h-2.6
				c-0.1-0.1-0.1-0.2-0.1-0.4c0-0.1-0.1-0.3-0.1-0.4c0-0.1,0-0.3,0-0.4c0-0.1,0-0.2,0-0.3V6.5c0-0.2,0-0.4,0-0.6
				c0-0.2-0.1-0.3-0.1-0.4c-0.1-0.1-0.2-0.2-0.3-0.2c-0.1,0-0.2-0.1-0.4-0.1h-0.7v3.4h-2.5V0.2H107.3z M106.4,3.8
				c0.4,0,0.6-0.1,0.8-0.3c0.2-0.2,0.3-0.4,0.3-0.7c0-0.4-0.1-0.6-0.3-0.8c-0.2-0.1-0.4-0.2-0.8-0.2h-0.5v2H106.4z"/>
			<path d="M116.8,0.2V2h-3.2v1.4h3v1.7h-3v1.7h3.3v1.8h-5.8V0.2H116.8z"/>
			<path d="M122.5,0.2l2.3,8.4h-2.7L122,7.2h-2l-0.3,1.5h-2.6l2.3-8.4H122.5z M121,1.9l-0.7,3.6h1.4L121,1.9L121,1.9z"/>
		</g>
		<g>
			<path d="M55.6,15.5v2.3h-4v1.8h3.8v2.2h-3.8v4.4h-3.1V15.5H55.6z"/>
			<path d="M56.5,18.3c0.1-0.7,0.4-1.3,0.7-1.7c0.3-0.4,0.8-0.8,1.3-1c0.6-0.2,1.2-0.3,2-0.3c0.8,0,1.5,0.1,2,0.3
				c0.6,0.2,1,0.5,1.3,1c0.3,0.4,0.6,1,0.7,1.7c0.1,0.7,0.2,1.5,0.2,2.5c0,1-0.1,1.8-0.2,2.5C64.5,24,64.3,24.6,64,25
				c-0.3,0.4-0.8,0.8-1.3,0.9c-0.6,0.2-1.2,0.3-2,0.3c-0.8,0-1.5-0.1-2-0.3c-0.6-0.2-1-0.5-1.3-0.9c-0.3-0.4-0.6-1-0.7-1.7
				c-0.1-0.7-0.2-1.5-0.2-2.5C56.3,19.8,56.3,19,56.5,18.3z M59.5,22.6c0,0.5,0.1,0.8,0.1,1.1c0.1,0.3,0.2,0.5,0.3,0.6
				c0.1,0.1,0.3,0.2,0.6,0.2c0.2,0,0.4-0.1,0.6-0.2c0.1-0.1,0.3-0.3,0.3-0.6c0.1-0.3,0.1-0.7,0.1-1.1c0-0.5,0-1.1,0-1.8
				c0-0.7,0-1.3,0-1.8c0-0.5-0.1-0.8-0.1-1.1c-0.1-0.3-0.2-0.5-0.3-0.6c-0.1-0.1-0.3-0.2-0.6-0.2c-0.2,0-0.4,0.1-0.6,0.2
				c-0.1,0.1-0.3,0.3-0.3,0.6c-0.1,0.3-0.1,0.7-0.1,1.1c0,0.5,0,1.1,0,1.8C59.5,21.5,59.5,22.1,59.5,22.6z"/>
			<path d="M65.9,18.3c0.1-0.7,0.4-1.3,0.7-1.7c0.3-0.4,0.8-0.8,1.3-1c0.6-0.2,1.2-0.3,2-0.3c0.8,0,1.5,0.1,2,0.3
				c0.6,0.2,1,0.5,1.3,1c0.3,0.4,0.6,1,0.7,1.7c0.1,0.7,0.2,1.5,0.2,2.5c0,1-0.1,1.8-0.2,2.5c-0.1,0.7-0.4,1.3-0.7,1.7
				C73,25.5,72.6,25.8,72,26c-0.6,0.2-1.2,0.3-2,0.3c-0.8,0-1.5-0.1-2-0.3c-0.6-0.2-1-0.5-1.3-0.9c-0.3-0.4-0.6-1-0.7-1.7
				c-0.1-0.7-0.2-1.5-0.2-2.5C65.7,19.8,65.7,19,65.9,18.3z M68.9,22.6c0,0.5,0.1,0.8,0.1,1.1c0.1,0.3,0.2,0.5,0.3,0.6
				c0.1,0.1,0.3,0.2,0.6,0.2c0.2,0,0.4-0.1,0.6-0.2c0.1-0.1,0.3-0.3,0.3-0.6c0.1-0.3,0.1-0.7,0.1-1.1c0-0.5,0-1.1,0-1.8
				c0-0.7,0-1.3,0-1.8c0-0.5-0.1-0.8-0.1-1.1c-0.1-0.3-0.2-0.5-0.3-0.6c-0.1-0.1-0.3-0.2-0.6-0.2c-0.2,0-0.4,0.1-0.6,0.2
				c-0.1,0.1-0.3,0.3-0.3,0.6c-0.1,0.3-0.1,0.7-0.1,1.1c0,0.5,0,1.1,0,1.8C68.9,21.5,68.9,22.1,68.9,22.6z"/>
			<path d="M80,15.5c0.9,0,1.6,0.1,2.1,0.4c0.5,0.3,0.9,0.7,1.1,1.2c0.3,0.5,0.4,1.1,0.5,1.7c0.1,0.6,0.1,1.3,0.1,2
				c0,0.7,0,1.4-0.1,2c-0.1,0.6-0.2,1.2-0.5,1.7c-0.3,0.5-0.6,0.9-1.1,1.2c-0.5,0.3-1.2,0.4-2.1,0.4h-4.6V15.5H80z M79.2,24.1
				c0.3,0,0.6,0,0.7-0.1c0.2-0.1,0.3-0.2,0.4-0.5c0.1-0.2,0.2-0.6,0.2-1c0-0.4,0-1,0-1.7c0-0.7,0-1.3,0-1.7c0-0.4-0.1-0.8-0.2-1
				c-0.1-0.2-0.2-0.4-0.4-0.5c-0.2-0.1-0.4-0.1-0.7-0.1h-0.6v6.6H79.2z"/>
			<path d="M92.3,15.5c1.1,0,2,0.2,2.5,0.7c0.5,0.5,0.8,1.1,0.8,1.9c0,0.3,0,0.5-0.1,0.8c-0.1,0.3-0.2,0.5-0.3,0.7
				c-0.2,0.2-0.3,0.4-0.6,0.5c-0.2,0.1-0.5,0.3-0.9,0.3v0c0.4,0,0.7,0.1,1,0.3c0.3,0.2,0.5,0.3,0.7,0.6c0.2,0.2,0.3,0.5,0.4,0.7
				c0.1,0.3,0.1,0.5,0.1,0.8c0,0.5-0.1,0.9-0.2,1.3c-0.1,0.4-0.3,0.7-0.6,1c-0.3,0.3-0.7,0.5-1.1,0.6c-0.5,0.2-1,0.2-1.7,0.2h-4.8
				V15.5H92.3z M91.5,19.7c0.3,0,0.6-0.1,0.8-0.3c0.2-0.2,0.3-0.5,0.3-0.7c0-0.3-0.1-0.6-0.3-0.8c-0.2-0.2-0.4-0.3-0.8-0.3h-0.8v2.2
				H91.5z M91.6,24.1c0.3,0,0.6-0.1,0.8-0.3c0.2-0.2,0.3-0.5,0.3-1c0-0.4-0.1-0.7-0.3-1c-0.2-0.2-0.5-0.3-0.8-0.3h-0.9v2.6H91.6z"/>
			<path d="M103.1,15.5l2.9,10.6h-3.3l-0.3-1.8h-2.5l-0.3,1.8h-3.3l2.9-10.6H103.1z M101.1,17.7l-0.9,4.5h1.8L101.1,17.7L101.1,17.7
				z"/>
			<path d="M110.1,15.5l2,6.5h0v-6.5h2.9v10.6h-3.4l-2.1-6.5h0v6.5h-2.9V15.5H110.1z"/>
			<path d="M119.6,15.5v4.1h0l2.3-4.1h3.3l-3,4.6l3.4,6h-3.6l-1.8-3.7l-0.7,0.9v2.8h-3.1V15.5H119.6z"/>
		</g>
		<g>
			<path d="M48.3,35.4c0.2-0.6,0.4-1.1,0.7-1.5c0.3-0.4,0.8-0.7,1.4-0.8c0.6-0.2,1.3-0.3,2.1-0.3c0.8,0,1.5,0.1,2.1,0.3
				c0.6,0.2,1,0.5,1.4,0.8c0.3,0.4,0.6,0.9,0.7,1.5c0.1,0.6,0.2,1.3,0.2,2.2c0,0.9-0.1,1.6-0.2,2.2c-0.2,0.6-0.4,1.1-0.7,1.5
				c-0.3,0.4-0.8,0.7-1.4,0.8c-0.6,0.2-1.3,0.2-2.1,0.2c-0.8,0-1.5-0.1-2.1-0.2c-0.6-0.2-1-0.4-1.4-0.8c-0.3-0.4-0.6-0.9-0.7-1.5
				c-0.2-0.6-0.2-1.3-0.2-2.2C48,36.8,48.1,36,48.3,35.4z M51.4,39.2c0,0.4,0.1,0.7,0.1,1c0.1,0.2,0.2,0.4,0.3,0.5
				c0.1,0.1,0.3,0.1,0.6,0.1c0.2,0,0.4,0,0.6-0.1c0.1-0.1,0.3-0.3,0.3-0.5c0.1-0.2,0.1-0.6,0.1-1c0-0.4,0-0.9,0-1.5
				c0-0.6,0-1.1,0-1.5c0-0.4-0.1-0.7-0.1-1c-0.1-0.2-0.2-0.4-0.3-0.5c-0.1-0.1-0.3-0.1-0.6-0.1c-0.2,0-0.4,0-0.6,0.1
				c-0.1,0.1-0.3,0.3-0.3,0.5c-0.1,0.2-0.1,0.6-0.1,1c0,0.4,0,0.9,0,1.5C51.4,38.2,51.4,38.8,51.4,39.2z"/>
			<path d="M66.7,33v2h-4.1v1.6h3.9v1.9h-3.9v3.8h-3.2V33H66.7z"/>
			<path d="M73.8,35.1v-2h8.1v2h-2.4v7.2h-3.2v-7.2H73.8z"/>
			<path d="M91.6,33v2h-4.1v1.6h3.9v1.9h-3.9v1.8h4.3v2h-7.5V33H91.6z"/>
			<path d="M97.6,33l1,2.7h0l1-2.7h3.6l-2.7,4.5l2.9,4.7h-3.6l-1.2-2.8h0l-1.2,2.8h-3.6l2.9-4.7L94,33H97.6z"/>
			<path d="M112.2,33l3,9.2h-3.4l-0.3-1.6h-2.6l-0.3,1.6h-3.4l3-9.2H112.2z M110.2,34.9l-0.9,3.9h1.8L110.2,34.9L110.2,34.9z"/>
			<path d="M122.2,35.5c0-0.3-0.1-0.5-0.2-0.7c-0.2-0.2-0.4-0.3-0.7-0.3c-0.4,0-0.6,0.1-0.8,0.3c-0.2,0.2-0.2,0.4-0.2,0.6
				c0,0.3,0.1,0.5,0.4,0.7c0.3,0.2,0.6,0.3,1,0.5c0.4,0.1,0.8,0.3,1.3,0.4c0.5,0.1,0.9,0.3,1.3,0.5c0.4,0.2,0.7,0.5,1,0.8
				c0.3,0.3,0.4,0.8,0.4,1.4c0,1-0.4,1.7-1.1,2.1c-0.8,0.4-1.8,0.7-3.3,0.7c-0.7,0-1.3,0-1.8-0.1c-0.5-0.1-1-0.2-1.3-0.4
				c-0.4-0.2-0.6-0.5-0.8-0.8c-0.2-0.3-0.3-0.7-0.3-1.2v-0.3h3.1v0.2c0,0.4,0.1,0.7,0.3,0.8c0.2,0.2,0.5,0.2,0.8,0.2
				c0.3,0,0.6-0.1,0.8-0.3c0.2-0.2,0.3-0.4,0.3-0.6c0-0.3-0.1-0.5-0.4-0.7c-0.3-0.2-0.6-0.3-0.9-0.4c-0.4-0.1-0.8-0.3-1.2-0.4
				c-0.4-0.1-0.9-0.3-1.2-0.5c-0.4-0.2-0.7-0.5-0.9-0.8c-0.3-0.3-0.4-0.8-0.4-1.3c0-0.9,0.3-1.6,1-2.1c0.7-0.5,1.7-0.7,3.1-0.7
				c1.4,0,2.5,0.2,3.1,0.7c0.6,0.4,1,1.2,1,2.1h-3V35.5z"/>
		</g>
		<rect x="48.4" y="10.8" width="76.7" height="1.6"/>
		<rect x="48.6" y="28.9" width="76.7" height="1.6"/>
	</g>
</g>
</svg>
