<svg xmlns="http://www.w3.org/2000/svg" viewBox="0 0 674.2 100.6"><path d="M93.8 65.4C89 84 74.6 94.7 52.8 95.5v-10c0-9.7 5.4-15.1 15.1-15.1 12.6 0 20.1-7.5 20.1-20.1 0-12.4-7.4-19.9-19.8-20.1-3-6.4-9.3-10.1-18-10.1s-14.9 3.7-18 10.1c-12.2.2-19.6 7.7-19.6 20.1 0 12.6 7.5 20.1 20.1 20.1 9.7 0 15.1 5.4 15.1 15.1v10C20.6 94.5 5 78.2 5 50.3 5 21.5 21.5 5 50.3 5c23.3 0 38.5 10.8 43.5 30.2h5.1C93.7 12.9 76.3 0 50.3 0 18.9 0 0 18.9 0 50.3s18.9 50.3 50.3 50.3c26 0 43.4-12.9 48.6-35.2h-5.1zM70.4 40.2c0-1.7-.2-3.3-.5-4.9 8.4.7 13 5.9 13 14.9 0 9.7-5.4 15.1-15.1 15.1-5.8 0-10-1.9-12.5-5.5C64.9 58 70.4 51 70.4 40.2m-5 0c0 8.6-4.2 13.8-12 14.9-.3-1.5-.6-3-.6-4.8 0-8.6 4.2-13.8 12-14.9.4 1.5.6 3.1.6 4.8M50.3 25.1c5.8 0 10 1.9 12.5 5.6-5.8 1.1-10 4.2-12.5 8.8-2.5-4.6-6.7-7.7-12.5-8.8 2.5-3.6 6.7-5.6 12.5-5.6M35.8 35.4c7.8 1.1 12 6.2 12 14.9 0 1.8-.2 3.3-.6 4.8-7.8-1.1-12-6.2-12-14.9 0-1.7.2-3.3.6-4.8m-3.1 30c-9.7 0-15.1-5.4-15.1-15.1 0-9 4.6-14.2 13-14.9-.3 1.5-.5 3.2-.5 4.9 0 10.8 5.5 17.8 15 19.6-2.4 3.5-6.6 5.5-12.4 5.5m10.8 2.5c2.9-1.6 5.2-3.9 6.8-6.8 1.6 2.9 3.9 5.2 6.8 6.8-2.9 1.6-5.2 3.9-6.8 6.8-1.6-2.9-3.9-5.2-6.8-6.8M166.6 32.5c-4.1-5-10.4-8.1-16.7-8.1-14.2 0-22.4 13.1-22.4 26.2 0 12.8 8.5 25.6 22.3 25.6 6.4 0 12.7-3.3 16.8-8.1v17.6c-5.5 2.6-11.1 4.5-17.2 4.5-21.4 0-37.2-18.4-37.2-39.4 0-21.6 15.2-40.6 37.5-40.6 5.9 0 11.8 1.6 16.9 4.4v17.9zM222.6 63.6c0 15.3-10.5 26.3-26 26.3s-26-11-26-26.3c0-15.4 10.6-26.4 26-26.4s26 11 26 26.4zm-37.7 0c0 6.7 4.4 13.8 11.7 13.8 7.3 0 11.7-7.2 11.7-13.8 0-6.9-4.4-13.9-11.7-13.9-7.3 0-11.7 7-11.7 13.9zM243 88.3h-14.1V50.7h-4.8V38.8h4.8V22.1H243v16.7h8.7v11.9H243v37.6zM274.7 88.3h-14.1V50.7h-4.8V38.8h4.8V22.1h14.1v16.7h8.7v11.9h-8.7v37.6zM335.1 63.6c0 15.3-10.5 26.3-26 26.3s-26-11-26-26.3c0-15.4 10.6-26.4 26-26.4s26 11 26 26.4zm-37.7 0c0 6.7 4.4 13.8 11.7 13.8 7.3 0 11.7-7.2 11.7-13.8 0-6.9-4.4-13.9-11.7-13.9-7.3 0-11.7 7-11.7 13.9zM353.8 43.3h.2c2.9-4.4 7.9-6.1 12.9-6.1 13.3 0 17.1 9.4 17.1 20.9v30.2h-14V62.1c0-5.9.3-13.6-7.7-13.6-8.4 0-8.5 9.4-8.5 15.3v24.5h-14.1V38.8h14.1v4.5zM390.5 12.3H409c14.1 0 22.8 5.5 22.8 20.7 0 5.4-1.9 11.7-6.7 14.7 9 1.6 13 10.7 13 19.1 0 14.9-10.5 21.6-24.3 21.6h-23.3V12.3zm14.8 31.6h1.8c7.3 0 10.8-2.1 10.8-10 0-7.8-4.4-9.8-10.7-9.8h-1.9v19.8zm0 32.5h3.1c8 0 14.8-1 14.8-10.9s-8.1-10.3-15.5-10.3h-2.4v21.2zM455.6 38.8v26.8c0 5.6.9 12.4 8.1 12.4 7.2 0 8.1-6.8 8.1-12.4V38.8h14.1v29.1c0 14.4-7.5 22-22.2 22s-22.2-7.6-22.2-22V38.8h14.1zM505.8 43.9h.2c2.8-4.3 7.1-6.8 12.3-6.8 2 0 4 .5 5.8 1.2l-1.7 13.1c-1.7-1.2-3.7-1.8-5.8-1.8-9.8 0-10.8 8.7-10.8 16.3v22.3h-14.1V38.8h14.1v5.1zM538.1 65.8c0 6.3 2.4 13.3 9.8 13.3 4.6 0 7.6-2.8 9.5-6.8l13 2.1c-3.4 9.9-12.1 15.4-22.5 15.4-15.3 0-24.7-10.9-24.7-25.9 0-15 8-26.8 24-26.8 16.2 0 23.5 12 23.5 26.9v1.7h-32.6zm19.2-8.8c-.7-5-3.9-10-9.4-10-5.6 0-8.8 4.8-9.5 10h18.9zM624 88.3h-13.9v-4.5h-.2c-3 3.9-8.3 6.1-13.4 6.1-14.5 0-22.8-13.2-22.8-26.6 0-13.1 8.4-26.1 22.6-26.1 5.1 0 10.4 2.2 13.8 6.2v-4.6H624v49.5zm-12.5-24.8c0-6.7-4.5-13.8-11.8-13.8-7.3 0-11.7 7.2-11.7 13.8 0 6.7 4.4 13.9 11.7 13.9 7.2 0 11.8-7.2 11.8-13.9zM643.9 38.8v26.8c0 5.6.9 12.4 8.1 12.4s8.1-6.8 8.1-12.4V38.8h14.1v29.1c0 14.4-7.5 22-22.2 22s-22.2-7.6-22.2-22V38.8h14.1z"/></svg>