<svg xmlns="http://www.w3.org/2000/svg" viewBox="0 0 163.4 97.3"><path fill="#231F20" d="M156.3 22.3L88.9.9C85-.3 78.5-.3 74.6.9L7.2 22.3C3.2 23.6 0 28 0 32.1v33.1c0 4.1 3.2 8.5 7.2 9.8l67.4 21.4c3.9 1.2 10.4 1.2 14.3 0L156.3 75c3.9-1.3 7.2-5.6 7.2-9.8V32.1c-.1-4.1-3.3-8.5-7.2-9.8z"/><path fill="#FFF" d="M91.5 29H65.1v38.1l26.2.1c5.2 0 9.5-4.3 9.5-9.5V38.4c0-5.2-4.2-9.4-9.3-9.4zm-1.8 28.2c0 .7-.6 1.3-1.3 1.3H76.2V37.6h12.2c.7 0 1.3.6 1.3 1.3v18.3zM46.8 29H20.5v38.1l26.2.1c5.2 0 9.5-4.3 9.5-9.5V38.4c0-5.2-4.2-9.4-9.4-9.4zm-1.7 28.2c0 .7-.6 1.3-1.3 1.3H31.6V37.6h12.2c.7 0 1.3.6 1.3 1.3v18.3zm100.3-15.5v-5.3c0-4.1-3.3-7.4-7.4-7.4h-20.9c-4.1 0-7.4 3.3-7.4 7.4v23.4c0 4.1 3.3 7.4 7.4 7.4H138c4.1 0 7.4-3.3 7.4-7.4v-5.3h-11.1v2.7c0 .7-.6 1.3-1.3 1.3h-10.9c-.7 0-1.3-.6-1.3-1.3V39c0-.7.6-1.3 1.3-1.3H133c.7 0 1.3.6 1.3 1.3v2.7h11.1z"/></svg>