<?xml version="1.0" encoding="utf-8"?>
<!-- Generator: Adobe Illustrator 19.1.0, SVG Export Plug-In . SVG Version: 6.00 Build 0)  -->
<!DOCTYPE svg PUBLIC "-//W3C//DTD SVG 1.1//EN" "http://www.w3.org/Graphics/SVG/1.1/DTD/svg11.dtd">
<svg version="1.1" id="Layer_1" xmlns="http://www.w3.org/2000/svg" xmlns:xlink="http://www.w3.org/1999/xlink" x="0px" y="0px"
	 viewBox="-611 829 144 144" style="enable-background:new -611 829 144 144;" xml:space="preserve">
<g>
	<path d="M-561.2,867.4c-1-1.7-1.3-3.9-0.7-6.1c0.5-2.4,1.8-4.3,3.5-5.4c1.5-1,3.4-1.3,5.6-0.8c3.9,0.9,5.7,3.4,5.5,6.7l-3.6-0.8
		c0-1.3-0.8-2.4-2.4-2.8c-2.5-0.6-4.2,1.2-4.8,4c-0.6,2.8,0.4,5.1,2.7,5.6c2,0.4,3.4-0.6,3.8-1.9l0,0l-2.8-0.6l0.6-2.7l6.3,1.4
		l-1.8,8.1l-2.7-0.7l0.2-1.9l0,0c-1.3,1.3-2.9,1.6-4.7,1.2C-558.7,870.2-560.3,869.1-561.2,867.4z"/>
	<path d="M-546.5,864.7c1-4.5,4.6-7.2,9.2-6.2c4.6,1,6.7,5,5.7,9.5s-4.6,7.2-9.2,6.2C-545.4,873.2-547.5,869.2-546.5,864.7z
		 M-535.4,867.2c0.6-2.7-0.1-5.1-2.6-5.6c-2.4-0.5-4.1,1.3-4.7,4c-0.6,2.7,0.2,5.1,2.6,5.6C-537.7,871.7-536,869.9-535.4,867.2z"/>
	<path d="M-530.8,868.2c1-4.5,4.6-7.2,9.2-6.2c4.6,1,6.7,5,5.7,9.5s-4.6,7.2-9.2,6.2C-529.7,876.7-531.8,872.7-530.8,868.2z
		 M-519.7,870.7c0.6-2.7-0.1-5.1-2.6-5.6c-2.4-0.5-4.1,1.3-4.7,4c-0.6,2.7,0.2,5.1,2.6,5.6C-522,875.2-520.3,873.4-519.7,870.7z"/>
	<path d="M-512.8,864.3l6.4,1.4c4.2,0.9,6.3,4.6,5.3,9.2c-0.6,2.6-2,4.6-4,5.5c-1.4,0.6-3,0.8-4.9,0.3l-6.2-1.4L-512.8,864.3z
		 M-509.6,877.5c2.4,0.5,4-0.7,4.7-3.5c0.6-2.7-0.3-4.8-2.7-5.3l-2.2-0.5l-2,8.8L-509.6,877.5z"/>
	<path d="M-579.9,871.9l11.2,2.5l-0.7,3.1l-7.5-1.7l-0.7,3l6.2,1.4l-0.7,3l-6.2-1.4l-1.3,5.8l-3.7-0.8L-579.9,871.9z"/>
	<path d="M-569.6,884.4l2.2-9.7l3.7,0.8l-2.2,9.8c-0.3,1.5,0.2,2.6,2,3c1.7,0.4,2.8-0.5,3.1-2l2.2-9.8l3.7,0.8l-2.1,9.9
		c-0.8,3.5-3.3,5.1-7.5,4.2C-568.7,890.5-570.4,887.9-569.6,884.4z"/>
	<path d="M-555.2,885.4c1-4.5,4.7-7.2,9.1-6.2c1.7,0.4,3.1,1.2,4,2.3c1.1,1.3,1.5,2.9,1.3,4.6l-3.7-0.8c0.1-1.4-0.7-2.6-2.3-3
		c-2.4-0.5-4,1.2-4.7,4c-0.6,2.8,0.3,5.1,2.6,5.6c1.7,0.4,3-0.4,3.5-1.8l3.7,0.8c-0.4,1.5-1.4,2.7-2.7,3.4c-1.4,0.9-3.1,1.1-5.2,0.6
		C-553.9,893.8-556.2,889.9-555.2,885.4z"/>
	<path d="M-538.2,881.2l3.7,0.8l-1.2,5.4l6.4-4.3l4.4,1l-7.1,4.8l4.1,10.3l-4.3-1l-2.9-7.5l-1.6,1l-1.2,5.2l-3.7-0.8L-538.2,881.2z"
		/>
	<path d="M-523.5,884.5l3.7,0.8l-3.3,15l-3.7-0.8L-523.5,884.5z"/>
	<path d="M-517.7,885.8l3.7,0.8l2.8,8.5c0.1,0.5,0.6,2.1,0.6,2.1l0,0c0,0,0.4-1.8,0.5-2.3l1.6-7.1l3.6,0.8l-3.3,15l-3.7-0.8
		l-2.8-8.4c-0.2-0.5-0.6-2.3-0.6-2.3l0,0c0,0-0.4,1.9-0.5,2.5l-1.6,7l-3.6-0.8L-517.7,885.8z"/>
	<path d="M-504.3,902.7c-1-1.7-1.3-3.9-0.7-6.1c0.5-2.4,1.8-4.3,3.5-5.4c1.5-1,3.4-1.3,5.6-0.8c3.9,0.9,5.7,3.4,5.5,6.7l-3.6-0.8
		c0-1.3-0.8-2.4-2.4-2.8c-2.5-0.6-4.2,1.2-4.8,4c-0.6,2.8,0.4,5.1,2.7,5.6c2,0.4,3.4-0.6,3.8-1.9l0,0l-2.8-0.6l0.6-2.7l6.3,1.4
		l-1.8,8.1l-2.6-0.6l0.2-1.9l0,0c-1.3,1.3-2.9,1.6-4.7,1.2C-501.8,905.4-503.4,904.3-504.3,902.7z"/>
	<path d="M-577.3,895.1l6.4,1.4c4.2,0.9,6.3,4.6,5.3,9.2c-0.6,2.6-2,4.6-4,5.5c-1.4,0.6-3,0.8-4.9,0.3l-6.2-1.4L-577.3,895.1z
		 M-574,908.3c2.4,0.5,4-0.7,4.7-3.5c0.6-2.7-0.3-4.8-2.7-5.3l-2.3-0.5l-2,8.8L-574,908.3z"/>
	<path d="M-562.5,898.4l11.4,2.5l-0.7,3.1l-7.7-1.7l-0.5,2.6l6.6,1.5l-0.6,2.9l-6.6-1.5l-0.8,3.2l7.8,1.7l-0.7,3.2l-11.5-2.6
		L-562.5,898.4z"/>
	<path d="M-552.4,911.4l3.7,0.8c-0.2,1.5,0.7,2.4,2.5,2.8c1.2,0.3,2.5,0.1,2.8-1c0.3-1.2-0.9-1.7-2.8-2.7c-2.5-1.2-5-2.6-4.3-5.8
		s3.6-4,7-3.3c3.3,0.7,5.4,2.8,4.9,5.9l-3.6-0.8c0.1-1.2-0.6-2-2-2.3c-1.3-0.3-2.3,0.1-2.5,0.9c-0.2,1,0.9,1.6,3,2.6
		c2.6,1.3,5,2.7,4.3,5.9c-0.7,3.2-3.8,4.3-7.2,3.5C-550.8,917.1-553.1,914.7-552.4,911.4z"/>
	<path d="M-535.7,904.3l3.7,0.8l-3.3,15l-3.7-0.8L-535.7,904.3z"/>
	<path d="M-531.5,919.2c-1-1.7-1.3-3.9-0.7-6.1c0.5-2.4,1.8-4.3,3.5-5.4c1.5-1,3.4-1.3,5.6-0.8c3.9,0.9,5.7,3.4,5.5,6.7l-3.6-0.8
		c0-1.3-0.8-2.4-2.4-2.8c-2.5-0.6-4.2,1.2-4.8,4c-0.6,2.8,0.4,5.1,2.7,5.6c2,0.4,3.4-0.6,3.8-1.9l0,0l-2.8-0.6l0.6-2.7l6.3,1.4
		l-1.8,8.1l-2.6-0.6l0.2-1.9l0,0c-1.3,1.3-2.9,1.6-4.7,1.2C-529,921.9-530.5,920.8-531.5,919.2z"/>
	<path d="M-514.5,909.1l3.7,0.8l2.8,8.5c0.1,0.5,0.6,2.1,0.6,2.1l0,0c0,0,0.4-1.8,0.5-2.3l1.6-7.1l3.6,0.8l-3.3,15l-3.7-0.8
		l-2.8-8.4c-0.2-0.5-0.6-2.3-0.6-2.3l0,0c0,0-0.4,1.9-0.5,2.5l-1.6,7l-3.6-0.8L-514.5,909.1z"/>
	<path d="M-576.9,917.7l3.8,0.9l2.1,16.2l-3.9-0.9l-0.3-2.9l-5.2-1.2l-1.5,2.5l-3.7-0.8L-576.9,917.7z M-575.5,928.1l-0.3-3.9
		c-0.1-0.8-0.1-2.3-0.1-2.3l0,0c0,0-0.7,1.3-1.1,2l-2,3.4L-575.5,928.1z"/>
	<path d="M-566.6,920l6.4,1.4c4.2,0.9,6.3,4.6,5.3,9.2c-0.6,2.6-2,4.6-4,5.5c-1.4,0.6-3,0.8-4.9,0.3l-6.2-1.4L-566.6,920z
		 M-563.4,933.2c2.4,0.5,4-0.7,4.7-3.5c0.6-2.7-0.3-4.8-2.7-5.3l-2.2-0.5l-2,8.8L-563.4,933.2z"/>
	<path d="M-553.6,922.9l3.9,0.9l0.6,8.4c0.1,1.2,0.1,2.8,0.1,2.8l0,0c0,0,0.7-1.4,1.3-2.5l4.1-7.4l3.8,0.8l-8.3,13.9l-3.9-0.8
		L-553.6,922.9z"/>
	<path d="M-538.9,926.2l3.7,0.8l-3.3,15l-3.7-0.8L-538.9,926.2z"/>
	<path d="M-535.4,934.9c1-4.5,4.7-7.2,9.1-6.2c1.7,0.4,3.1,1.2,4,2.3c1.1,1.3,1.5,2.9,1.3,4.6l-3.7-0.8c0.1-1.4-0.7-2.6-2.3-3
		c-2.4-0.5-4,1.2-4.7,4c-0.6,2.8,0.3,5.1,2.6,5.6c1.7,0.4,3-0.4,3.5-1.8l3.7,0.8c-0.4,1.5-1.4,2.7-2.7,3.4c-1.4,0.9-3.1,1.1-5.2,0.6
		C-534.1,943.3-536.4,939.4-535.4,934.9z"/>
	<path d="M-518.3,930.7l11.4,2.5l-0.7,3.1l-7.7-1.7l-0.6,2.7l6.6,1.5l-0.6,2.9l-6.6-1.5l-0.7,3.2l7.8,1.7l-0.7,3.1l-11.5-2.6
		L-518.3,930.7z"/>
</g>
<path d="M-539,833c37.5,0,68,30.5,68,68s-30.5,68-68,68s-68-30.5-68-68S-576.5,833-539,833 M-539,829c-39.8,0-72,32.2-72,72
	s32.2,72,72,72s72-32.2,72-72S-499.2,829-539,829L-539,829z"/>
</svg>
