<?xml version="1.0" encoding="utf-8"?>
<!-- Generator: Adobe Illustrator 17.1.0, SVG Export Plug-In . SVG Version: 6.00 Build 0)  -->
<!DOCTYPE svg PUBLIC "-//W3C//DTD SVG 1.1//EN" "http://www.w3.org/Graphics/SVG/1.1/DTD/svg11.dtd">
<svg version="1.1" id="Layer_1" xmlns="http://www.w3.org/2000/svg" xmlns:xlink="http://www.w3.org/1999/xlink" x="0px" y="0px"
	 viewBox="0 0 144 144" enable-background="new 0 0 144 144" xml:space="preserve">
<g>
	<path fill="#FF4338" d="M49.8,38.4c-1-1.7-1.3-3.9-0.7-6.1c0.5-2.4,1.8-4.3,3.5-5.4c1.5-1,3.4-1.3,5.6-0.8c3.9,0.9,5.7,3.4,5.5,6.7
		L60.1,32c0-1.3-0.8-2.4-2.4-2.8c-2.5-0.6-4.2,1.2-4.8,4c-0.6,2.8,0.4,5.1,2.7,5.6c2,0.4,3.4-0.6,3.8-1.9l0,0l-2.8-0.6l0.6-2.7
		l6.3,1.4l-1.8,8.1L59,42.4l0.2-1.9l0,0c-1.3,1.3-2.9,1.6-4.7,1.2C52.3,41.2,50.7,40.1,49.8,38.4z"/>
	<path fill="#FF4338" d="M64.5,35.7c1-4.5,4.6-7.2,9.2-6.2c4.6,1,6.7,5,5.7,9.5c-1,4.5-4.6,7.2-9.2,6.2
		C65.6,44.2,63.5,40.2,64.5,35.7z M75.6,38.2c0.6-2.7-0.1-5.1-2.6-5.6c-2.4-0.5-4.1,1.3-4.7,4c-0.6,2.7,0.2,5.1,2.6,5.6
		C73.3,42.7,75,40.9,75.6,38.2z"/>
	<path fill="#FF4338" d="M80.2,39.2c1-4.5,4.6-7.2,9.2-6.2c4.6,1,6.7,5,5.7,9.5c-1,4.5-4.6,7.2-9.2,6.2
		C81.3,47.7,79.2,43.7,80.2,39.2z M91.3,41.7c0.6-2.7-0.1-5.1-2.6-5.6c-2.4-0.5-4.1,1.3-4.7,4c-0.6,2.7,0.2,5.1,2.6,5.6
		C89,46.2,90.7,44.4,91.3,41.7z"/>
	<path fill="#FF4338" d="M98.2,35.3l6.4,1.4c4.2,0.9,6.3,4.6,5.3,9.2c-0.6,2.6-2,4.6-4,5.5c-1.4,0.6-3,0.8-4.9,0.3l-6.2-1.4
		L98.2,35.3z M101.4,48.5c2.4,0.5,4-0.7,4.7-3.5c0.6-2.7-0.3-4.8-2.7-5.3l-2.2-0.5l-2,8.8L101.4,48.5z"/>
	<path fill="#FF4338" d="M31.1,42.9l11.2,2.5l-0.7,3.1l-7.5-1.7l-0.7,3l6.2,1.4l-0.7,3l-6.2-1.4l-1.3,5.8l-3.7-0.8L31.1,42.9z"/>
	<path fill="#FF4338" d="M41.4,55.4l2.2-9.7l3.7,0.8l-2.2,9.8c-0.3,1.5,0.2,2.6,2,3c1.7,0.4,2.8-0.5,3.1-2l2.2-9.8l3.7,0.8L54,58.2
		c-0.8,3.5-3.3,5.1-7.5,4.2C42.3,61.5,40.6,58.9,41.4,55.4z"/>
	<path fill="#FF4338" d="M55.8,56.4c1-4.5,4.7-7.2,9.1-6.2c1.7,0.4,3.1,1.2,4,2.3c1.1,1.3,1.5,2.9,1.3,4.6l-3.7-0.8
		c0.1-1.4-0.7-2.6-2.3-3c-2.4-0.5-4,1.2-4.7,4c-0.6,2.8,0.3,5.1,2.6,5.6c1.7,0.4,3-0.4,3.5-1.8l3.7,0.8c-0.4,1.5-1.4,2.7-2.7,3.4
		c-1.4,0.9-3.1,1.1-5.2,0.6C57.1,64.8,54.8,60.9,55.8,56.4z"/>
	<path fill="#FF4338" d="M72.8,52.2l3.7,0.8l-1.2,5.4l6.4-4.3l4.4,1L79,59.9l4.1,10.3l-4.3-1l-2.9-7.5l-1.6,1l-1.2,5.2l-3.7-0.8
		L72.8,52.2z"/>
	<path fill="#FF4338" d="M87.5,55.5l3.7,0.8l-3.3,15l-3.7-0.8L87.5,55.5z"/>
	<path fill="#FF4338" d="M93.3,56.8l3.7,0.8l2.8,8.5c0.1,0.5,0.6,2.1,0.6,2.1l0,0c0,0,0.4-1.8,0.5-2.3l1.6-7.1l3.6,0.8l-3.3,15
		l-3.7-0.8l-2.8-8.4c-0.2-0.5-0.6-2.3-0.6-2.3l0,0c0,0-0.4,1.9-0.5,2.5l-1.6,7l-3.6-0.8L93.3,56.8z"/>
	<path fill="#FF4338" d="M106.7,73.7c-1-1.7-1.3-3.9-0.7-6.1c0.5-2.4,1.8-4.3,3.5-5.4c1.5-1,3.4-1.3,5.6-0.8
		c3.9,0.9,5.7,3.4,5.5,6.7l-3.6-0.8c0-1.3-0.8-2.4-2.4-2.8c-2.5-0.6-4.2,1.2-4.8,4c-0.6,2.8,0.4,5.1,2.7,5.6c2,0.4,3.4-0.6,3.8-1.9
		l0,0l-2.8-0.6l0.6-2.7l6.3,1.4l-1.8,8.1l-2.6-0.6l0.2-1.9l0,0c-1.3,1.3-2.9,1.6-4.7,1.2C109.2,76.4,107.6,75.3,106.7,73.7z"/>
	<path fill="#FF4338" d="M33.7,66.1l6.4,1.4c4.2,0.9,6.3,4.6,5.3,9.2c-0.6,2.6-2,4.6-4,5.5c-1.4,0.6-3,0.8-4.9,0.3l-6.2-1.4
		L33.7,66.1z M37,79.3c2.4,0.5,4-0.7,4.7-3.5c0.6-2.7-0.3-4.8-2.7-5.3L36.7,70l-2,8.8L37,79.3z"/>
	<path fill="#FF4338" d="M48.5,69.4l11.4,2.5L59.2,75l-7.7-1.7L51,75.9l6.6,1.5l-0.6,2.9l-6.6-1.5L49.6,82l7.8,1.7l-0.7,3.2
		l-11.5-2.6L48.5,69.4z"/>
	<path fill="#FF4338" d="M58.6,82.4l3.7,0.8c-0.2,1.5,0.7,2.4,2.5,2.8c1.2,0.3,2.5,0.1,2.8-1c0.3-1.2-0.9-1.7-2.8-2.7
		c-2.5-1.2-5-2.6-4.3-5.8c0.7-3.2,3.6-4,7-3.3c3.3,0.7,5.4,2.8,4.9,5.9l-3.6-0.8c0.1-1.2-0.6-2-2-2.3c-1.3-0.3-2.3,0.1-2.5,0.9
		c-0.2,1,0.9,1.6,3,2.6c2.6,1.3,5,2.7,4.3,5.9c-0.7,3.2-3.8,4.3-7.2,3.5C60.2,88.1,57.9,85.7,58.6,82.4z"/>
	<path fill="#FF4338" d="M75.3,75.3l3.7,0.8l-3.3,15l-3.7-0.8L75.3,75.3z"/>
	<path fill="#FF4338" d="M79.5,90.2c-1-1.7-1.3-3.9-0.7-6.1c0.5-2.4,1.8-4.3,3.5-5.4c1.5-1,3.4-1.3,5.6-0.8c3.9,0.9,5.7,3.4,5.5,6.7
		l-3.6-0.8c0-1.3-0.8-2.4-2.4-2.8c-2.5-0.6-4.2,1.2-4.8,4c-0.6,2.8,0.4,5.1,2.7,5.6c2,0.4,3.4-0.6,3.8-1.9l0,0l-2.8-0.6l0.6-2.7
		l6.3,1.4l-1.8,8.1l-2.6-0.6l0.2-1.9l0,0c-1.3,1.3-2.9,1.6-4.7,1.2C82,92.9,80.5,91.8,79.5,90.2z"/>
	<path fill="#FF4338" d="M96.5,80.1l3.7,0.8l2.8,8.5c0.1,0.5,0.6,2.1,0.6,2.1l0,0c0,0,0.4-1.8,0.5-2.3l1.6-7.1l3.6,0.8l-3.3,15
		l-3.7-0.8l-2.8-8.4c-0.2-0.5-0.6-2.3-0.6-2.3l0,0c0,0-0.4,1.9-0.5,2.5l-1.6,7l-3.6-0.8L96.5,80.1z"/>
	<path fill="#FF4338" d="M34.1,88.7l3.8,0.9l2.1,16.2l-3.9-0.9l-0.3-2.9l-5.2-1.2l-1.5,2.5l-3.7-0.8L34.1,88.7z M35.5,99.1l-0.3-3.9
		c-0.1-0.8-0.1-2.3-0.1-2.3l0,0c0,0-0.7,1.3-1.1,2l-2,3.4L35.5,99.1z"/>
	<path fill="#FF4338" d="M44.4,91l6.4,1.4c4.2,0.9,6.3,4.6,5.3,9.2c-0.6,2.6-2,4.6-4,5.5c-1.4,0.6-3,0.8-4.9,0.3L41,106L44.4,91z
		 M47.6,104.2c2.4,0.5,4-0.7,4.7-3.5c0.6-2.7-0.3-4.8-2.7-5.3l-2.2-0.5l-2,8.8L47.6,104.2z"/>
	<path fill="#FF4338" d="M57.4,93.9l3.9,0.9l0.6,8.4c0.1,1.2,0.1,2.8,0.1,2.8l0,0c0,0,0.7-1.4,1.3-2.5l4.1-7.4l3.8,0.8l-8.3,13.9
		L59,110L57.4,93.9z"/>
	<path fill="#FF4338" d="M72.1,97.2l3.7,0.8l-3.3,15l-3.7-0.8L72.1,97.2z"/>
	<path fill="#FF4338" d="M75.6,105.9c1-4.5,4.7-7.2,9.1-6.2c1.7,0.4,3.1,1.2,4,2.3c1.1,1.3,1.5,2.9,1.3,4.6l-3.7-0.8
		c0.1-1.4-0.7-2.6-2.3-3c-2.4-0.5-4,1.2-4.7,4c-0.6,2.8,0.3,5.1,2.6,5.6c1.7,0.4,3-0.4,3.5-1.8l3.7,0.8c-0.4,1.5-1.4,2.7-2.7,3.4
		c-1.4,0.9-3.1,1.1-5.2,0.6C76.9,114.3,74.6,110.4,75.6,105.9z"/>
	<path fill="#FF4338" d="M92.7,101.7l11.4,2.5l-0.7,3.1l-7.7-1.7l-0.6,2.7l6.6,1.5l-0.6,2.9l-6.6-1.5l-0.7,3.2l7.8,1.7l-0.7,3.1
		l-11.5-2.6L92.7,101.7z"/>
</g>
<path fill="#FF4338" d="M72,4c37.5,0,68,30.5,68,68c0,37.5-30.5,68-68,68c-37.5,0-68-30.5-68-68C4,34.5,34.5,4,72,4 M72,0
	C32.2,0,0,32.2,0,72c0,39.8,32.2,72,72,72c39.8,0,72-32.2,72-72C144,32.2,111.8,0,72,0L72,0z"/>
</svg>
