<?xml version="1.0" encoding="utf-8"?>
<!-- Generator: Adobe Illustrator 17.1.0, SVG Export Plug-In . SVG Version: 6.00 Build 0)  -->
<!DOCTYPE svg PUBLIC "-//W3C//DTD SVG 1.1//EN" "http://www.w3.org/Graphics/SVG/1.1/DTD/svg11.dtd">
<svg version="1.1" id="Layer_1" xmlns="http://www.w3.org/2000/svg" xmlns:xlink="http://www.w3.org/1999/xlink" x="0px" y="0px"
	 viewBox="0 0 156.6 28.3" enable-background="new 0 0 156.6 28.3" xml:space="preserve">
<g>
	<path fill="#2F292A" d="M0,0h2.1v22.2H0V0z"/>
	<path fill="#2F292A" d="M6.7,0H16c3.7,0,7.1,1.3,7.1,5.4c0,2.3-1.6,4.5-3.8,5v0.1c2.9,0.4,4.7,2.5,4.7,5.4c0,2.1-0.7,6.3-7.9,6.3
		H6.7V0z M8.8,9.7H16c3.4,0,5-1.7,5-3.8c0-2.8-1.7-4.2-5-4.2H8.8V9.7z M8.8,20.4H16c3.1,0,5.8-1,5.8-4.6c0-2.9-2.1-4.3-5.8-4.3H8.8
		V20.4z"/>
	<path fill="#2F292A" d="M27.3,0h3.1L38,19.4L45.7,0h3.1v22.2h-2.1V3h-0.1L39,22.2h-2L29.4,3h-0.1v19.2h-2.1V0z"/>
	<path fill="#2F292A" d="M60.1,0h9.6c5.7,0,10.1,3.6,10.1,11c0,6.4-3.3,11.2-10.1,11.2h-9.6V0z M65,18.1h4.3c2.8,0,5.5-1.7,5.5-6.6
		c0-4.5-1.6-7.3-6.4-7.3H65V18.1z"/>
	<path fill="#2F292A" d="M85.8,15.2c0.1,2.8,1.5,4.1,3.9,4.1c1.8,0,3.2-1.1,3.5-2.1h3.9c-1.2,3.8-3.9,5.4-7.5,5.4
		c-5.1,0-8.2-3.5-8.2-8.4c0-4.8,3.3-8.5,8.2-8.5c5.5,0,8.1,4.6,7.8,9.5H85.8z M93,12.4C92.6,10.2,91.6,9,89.5,9
		c-2.9,0-3.6,2.2-3.7,3.4H93z"/>
	<path fill="#2F292A" d="M103.1,17c0,1.9,1.7,2.7,3.4,2.7c1.2,0,2.9-0.5,2.9-2c0-1.3-1.9-1.8-5-2.5c-2.6-0.6-5.1-1.4-5.1-4.3
		c0-4.1,3.5-5.2,7-5.2c3.5,0,6.7,1.2,7.1,5.1h-4.2c-0.1-1.7-1.4-2.2-3-2.2c-1,0-2.5,0.2-2.5,1.5c0,1.6,2.5,1.8,5,2.4
		c2.6,0.6,5.1,1.5,5.1,4.5c0,4.2-3.7,5.6-7.3,5.6c-3.7,0-7.4-1.4-7.5-5.7H103.1z"/>
	<path fill="#2F292A" d="M120.4,3.6H116V0h4.4V3.6z M116,6.1h4.4v16H116V6.1z"/>
	<path fill="#2F292A" d="M138.7,21.1c0,2.6-1,7.1-8.3,7.1c-3.2,0-6.8-1.5-7.1-5.2h4.4c0.4,1.6,1.7,2.2,3.3,2.2c2.5,0,3.6-1.6,3.5-4
		v-2.1h-0.1c-1,1.7-2.9,2.5-4.8,2.5c-4.8,0-6.9-3.7-6.9-8.1c0-4.2,2.4-7.9,6.9-7.9c2.1,0,3.7,0.7,4.8,2.6h0.1V6.1h4.2V21.1z
		 M134.5,13.9c0-2.6-0.9-4.9-3.8-4.9c-2.5,0-3.6,2.2-3.6,4.6c0,2.3,0.8,4.8,3.6,4.8C133.3,18.4,134.5,16.2,134.5,13.9z"/>
	<path fill="#2F292A" d="M141.6,6.1h4.2v2.2h0.1c1.1-1.8,3-2.7,4.9-2.7c4.7,0,5.9,2.6,5.9,6.6v9.9h-4.4v-9.1c0-2.6-0.7-3.9-2.8-3.9
		c-2.4,0-3.4,1.3-3.4,4.6v8.4h-4.4V6.1z"/>
</g>
</svg>
