<svg xmlns="http://www.w3.org/2000/svg" viewBox="0 0 156.6 28.3"><g fill="#2F292A"><path d="M0 0h2.1v22.2H0V0zM6.7 0H16c3.7 0 7.1 1.3 7.1 5.4 0 2.3-1.6 4.5-3.8 5v.1c2.9.4 4.7 2.5 4.7 5.4 0 2.1-.7 6.3-7.9 6.3H6.7V0zm2.1 9.7H16c3.4 0 5-1.7 5-3.8 0-2.8-1.7-4.2-5-4.2H8.8v8zm0 10.7H16c3.1 0 5.8-1 5.8-4.6 0-2.9-2.1-4.3-5.8-4.3H8.8v8.9zM27.3 0h3.1L38 19.4 45.7 0h3.1v22.2h-2.1V3h-.1L39 22.2h-2L29.4 3h-.1v19.2h-2.1V0zM60.1 0h9.6c5.7 0 10.1 3.6 10.1 11 0 6.4-3.3 11.2-10.1 11.2h-9.6V0zM65 18.1h4.3c2.8 0 5.5-1.7 5.5-6.6 0-4.5-1.6-7.3-6.4-7.3H65v13.9zM85.8 15.2c.1 2.8 1.5 4.1 3.9 4.1 1.8 0 3.2-1.1 3.5-2.1h3.9c-1.2 3.8-3.9 5.4-7.5 5.4-5.1 0-8.2-3.5-8.2-8.4 0-4.8 3.3-8.5 8.2-8.5 5.5 0 8.1 4.6 7.8 9.5H85.8zm7.2-2.8c-.4-2.2-1.4-3.4-3.5-3.4-2.9 0-3.6 2.2-3.7 3.4H93zM103.1 17c0 1.9 1.7 2.7 3.4 2.7 1.2 0 2.9-.5 2.9-2 0-1.3-1.9-1.8-5-2.5-2.6-.6-5.1-1.4-5.1-4.3 0-4.1 3.5-5.2 7-5.2s6.7 1.2 7.1 5.1h-4.2c-.1-1.7-1.4-2.2-3-2.2-1 0-2.5.2-2.5 1.5 0 1.6 2.5 1.8 5 2.4 2.6.6 5.1 1.5 5.1 4.5 0 4.2-3.7 5.6-7.3 5.6-3.7 0-7.4-1.4-7.5-5.7h4.1zM120.4 3.6H116V0h4.4v3.6zM116 6.1h4.4v16H116v-16zM138.7 21.1c0 2.6-1 7.1-8.3 7.1-3.2 0-6.8-1.5-7.1-5.2h4.4c.4 1.6 1.7 2.2 3.3 2.2 2.5 0 3.6-1.6 3.5-4v-2.1h-.1c-1 1.7-2.9 2.5-4.8 2.5-4.8 0-6.9-3.7-6.9-8.1 0-4.2 2.4-7.9 6.9-7.9 2.1 0 3.7.7 4.8 2.6h.1V6.1h4.2v15zm-4.2-7.2c0-2.6-.9-4.9-3.8-4.9-2.5 0-3.6 2.2-3.6 4.6 0 2.3.8 4.8 3.6 4.8 2.6 0 3.8-2.2 3.8-4.5zM141.6 6.1h4.2v2.2h.1c1.1-1.8 3-2.7 4.9-2.7 4.7 0 5.9 2.6 5.9 6.6v9.9h-4.4V13c0-2.6-.7-3.9-2.8-3.9-2.4 0-3.4 1.3-3.4 4.6v8.4h-4.4v-16z"/></g></svg>