<?xml version="1.0" encoding="utf-8"?>
<!-- Generator: Adobe Illustrator 19.1.0, SVG Export Plug-In . SVG Version: 6.00 Build 0)  -->
<!DOCTYPE svg PUBLIC "-//W3C//DTD SVG 1.1//EN" "http://www.w3.org/Graphics/SVG/1.1/DTD/svg11.dtd">
<svg version="1.1" id="Layer_1" xmlns="http://www.w3.org/2000/svg" xmlns:xlink="http://www.w3.org/1999/xlink" x="0px" y="0px"
	 viewBox="-594 889 177.2 23" style="enable-background:new -594 889 177.2 23;" xml:space="preserve">
<g>
	<g>
		<path d="M-594,889.4h3.9V904h8.7v3.3H-594V889.4z"/>
		<path d="M-577.1,901.7c0.1,2.3,1.2,3.3,3.2,3.3c1.4,0,2.6-0.9,2.8-1.7h3.1c-1,3.1-3.1,4.4-6.1,4.4c-4.1,0-6.6-2.8-6.6-6.8
			c0.1-3.9,2.8-6.9,6.7-6.9c4.4,0,6.6,3.7,6.3,7.7H-577.1z M-571.3,899.5c-0.3-1.8-1.1-2.8-2.8-2.8c-2.3,0-2.9,1.8-3,2.8H-571.3z"/>
		<path d="M-550.8,907.3h-3.7l-2.3-8.7l0,0l-2.2,8.7h-3.7l-4.1-13h3.8l2.4,8.8l0,0l2.2-8.8h3.4l2.2,8.8l0,0l2.4-8.8h3.7
			L-550.8,907.3z"/>
		<path d="M-541.5,892.4h-3.6v-3h3.6V892.4z M-545.1,894.4h3.6v13h-3.6V894.4z"/>
		<path d="M-536.4,903.1c0,1.6,1.3,2.2,2.7,2.2c1,0,2.3-0.4,2.3-1.7c0-1.1-1.5-1.5-4-2c-2.1-0.5-4.1-1.2-4.1-3.5
			c0-3.3,2.9-4.2,5.6-4.2c2.8,0,5.4,1,5.7,4.1h-3.4c-0.1-1.4-1.2-1.8-2.4-1.8c-0.8,0-2,0.2-2,1.2c0,1.3,2,1.5,4,1.9
			c2.1,0.5,4.1,1.2,4.1,3.6c0,3.4-3,4.5-5.9,4.5c-3,0-5.9-1.1-6.1-4.6h3.5V903.1z"/>
		<path d="M-511.9,895.4c-0.3-1.8-2-3.1-3.9-3.1c-3.5,0-4.9,3-4.9,6.1c0,3,1.3,6,4.9,6c2.4,0,3.8-1.7,4.1-4h3.8
			c-0.4,4.5-3.5,7.3-7.9,7.3c-5.5,0-8.8-4.1-8.8-9.3c0-5.3,3.3-9.5,8.8-9.5c3.9,0,7.3,2.3,7.7,6.4h-3.8V895.4z"/>
		<path d="M-505.8,898.4c0.2-3.4,3.2-4.4,6.1-4.4c2.6,0,5.7,0.6,5.7,3.7v6.8c0,1.2,0.1,2.4,0.5,2.9h-3.6c-0.1-0.4-0.2-0.8-0.3-1.3
			c-1.1,1.2-2.8,1.6-4.4,1.6c-2.5,0-4.4-1.2-4.4-3.9c0-2.9,2.2-3.6,4.4-3.9c2.2-0.3,4.2-0.3,4.2-1.7c0-1.5-1.1-1.8-2.3-1.8
			c-1.4,0-2.2,0.6-2.4,2C-502.3,898.4-505.8,898.4-505.8,898.4z M-497.5,901c-0.6,0.5-1.9,0.6-3,0.8s-2.1,0.6-2.1,1.9s1,1.7,2.2,1.7
			c2.8,0,2.9-2.2,2.9-3V901z"/>
		<path d="M-491.2,894.4h3.4v2.4l0,0c0.7-1.6,2.4-2.8,4.1-2.8c0.2,0,0.6,0,0.8,0.1v3.3c-0.3-0.1-0.9-0.1-1.3-0.1
			c-2.6,0-3.5,1.9-3.5,4.2v5.8h-3.6L-491.2,894.4L-491.2,894.4z"/>
		<path d="M-481,894.4h3.4v1.8h0.1c0.9-1.5,2.5-2.2,4-2.2c3.8,0,4.7,2.1,4.7,5.3v8h-3.6V900c0-2.1-0.6-3.2-2.3-3.2
			c-1.9,0-2.8,1.1-2.8,3.7v6.8h-3.5V894.4z"/>
		<path d="M-463.2,901.7c0.1,2.3,1.2,3.3,3.2,3.3c1.4,0,2.6-0.9,2.8-1.7h3.1c-1,3.1-3.1,4.4-6.1,4.4c-4.1,0-6.6-2.8-6.6-6.8
			c0-3.9,2.7-6.9,6.6-6.9c4.4,0,6.6,3.7,6.3,7.7C-453.9,901.7-463.2,901.7-463.2,901.7z M-457.4,899.5c-0.3-1.8-1.1-2.8-2.8-2.8
			c-2.3,0-2.9,1.8-3,2.8H-457.4z"/>
		<path d="M-451.2,898.3c0-2.4,2.3-4.3,6-4.3c1,0,1.9,0.2,2.8,0.5c0.2-1.9,1.3-2.8,3.3-2.8c0.3,0,0.8,0,1.3,0.1l-0.1,2.7
			c-0.4,0-0.7-0.1-1-0.1c-1,0-1.6,0.3-1.8,0.9c1,0.9,1.4,1.9,1.4,3c0,2.5-2.1,4.1-5.8,4.1c-0.7,0-1.5-0.1-2.1-0.2
			c-0.6,0.2-0.8,0.5-0.8,0.9c0,0.6,0.5,0.9,1.4,1l4.2,0.2c3,0.1,4.7,1.6,4.7,3.6c0,2.5-2.4,4-7.1,4c-5,0-7.5-1.1-7.5-3.4
			c0-1.1,0.7-2.1,2.1-2.5c-0.9-0.5-1.3-1.1-1.3-2c0-1.3,0.8-2.2,2.4-2.7C-450.5,900.7-451.2,899.7-451.2,898.3z M-448.8,908.2
			c0,1.1,1.3,1.6,4,1.6c2.4,0,3.5-0.4,3.5-1.5c0-0.7-0.6-1.1-1.9-1.1l-4.7-0.3C-448.5,907.2-448.8,907.7-448.8,908.2z M-447.4,898.3
			c0,1.3,0.8,2.2,2.2,2.2c1.4,0,2.2-0.8,2.2-2.2c0-1.3-0.9-2.2-2.2-2.2C-446.5,896.1-447.4,897-447.4,898.3z"/>
		<path d="M-431.9,892.4h-3.6v-3h3.6V892.4z M-435.5,894.4h3.6v13h-3.6V894.4z"/>
		<path d="M-426.2,901.7c0.1,2.3,1.2,3.3,3.2,3.3c1.4,0,2.6-0.9,2.8-1.7h3.1c-1,3.1-3.1,4.4-6.1,4.4c-4.1,0-6.6-2.8-6.6-6.8
			c0-3.9,2.7-6.9,6.6-6.9c4.4,0,6.6,3.7,6.3,7.7C-416.9,901.7-426.2,901.7-426.2,901.7z M-420.4,899.5c-0.3-1.8-1.1-2.8-2.8-2.8
			c-2.3,0-2.9,1.8-3,2.8H-420.4z"/>
	</g>
</g>
</svg>
