<svg xmlns="http://www.w3.org/2000/svg" viewBox="0 0 177.2 23"><g fill="#6BA5B4"><path d="M0 .4h3.9V15h8.7v3.3H0V.4zM16.9 12.7C17 15 18.1 16 20.1 16c1.4 0 2.6-.9 2.8-1.7H26c-1 3.1-3.1 4.4-6.1 4.4-4.1 0-6.6-2.8-6.6-6.8C13.4 8 16.1 5 20 5c4.4 0 6.6 3.7 6.3 7.7h-9.4zm5.8-2.2c-.3-1.8-1.1-2.8-2.8-2.8-2.3 0-2.9 1.8-3 2.8h5.8zM43.2 18.3h-3.7l-2.3-8.7-2.2 8.7h-3.7l-4.1-13H31l2.4 8.8 2.2-8.8H39l2.2 8.8 2.4-8.8h3.7l-4.1 13zM52.5 3.4h-3.6v-3h3.6v3zm-3.6 2h3.6v13h-3.6v-13zM57.6 14.1c0 1.6 1.3 2.2 2.7 2.2 1 0 2.3-.4 2.3-1.7 0-1.1-1.5-1.5-4-2-2.1-.5-4.1-1.2-4.1-3.5 0-3.3 2.9-4.2 5.6-4.2 2.8 0 5.4 1 5.7 4.1h-3.4c-.1-1.4-1.2-1.8-2.4-1.8-.8 0-2 .2-2 1.2 0 1.3 2 1.5 4 1.9 2.1.5 4.1 1.2 4.1 3.6 0 3.4-3 4.5-5.9 4.5-3 0-5.9-1.1-6.1-4.6h3.5zM82.1 6.4c-.3-1.8-2-3.1-3.9-3.1-3.5 0-4.9 3-4.9 6.1 0 3 1.3 6 4.9 6 2.4 0 3.8-1.7 4.1-4h3.8c-.4 4.5-3.5 7.3-7.9 7.3-5.5 0-8.8-4.1-8.8-9.3 0-5.3 3.3-9.5 8.8-9.5 3.9 0 7.3 2.3 7.7 6.4h-3.8zM88.2 9.4C88.4 6 91.4 5 94.3 5c2.6 0 5.7.6 5.7 3.7v6.8c0 1.2.1 2.4.5 2.9h-3.6c-.1-.4-.2-.8-.3-1.3-1.1 1.2-2.8 1.6-4.4 1.6-2.5 0-4.4-1.2-4.4-3.9 0-2.9 2.2-3.6 4.4-3.9 2.2-.3 4.2-.3 4.2-1.7 0-1.5-1.1-1.8-2.3-1.8-1.4 0-2.2.6-2.4 2h-3.5zm8.3 2.6c-.6.5-1.9.6-3 .8-1.1.2-2.1.6-2.1 1.9 0 1.3 1 1.7 2.2 1.7 2.8 0 2.9-2.2 2.9-3V12zM102.8 5.4h3.4v2.4c.7-1.6 2.4-2.8 4.1-2.8.2 0 .6 0 .8.1v3.3c-.3-.1-.9-.1-1.3-.1-2.6 0-3.5 1.9-3.5 4.2v5.8h-3.6V5.4zM113 5.4h3.4v1.8h.1c.9-1.5 2.5-2.2 4-2.2 3.8 0 4.7 2.1 4.7 5.3v8h-3.6V11c0-2.1-.6-3.2-2.3-3.2-1.9 0-2.8 1.1-2.8 3.7v6.8H113V5.4zM130.8 12.7c.1 2.3 1.2 3.3 3.2 3.3 1.4 0 2.6-.9 2.8-1.7h3.1c-1 3.1-3.1 4.4-6.1 4.4-4.1 0-6.6-2.8-6.6-6.8 0-3.9 2.7-6.9 6.6-6.9 4.4 0 6.6 3.7 6.3 7.7h-9.3zm5.8-2.2c-.3-1.8-1.1-2.8-2.8-2.8-2.3 0-2.9 1.8-3 2.8h5.8zM142.8 9.3c0-2.4 2.3-4.3 6-4.3 1 0 1.9.2 2.8.5.2-1.9 1.3-2.8 3.3-2.8.3 0 .8 0 1.3.1l-.1 2.7c-.4 0-.7-.1-1-.1-1 0-1.6.3-1.8.9 1 .9 1.4 1.9 1.4 3 0 2.5-2.1 4.1-5.8 4.1-.7 0-1.5-.1-2.1-.2-.6.2-.8.5-.8.9 0 .6.5.9 1.4 1l4.2.2c3 .1 4.7 1.6 4.7 3.6 0 2.5-2.4 4-7.1 4-5 0-7.5-1.1-7.5-3.4 0-1.1.7-2.1 2.1-2.5-.9-.5-1.3-1.1-1.3-2 0-1.3.8-2.2 2.4-2.7-1.4-.6-2.1-1.6-2.1-3zm2.4 9.9c0 1.1 1.3 1.6 4 1.6 2.4 0 3.5-.4 3.5-1.5 0-.7-.6-1.1-1.9-1.1l-4.7-.3c-.6.3-.9.8-.9 1.3zm1.4-9.9c0 1.3.8 2.2 2.2 2.2 1.4 0 2.2-.8 2.2-2.2 0-1.3-.9-2.2-2.2-2.2-1.3 0-2.2.9-2.2 2.2zM162.1 3.4h-3.6v-3h3.6v3zm-3.6 2h3.6v13h-3.6v-13zM167.8 12.7c.1 2.3 1.2 3.3 3.2 3.3 1.4 0 2.6-.9 2.8-1.7h3.1c-1 3.1-3.1 4.4-6.1 4.4-4.1 0-6.6-2.8-6.6-6.8 0-3.9 2.7-6.9 6.6-6.9 4.4 0 6.6 3.7 6.3 7.7h-9.3zm5.8-2.2c-.3-1.8-1.1-2.8-2.8-2.8-2.3 0-2.9 1.8-3 2.8h5.8z"/></g></svg>