<?xml version="1.0" encoding="utf-8"?>
<!-- Generator: Adobe Illustrator 17.1.0, SVG Export Plug-In . SVG Version: 6.00 Build 0)  -->
<!DOCTYPE svg PUBLIC "-//W3C//DTD SVG 1.1//EN" "http://www.w3.org/Graphics/SVG/1.1/DTD/svg11.dtd">
<svg version="1.1" id="Layer_1" xmlns="http://www.w3.org/2000/svg" xmlns:xlink="http://www.w3.org/1999/xlink" x="0px" y="0px"
	 viewBox="0 0 177.2 23" enable-background="new 0 0 177.2 23" xml:space="preserve">
<g>
	<g>
		<path fill="#6BA5B4" d="M0,0.4h3.9V15h8.7v3.3H0V0.4z"/>
		<path fill="#6BA5B4" d="M16.9,12.7C17,15,18.1,16,20.1,16c1.4,0,2.6-0.9,2.8-1.7h3.1c-1,3.1-3.1,4.4-6.1,4.4
			c-4.1,0-6.6-2.8-6.6-6.8C13.4,8,16.1,5,20,5c4.4,0,6.6,3.7,6.3,7.7H16.9z M22.7,10.5c-0.3-1.8-1.1-2.8-2.8-2.8
			c-2.3,0-2.9,1.8-3,2.8H22.7z"/>
		<path fill="#6BA5B4" d="M43.2,18.3h-3.7l-2.3-8.7h0L35,18.3h-3.7l-4.1-13H31l2.4,8.8h0l2.2-8.8H39l2.2,8.8h0l2.4-8.8h3.7
			L43.2,18.3z"/>
		<path fill="#6BA5B4" d="M52.5,3.4h-3.6V0.4h3.6V3.4z M48.9,5.4h3.6v13h-3.6V5.4z"/>
		<path fill="#6BA5B4" d="M57.6,14.1c0,1.6,1.3,2.2,2.7,2.2c1,0,2.3-0.4,2.3-1.7c0-1.1-1.5-1.5-4-2c-2.1-0.5-4.1-1.2-4.1-3.5
			c0-3.3,2.9-4.2,5.6-4.2c2.8,0,5.4,1,5.7,4.1h-3.4c-0.1-1.4-1.2-1.8-2.4-1.8c-0.8,0-2,0.2-2,1.2c0,1.3,2,1.5,4,1.9
			c2.1,0.5,4.1,1.2,4.1,3.6c0,3.4-3,4.5-5.9,4.5c-3,0-5.9-1.1-6.1-4.6H57.6z"/>
		<path fill="#6BA5B4" d="M82.1,6.4c-0.3-1.8-2-3.1-3.9-3.1c-3.5,0-4.9,3-4.9,6.1c0,3,1.3,6,4.9,6c2.4,0,3.8-1.7,4.1-4h3.8
			c-0.4,4.5-3.5,7.3-7.9,7.3c-5.5,0-8.8-4.1-8.8-9.3c0-5.3,3.3-9.5,8.8-9.5c3.9,0,7.3,2.3,7.7,6.4H82.1z"/>
		<path fill="#6BA5B4" d="M88.2,9.4C88.4,6,91.4,5,94.3,5c2.6,0,5.7,0.6,5.7,3.7v6.8c0,1.2,0.1,2.4,0.5,2.9h-3.6
			c-0.1-0.4-0.2-0.8-0.3-1.3c-1.1,1.2-2.8,1.6-4.4,1.6c-2.5,0-4.4-1.2-4.4-3.9c0-2.9,2.2-3.6,4.4-3.9c2.2-0.3,4.2-0.3,4.2-1.7
			c0-1.5-1.1-1.8-2.3-1.8c-1.4,0-2.2,0.6-2.4,2H88.2z M96.5,12c-0.6,0.5-1.9,0.6-3,0.8c-1.1,0.2-2.1,0.6-2.1,1.9
			c0,1.3,1,1.7,2.2,1.7c2.8,0,2.9-2.2,2.9-3V12z"/>
		<path fill="#6BA5B4" d="M102.8,5.4h3.4v2.4h0c0.7-1.6,2.4-2.8,4.1-2.8c0.2,0,0.6,0,0.8,0.1v3.3c-0.3-0.1-0.9-0.1-1.3-0.1
			c-2.6,0-3.5,1.9-3.5,4.2v5.8h-3.6V5.4z"/>
		<path fill="#6BA5B4" d="M113,5.4h3.4v1.8h0.1c0.9-1.5,2.5-2.2,4-2.2c3.8,0,4.7,2.1,4.7,5.3v8h-3.6V11c0-2.1-0.6-3.2-2.3-3.2
			c-1.9,0-2.8,1.1-2.8,3.7v6.8H113V5.4z"/>
		<path fill="#6BA5B4" d="M130.8,12.7C130.9,15,132,16,134,16c1.4,0,2.6-0.9,2.8-1.7h3.1c-1,3.1-3.1,4.4-6.1,4.4
			c-4.1,0-6.6-2.8-6.6-6.8c0-3.9,2.7-6.9,6.6-6.9c4.4,0,6.6,3.7,6.3,7.7H130.8z M136.6,10.5c-0.3-1.8-1.1-2.8-2.8-2.8
			c-2.3,0-2.9,1.8-3,2.8H136.6z"/>
		<path fill="#6BA5B4" d="M142.8,9.3c0-2.4,2.3-4.3,6-4.3c1,0,1.9,0.2,2.8,0.5c0.2-1.9,1.3-2.8,3.3-2.8c0.3,0,0.8,0,1.3,0.1
			l-0.1,2.7c-0.4,0-0.7-0.1-1-0.1c-1,0-1.6,0.3-1.8,0.9c1,0.9,1.4,1.9,1.4,3c0,2.5-2.1,4.1-5.8,4.1c-0.7,0-1.5-0.1-2.1-0.2
			c-0.6,0.2-0.8,0.5-0.8,0.9c0,0.6,0.5,0.9,1.4,1l4.2,0.2c3,0.1,4.7,1.6,4.7,3.6c0,2.5-2.4,4-7.1,4c-5,0-7.5-1.1-7.5-3.4
			c0-1.1,0.7-2.1,2.1-2.5c-0.9-0.5-1.3-1.1-1.3-2c0-1.3,0.8-2.2,2.4-2.7C143.5,11.7,142.8,10.7,142.8,9.3z M145.2,19.2
			c0,1.1,1.3,1.6,4,1.6c2.4,0,3.5-0.4,3.5-1.5c0-0.7-0.6-1.1-1.9-1.1l-4.7-0.3C145.5,18.2,145.2,18.7,145.2,19.2z M146.6,9.3
			c0,1.3,0.8,2.2,2.2,2.2c1.4,0,2.2-0.8,2.2-2.2c0-1.3-0.9-2.2-2.2-2.2C147.5,7.1,146.6,8,146.6,9.3z"/>
		<path fill="#6BA5B4" d="M162.1,3.4h-3.6V0.4h3.6V3.4z M158.5,5.4h3.6v13h-3.6V5.4z"/>
		<path fill="#6BA5B4" d="M167.8,12.7C167.9,15,169,16,171,16c1.4,0,2.6-0.9,2.8-1.7h3.1c-1,3.1-3.1,4.4-6.1,4.4
			c-4.1,0-6.6-2.8-6.6-6.8c0-3.9,2.7-6.9,6.6-6.9c4.4,0,6.6,3.7,6.3,7.7H167.8z M173.6,10.5c-0.3-1.8-1.1-2.8-2.8-2.8
			c-2.3,0-2.9,1.8-3,2.8H173.6z"/>
	</g>
</g>
</svg>
