<?xml version="1.0" encoding="utf-8"?>
<!-- Generator: Adobe Illustrator 19.1.0, SVG Export Plug-In . SVG Version: 6.00 Build 0)  -->
<!DOCTYPE svg PUBLIC "-//W3C//DTD SVG 1.1//EN" "http://www.w3.org/Graphics/SVG/1.1/DTD/svg11.dtd">
<svg version="1.1" id="Layer_1" xmlns="http://www.w3.org/2000/svg" xmlns:xlink="http://www.w3.org/1999/xlink" x="0px" y="0px"
	 viewBox="-465 836.9 436.8 129.1" style="enable-background:new -465 836.9 436.8 129.1;" xml:space="preserve">
<g>
	<g>
		<path d="M-36.5,837.7v56.6l1.3,18.9l-6.4-18.1l-23.9-57.4h-8v91.2h8.4v-54.8l-1.3-19.8l6.9,19l23.4,55.6h7.8v-91.2H-36.5z
			 M-117.7,843c9.1,0,13.1,6.5,13.1,12.9v54.9c0,6.9-4.3,12.8-13.1,12.8c-9.4,0-13.7-6-13.7-12.7v-55.1
			C-131.4,848.8-127.1,843-117.7,843 M-117.7,929.9c14.2,0,21.2-9.4,21.2-19v-55c0-10.2-7.8-19-21.2-19c-14.7,0-22.2,9.1-22.2,18.9
			V911C-139.8,921.3-131.5,929.9-117.7,929.9 M-181.4,930c14.5,0,21.4-8.9,21.4-19v-15.2c0-9.3-9.9-12.9-21.2-18.1
			c-6.5-3-13.1-6.4-13.5-12.4v-9.5c0-8.5,4.8-12.5,12-12.5c8.4,0,11.6,5.6,11.6,12.4v10h8.1v-10.1c0-10.6-7.2-18.5-19.8-18.5
			c-14,0-20.4,8.3-20.4,18.8v9.7c1,10.4,11.8,14.7,20.9,18.9c7.6,3.5,14.2,5.9,14.2,11.9V911c0,7.2-4.5,12.9-13.2,12.9
			c-9.6,0-14.2-6.4-13.9-13.2v-8.9h-8.3v8.9C-203.7,922.3-194.5,930-181.4,930 M-224.9,837.7h-8.4v91.2h8.4V837.7z M-283.2,898.3
			l4.1-22.2l4-27l4,27l4.3,22.2H-283.2z M-261.2,928.9h8.3l-17.4-91.2h-9.7l-17.3,91.2h8.4l4.6-24.5v0.1h18.3v-0.1L-261.2,928.9z
			 M-316.1,837.7h-8.4v91.2h8.4V837.7z M-368.5,922.8v-85.1h-8.4v91.2h32.8v-6.1H-368.5z"/>
		<g>
			<path d="M-362.3,950.5c-0.5-0.7-1.2-1.2-2-1.6c-0.8-0.4-1.6-0.6-2.5-0.6c-1.1,0-2,0.2-2.9,0.6c-0.8,0.4-1.6,0.9-2.2,1.6
				c-0.6,0.7-1.1,1.5-1.4,2.4c-0.3,0.9-0.5,1.9-0.5,3c0,1,0.2,1.9,0.5,2.8c0.3,0.9,0.8,1.7,1.4,2.3c0.6,0.7,1.3,1.2,2.2,1.6
				c0.9,0.4,1.8,0.6,2.9,0.6c1.1,0,2-0.2,2.8-0.7c0.8-0.4,1.5-1,2-1.8l2.1,1.6c-0.1,0.2-0.4,0.5-0.7,0.8c-0.4,0.4-0.8,0.7-1.4,1.1
				c-0.6,0.4-1.3,0.7-2.1,0.9c-0.8,0.3-1.8,0.4-2.8,0.4c-1.5,0-2.8-0.3-4-0.8c-1.2-0.6-2.2-1.3-3-2.2c-0.8-0.9-1.5-1.9-1.9-3.1
				c-0.4-1.1-0.7-2.3-0.7-3.5c0-1.4,0.2-2.8,0.7-4s1.1-2.3,2-3.2c0.8-0.9,1.9-1.6,3.1-2.1c1.2-0.5,2.5-0.7,3.9-0.7
				c1.2,0,2.4,0.2,3.6,0.7c1.2,0.5,2.2,1.2,2.9,2.2L-362.3,950.5z"/>
			<path d="M-354.7,946.4h6.5c1.2,0,2.2,0.2,2.9,0.5c0.8,0.3,1.4,0.7,1.8,1.2c0.4,0.5,0.8,1.1,0.9,1.7c0.2,0.6,0.3,1.2,0.3,1.8
				c0,0.6-0.1,1.2-0.3,1.7c-0.2,0.6-0.5,1.1-0.9,1.5c-0.4,0.4-0.9,0.8-1.4,1.1c-0.6,0.3-1.2,0.5-1.9,0.6l5.3,8.5h-3.2l-4.7-8.2h-2.8
				v8.2h-2.5C-354.7,965-354.7,946.4-354.7,946.4z M-352.2,954.6h3.3c0.5,0,1,0,1.5-0.1c0.5-0.1,0.9-0.2,1.3-0.4
				c0.4-0.2,0.7-0.5,0.9-0.9c0.2-0.4,0.3-0.9,0.3-1.5c0-0.6-0.1-1.1-0.3-1.5c-0.2-0.4-0.5-0.7-0.9-0.9c-0.4-0.2-0.8-0.4-1.3-0.4
				c-0.5-0.1-1-0.1-1.5-0.1h-3.3V954.6z"/>
			<path d="M-336.6,946.4h12v2.4h-9.5v5.5h8.8v2.4h-8.8v6h10v2.4h-12.5V946.4z"/>
			<path d="M-312.6,946.4h2.3l8,18.6h-2.9l-1.9-4.6h-8.9l-1.8,4.6h-2.9L-312.6,946.4z M-308.1,958.2l-3.5-8.5h-0.1l-3.5,8.5H-308.1z
				"/>
			<path d="M-294,948.8h-6v-2.4h14.5v2.4h-6V965h-2.5V948.8z"/>
			<path d="M-280.7,946.4h2.5V965h-2.5V946.4z"/>
			<path d="M-273.9,946.4h2.9l5.5,15.1l0,0l5.7-15.1h2.8l-7.3,18.6h-2.4L-273.9,946.4z"/>
			<path d="M-252.7,946.4h12v2.4h-9.5v5.5h8.8v2.4h-8.8v6h10v2.4h-12.5V946.4z"/>
		</g>
		<g>
			<path d="M-198.7,946.9h3.8l5.9,14.1h0.1l5.9-14.1h3.8v18.6h-2.5v-15.3h-0.1l-6.3,15.3h-1.7l-6.3-15.3l0,0v15.3h-2.5L-198.7,946.9
				L-198.7,946.9z"/>
			<path d="M-166.4,946.9h2.3l8,18.6h-2.9l-2-4.6h-8.9l-1.8,4.6h-2.9L-166.4,946.9z M-161.9,958.7l-3.5-8.5l0,0l-3.5,8.5H-161.9z"/>
			<path d="M-151.3,946.9h6.5c1.2,0,2.2,0.2,2.9,0.5c0.8,0.3,1.4,0.7,1.8,1.2s0.8,1.1,0.9,1.7c0.2,0.6,0.3,1.2,0.3,1.8
				c0,0.6-0.1,1.2-0.3,1.7c-0.2,0.6-0.5,1.1-0.9,1.5c-0.4,0.4-0.9,0.8-1.4,1.1c-0.6,0.3-1.2,0.5-1.9,0.6l5.3,8.5h-3.2l-4.7-8.2h-2.8
				v8.2h-2.5L-151.3,946.9L-151.3,946.9z M-148.8,955.1h3.3c0.5,0,1,0,1.5-0.1c0.5-0.1,0.9-0.2,1.3-0.4s0.7-0.5,0.9-0.9
				c0.2-0.4,0.3-0.9,0.3-1.5c0-0.6-0.1-1.1-0.3-1.5c-0.2-0.4-0.5-0.7-0.9-0.9c-0.4-0.2-0.8-0.4-1.3-0.4s-1-0.1-1.5-0.1h-3.3V955.1z"
				/>
			<path d="M-132.8,946.9h2.5v8h0.2l8.2-8h3.5l-9,8.6l9.6,10h-3.7l-8.7-9.3h-0.2v9.3h-2.5v-18.6H-132.8z"/>
			<path d="M-113.3,946.9h12v2.4h-9.5v5.5h8.8v2.4h-8.8v6h10v2.4h-12.5V946.9z"/>
			<path d="M-90.9,949.2h-6v-2.3h14.5v2.4h-6v16.2h-2.5V949.2z"/>
			<path d="M-77.2,946.9h2.5v18.6h-2.5V946.9z"/>
			<path d="M-67.4,946.9h3.3l10.2,15.3h0.1v-15.3h2.5v18.6h-3.2l-10.3-15.3h-0.1v15.3h-2.5V946.9z"/>
			<path d="M-28.2,955.1v9.2c-0.5,0.3-1,0.5-1.5,0.7c-0.6,0.2-1.2,0.4-1.8,0.5c-0.6,0.1-1.3,0.3-1.9,0.3c-0.6,0.1-1.2,0.1-1.8,0.1
				c-1.6,0-3-0.3-4.2-0.8s-2.3-1.2-3.1-2.1c-0.8-0.9-1.5-1.9-1.9-3.1c-0.5-1.2-0.7-2.4-0.7-3.8c0-1.4,0.2-2.7,0.7-3.9s1.1-2.2,2-3.1
				c0.8-0.9,1.9-1.6,3.1-2.1s2.5-0.8,3.9-0.8c1.7,0,3.1,0.2,4.2,0.6c1.1,0.4,2,1,2.7,1.8l-1.8,1.9c-0.8-0.7-1.6-1.2-2.4-1.5
				c-0.9-0.3-1.8-0.4-2.7-0.4c-1.1,0-2,0.2-2.9,0.6c-0.9,0.4-1.6,0.9-2.2,1.6c-0.6,0.7-1.1,1.4-1.4,2.3c-0.3,0.9-0.5,1.9-0.5,2.9
				c0,1.1,0.2,2,0.6,2.9s0.9,1.7,1.5,2.4c0.6,0.7,1.4,1.2,2.3,1.6s1.8,0.6,2.9,0.6c0.9,0,1.7-0.1,2.5-0.2c0.8-0.2,1.5-0.4,2-0.7
				v-5.2h-4.1V955h6.5V955.1z"/>
		</g>
	</g>
	<g>
		<g>
			<path d="M-227.2,954.1h5.5v-5.5h4.3v5.5h5.5v4.3h-5.5v5.5h-4.3v-5.5h-5.5V954.1z"/>
		</g>
		<path d="M-465,837.3v2.3c27.5,10.8,46,35.9,43.3,62.1c-1.3,11.7-6.6,22.1-14.8,30.1c8.6-13.3,12.1-28.5,8.5-43.2
			c-4.4-17.5-18.2-31-37-37.4v78.3c11.4-5.1,19.8-13.5,22.8-24.5c2.9-10.5,0.4-21.6-6.2-31.5c4.9,5,8.4,11,10,17.7
			c4.9,19.7-6.4,40.9-26.6,54.3v12.8c29.3-6.2,50.9-27.6,53.8-55.4c2.3-22-7.8-43.4-25.4-58.4c15.7,9.3,26.8,23,31,39.6
			c7.4,29.5-8.5,61.1-37.7,82h45.3V837.3H-465z"/>
	</g>
</g>
</svg>
