<svg xmlns="http://www.w3.org/2000/svg" viewBox="-465 836.9 436.8 129.1"><path d="M-36.5 837.7v56.6l1.3 18.9-6.4-18.1-23.9-57.4h-8v91.2h8.4v-54.8l-1.3-19.8 6.9 19 23.4 55.6h7.8v-91.2h-8.2zm-81.2 5.3c9.1 0 13.1 6.5 13.1 12.9v54.9c0 6.9-4.3 12.8-13.1 12.8-9.4 0-13.7-6-13.7-12.7v-55.1c0-7 4.3-12.8 13.7-12.8m0 86.9c14.2 0 21.2-9.4 21.2-19v-55c0-10.2-7.8-19-21.2-19-14.7 0-22.2 9.1-22.2 18.9V911c.1 10.3 8.4 18.9 22.2 18.9m-63.7.1c14.5 0 21.4-8.9 21.4-19v-15.2c0-9.3-9.9-12.9-21.2-18.1-6.5-3-13.1-6.4-13.5-12.4v-9.5c0-8.5 4.8-12.5 12-12.5 8.4 0 11.6 5.6 11.6 12.4v10h8.1v-10.1c0-10.6-7.2-18.5-19.8-18.5-14 0-20.4 8.3-20.4 18.8v9.7c1 10.4 11.8 14.7 20.9 18.9 7.6 3.5 14.2 5.9 14.2 11.9V911c0 7.2-4.5 12.9-13.2 12.9-9.6 0-14.2-6.4-13.9-13.2v-8.9h-8.3v8.9c-.2 11.6 9 19.3 22.1 19.3m-43.5-92.3h-8.4v91.2h8.4v-91.2zm-58.3 60.6l4.1-22.2 4-27 4 27 4.3 22.2h-16.4zm22 30.6h8.3l-17.4-91.2h-9.7l-17.3 91.2h8.4l4.6-24.5v.1h18.3v-.1l4.8 24.5zm-54.9-91.2h-8.4v91.2h8.4v-91.2zm-52.4 85.1v-85.1h-8.4v91.2h32.8v-6.1h-24.4zM-362.3 950.5c-.5-.7-1.2-1.2-2-1.6-.8-.4-1.6-.6-2.5-.6-1.1 0-2 .2-2.9.6-.8.4-1.6.9-2.2 1.6-.6.7-1.1 1.5-1.4 2.4-.3.9-.5 1.9-.5 3 0 1 .2 1.9.5 2.8.3.9.8 1.7 1.4 2.3.6.7 1.3 1.2 2.2 1.6.9.4 1.8.6 2.9.6 1.1 0 2-.2 2.8-.7.8-.4 1.5-1 2-1.8l2.1 1.6c-.1.2-.4.5-.7.8-.4.4-.8.7-1.4 1.1-.6.4-1.3.7-2.1.9-.8.3-1.8.4-2.8.4-1.5 0-2.8-.3-4-.8-1.2-.6-2.2-1.3-3-2.2-.8-.9-1.5-1.9-1.9-3.1-.4-1.1-.7-2.3-.7-3.5 0-1.4.2-2.8.7-4s1.1-2.3 2-3.2c.8-.9 1.9-1.6 3.1-2.1 1.2-.5 2.5-.7 3.9-.7 1.2 0 2.4.2 3.6.7 1.2.5 2.2 1.2 2.9 2.2l-2 1.7zM-354.7 946.4h6.5c1.2 0 2.2.2 2.9.5.8.3 1.4.7 1.8 1.2.4.5.8 1.1.9 1.7.2.6.3 1.2.3 1.8 0 .6-.1 1.2-.3 1.7-.2.6-.5 1.1-.9 1.5-.4.4-.9.8-1.4 1.1-.6.3-1.2.5-1.9.6l5.3 8.5h-3.2l-4.7-8.2h-2.8v8.2h-2.5v-18.6zm2.5 8.2h3.3c.5 0 1 0 1.5-.1s.9-.2 1.3-.4.7-.5.9-.9c.2-.4.3-.9.3-1.5s-.1-1.1-.3-1.5c-.2-.4-.5-.7-.9-.9-.4-.2-.8-.4-1.3-.4-.5-.1-1-.1-1.5-.1h-3.3v5.8zM-336.6 946.4h12v2.4h-9.5v5.5h8.8v2.4h-8.8v6h10v2.4h-12.5v-18.7zM-312.6 946.4h2.3l8 18.6h-2.9l-1.9-4.6h-8.9l-1.8 4.6h-2.9l8.1-18.6zm4.5 11.8l-3.5-8.5h-.1l-3.5 8.5h7.1zM-294 948.8h-6v-2.4h14.5v2.4h-6V965h-2.5v-16.2zM-280.7 946.4h2.5V965h-2.5v-18.6zM-273.9 946.4h2.9l5.5 15.1 5.7-15.1h2.8l-7.3 18.6h-2.4l-7.2-18.6zM-252.7 946.4h12v2.4h-9.5v5.5h8.8v2.4h-8.8v6h10v2.4h-12.5v-18.7z"/><g><path d="M-198.7 946.9h3.8l5.9 14.1h.1l5.9-14.1h3.8v18.6h-2.5v-15.3h-.1l-6.3 15.3h-1.7l-6.3-15.3v15.3h-2.5l-.1-18.6zM-166.4 946.9h2.3l8 18.6h-2.9l-2-4.6h-8.9l-1.8 4.6h-2.9l8.2-18.6zm4.5 11.8l-3.5-8.5-3.5 8.5h7zM-151.3 946.9h6.5c1.2 0 2.2.2 2.9.5.8.3 1.4.7 1.8 1.2s.8 1.1.9 1.7c.2.6.3 1.2.3 1.8 0 .6-.1 1.2-.3 1.7-.2.6-.5 1.1-.9 1.5-.4.4-.9.8-1.4 1.1-.6.3-1.2.5-1.9.6l5.3 8.5h-3.2l-4.7-8.2h-2.8v8.2h-2.5v-18.6zm2.5 8.2h3.3c.5 0 1 0 1.5-.1s.9-.2 1.3-.4.7-.5.9-.9c.2-.4.3-.9.3-1.5s-.1-1.1-.3-1.5c-.2-.4-.5-.7-.9-.9-.4-.2-.8-.4-1.3-.4s-1-.1-1.5-.1h-3.3v5.8zM-132.8 946.9h2.5v8h.2l8.2-8h3.5l-9 8.6 9.6 10h-3.7l-8.7-9.3h-.2v9.3h-2.5v-18.6h.1zM-113.3 946.9h12v2.4h-9.5v5.5h8.8v2.4h-8.8v6h10v2.4h-12.5v-18.7zM-90.9 949.2h-6v-2.3h14.5v2.4h-6v16.2h-2.5v-16.3zM-77.2 946.9h2.5v18.6h-2.5v-18.6zM-67.4 946.9h3.3l10.2 15.3h.1v-15.3h2.5v18.6h-3.2l-10.3-15.3h-.1v15.3h-2.5v-18.6zM-28.2 955.1v9.2c-.5.3-1 .5-1.5.7-.6.2-1.2.4-1.8.5-.6.1-1.3.3-1.9.3-.6.1-1.2.1-1.8.1-1.6 0-3-.3-4.2-.8s-2.3-1.2-3.1-2.1c-.8-.9-1.5-1.9-1.9-3.1-.5-1.2-.7-2.4-.7-3.8s.2-2.7.7-3.9 1.1-2.2 2-3.1c.8-.9 1.9-1.6 3.1-2.1s2.5-.8 3.9-.8c1.7 0 3.1.2 4.2.6 1.1.4 2 1 2.7 1.8l-1.8 1.9c-.8-.7-1.6-1.2-2.4-1.5-.9-.3-1.8-.4-2.7-.4-1.1 0-2 .2-2.9.6-.9.4-1.6.9-2.2 1.6-.6.7-1.1 1.4-1.4 2.3-.3.9-.5 1.9-.5 2.9 0 1.1.2 2 .6 2.9s.9 1.7 1.5 2.4 1.4 1.2 2.3 1.6 1.8.6 2.9.6c.9 0 1.7-.1 2.5-.2.8-.2 1.5-.4 2-.7v-5.2h-4.1V955h6.5v.1z"/></g><g><path d="M-227.2 954.1h5.5v-5.5h4.3v5.5h5.5v4.3h-5.5v5.5h-4.3v-5.5h-5.5v-4.3zM-465 837.3v2.3c27.5 10.8 46 35.9 43.3 62.1-1.3 11.7-6.6 22.1-14.8 30.1 8.6-13.3 12.1-28.5 8.5-43.2-4.4-17.5-18.2-31-37-37.4v78.3c11.4-5.1 19.8-13.5 22.8-24.5 2.9-10.5.4-21.6-6.2-31.5 4.9 5 8.4 11 10 17.7 4.9 19.7-6.4 40.9-26.6 54.3v12.8c29.3-6.2 50.9-27.6 53.8-55.4 2.3-22-7.8-43.4-25.4-58.4 15.7 9.3 26.8 23 31 39.6 7.4 29.5-8.5 61.1-37.7 82h45.3V837.3h-67z"/></g></svg>