<?xml version="1.0" encoding="utf-8"?>
<!-- Generator: Adobe Illustrator 17.1.0, SVG Export Plug-In . SVG Version: 6.00 Build 0)  -->
<!DOCTYPE svg PUBLIC "-//W3C//DTD SVG 1.1//EN" "http://www.w3.org/Graphics/SVG/1.1/DTD/svg11.dtd">
<svg version="1.1" id="Layer_1" xmlns="http://www.w3.org/2000/svg" xmlns:xlink="http://www.w3.org/1999/xlink" x="0px" y="0px"
	 viewBox="0 0 864 708.8" enable-background="new 0 0 864 708.8" xml:space="preserve">
<path d="M233.6,127.4c-9.5,6.4-18.2,10.1-26.1,11c-7.8,0.9-14.5-0.3-20-3.4c-5.5-3.2-9.6-7.9-12.4-14.1c-2.8-6.2-3.9-13.2-3.2-20.9
	c0.6-7.7,3-15.8,7.1-24.2c4.1-8.4,10.5-16.3,19-23.7c8.5-7.3,19.3-13.7,32.4-19.2c13.1-5.5,28.8-9.1,47.3-11
	c14-1.5,28.3-2.7,43.1-3.7c14.7-1,28.5-2.2,41.3-3.6c12.8-1.4,23.9-3.1,33.3-5.3c9.4-2.2,15.7-5.2,19-9.1
	c-2.2,13.2-5.4,23.7-9.4,31.5c-4.1,7.7-8.8,13.4-14.2,17c-5.4,3.6-11.3,5.6-17.6,5.9c-6.4,0.3-13-0.4-20-2.1
	c-6.9-1.7-13.9-4-20.9-6.8c-7-2.8-13.8-5.5-20.4-8.1c-6.6-2.6-12.9-4.7-19.1-6.3c-6.1-1.6-11.6-2-16.4-1.1
	c-9.2,1.6-17.4,4.9-24.7,9.7c-7.3,4.8-13.4,10.5-18.4,17c-5,6.5-8.8,13.5-11.5,20.9c-2.7,7.4-4,14.5-4.1,21.2
	c-0.1,6.7,1.1,12.7,3.7,17.9C224.1,121.8,228.1,125.4,233.6,127.4z M299.5,43.7c-3.4,1.2-6,4.1-7.8,8.6c-1.9,4.6-3.1,10.3-3.8,17.3
	c-0.7,6.9-0.9,14.8-0.9,23.7c0.1,8.9,0.4,18.1,0.9,27.7c3.4-3.4,7.1-5.7,11.2-6.9c4.1-1.2,8.4-1.9,12.8-2.1
	c4.4-0.2,8.9-0.1,13.4,0.2c4.5,0.3,8.7,0.5,12.7,0.6c4,0.1,7.6-0.3,10.9-1.2c3.3-0.9,6-2.7,8.1-5.4c-3,12.4-6.3,21.9-10.1,28.5
	c-3.8,6.6-7.7,11.2-11.8,13.9c-4.1,2.7-8.2,3.8-12.5,3.4c-4.2-0.4-8.4-1.6-12.5-3.4c-4.1-1.8-8-4-11.7-6.4c-3.7-2.4-7-4.2-10-5.5
	c0.3,10.6,0.5,21.2,0.7,31.6c0.2,10.5-0.2,20.2-1,29.1c-0.8,8.9-2.3,16.9-4.4,23.8c-2.1,6.9-5.3,12-9.5,15.3
	c-2.1,1.7-4.8,3.3-8.2,4.6c-3.4,1.3-7.1,2-10.9,2.1c-3.8,0.1-7.8-0.6-11.8-2.1c-4-1.5-7.6-4-10.8-7.6c3.1-1.5,5.1-5.9,6.1-13.2
	c1-7.3,1.4-16.3,1.3-26.9c-0.1-10.7-0.4-22.4-0.9-35.3c-0.5-12.9-0.5-25.6-0.1-38.3c0.4-12.6,1.6-24.5,3.3-35.7
	c1.8-11.2,4.9-20.6,9.3-28.2c4.4-7.6,10.4-12.7,18.1-15.2C277.6,38.1,287.5,39.1,299.5,43.7z"/>
<path d="M353,138.6c1.3-3.6,2.8-6.9,4.8-9.8c1.6-2.6,3.6-5,6.1-7.3c2.5-2.3,5.5-3.7,9.1-4.3c5.6-1,9.7-0.1,12.2,2.6
	c2.5,2.7,4.1,6.5,4.7,11.3c0.6,4.8,0.6,10.3,0,16.4c-0.7,6.1-1.5,12.1-2.4,18c-0.9,5.8-1.7,11.1-2.3,15.8c-0.6,4.7-0.5,8,0.3,10
	c0.8,2,2.7,2.1,5.6,0.5c2.9-1.6,7.3-5.8,13.3-12.5c-3.3,6.5-6.9,12.4-10.7,17.5c-1.6,2.3-3.4,4.6-5.3,6.7c-1.9,2.2-3.9,4.2-5.9,6
	c-2,1.8-4.2,3.4-6.4,4.7c-2.2,1.3-4.4,2.1-6.7,2.5c-4.3,0.8-7.6,0-9.9-2.2c-2.3-2.2-3.9-5.4-4.7-9.6c-0.9-4.2-1.2-8.9-1-14.3
	c0.2-5.4,0.6-10.9,1.2-16.4c0.6-5.6,1.2-10.9,1.9-16.1c0.7-5.1,1.1-9.5,1.3-13c0.1-3.5-0.1-6-0.8-7.4
	C356.7,136.5,355.2,136.8,353,138.6z M356.1,78.1c4.5-5.7,8.9-9.7,13.1-11.9c4.2-2.3,7.9-3.4,11.2-3.2c3.3,0.2,6,1.4,8,3.7
	c2.1,2.3,3.2,5.1,3.4,8.4c0.1,3.9-0.2,7.7-1,11.5c-0.8,3.8-1.8,7.3-2.8,10.4c-1.2,3.7-2.8,7.3-4.6,10.6c-6.5,2.2-11.4,3-14.6,2.2
	c-3.2-0.8-5.5-2.3-6.8-4.7c-1.3-2.3-1.9-5.1-1.9-8.4c0-3.3,0.1-6.3,0.3-9.3c0.2-2.9,0-5.3-0.3-7.1C359.6,78.4,358.3,77.7,356.1,78.1
	z"/>
<path d="M395.2,124.1c2.2-3.6,4.7-6.9,7.6-9.9c2.4-2.6,5.2-5.1,8.5-7.5c3.3-2.4,7-4,11-4.7c4.1-0.7,6.9,0.4,8.6,3.4
	c1.7,3,2.6,7,2.7,11.9c0.1,4.9-0.2,10.3-1.1,16.2c-0.9,5.9-1.7,11.4-2.7,16.6c-0.9,5.2-1.6,9.5-2.2,13c-0.5,3.5-0.4,5.2,0.4,5.2
	c0.8,0,1.6-1.7,2.2-5.2c0.7-3.4,1.5-7.7,2.6-12.9c1-5.2,2.4-10.8,4-16.9c1.6-6.1,3.7-11.9,6.3-17.3c2.6-5.5,5.7-10.2,9.5-14.2
	c3.7-4,8.3-6.5,13.7-7.5c4.1-0.7,7,0.2,8.9,2.8c1.9,2.6,3.1,6.1,3.7,10.6c0.6,4.5,0.8,9.6,0.6,15.2c-0.2,5.7-0.5,11.2-0.8,16.8
	c-0.3,5.5-0.5,10.6-0.4,15.3c0,4.7,0.6,8.2,1.8,10.7c1.2,2.5,3.2,3.5,6,3.1c2.8-0.4,6.8-3,11.9-7.7c-1.2,3.3-3.2,7-5.9,11.2
	c-2.8,4.1-5.9,8.1-9.3,11.9c-3.4,3.8-6.9,7.1-10.4,9.9c-3.6,2.8-6.7,4.4-9.3,4.9c-5.2,0.9-9-0.4-11.4-4c-2.3-3.6-3.8-8.3-4.3-14.1
	c-0.6-5.9-0.5-12.3,0.2-19.4c0.7-7.1,1.4-13.7,2.1-19.7c0.7-6.1,1.1-11.1,1.3-15.1c0.2-4-0.5-5.9-2.1-5.6c-1.6,0.3-3.2,2.6-4.8,6.8
	c-1.6,4.3-3.2,9.5-4.7,15.7c-1.5,6.2-3,12.9-4.3,20.1c-1.3,7.2-2.3,13.8-3.1,19.9c-0.8,6.1-1.2,11.1-1.4,15.2c-0.2,4,0.1,6,0.7,5.9
	c-7.4,3.2-13.4,4.3-17.9,3.2c-4.5-1.1-7.9-3.5-10.2-7.3c-2.3-3.8-3.8-8.6-4.5-14.4c-0.7-5.8-0.9-11.9-0.7-18.1
	c0.2-6.3,0.7-12.5,1.3-18.6c0.6-6.1,1-11.4,1.2-15.7c0.2-4.4-0.1-7.5-0.8-9.4C399.2,122.2,397.6,122.2,395.2,124.1z"/>
<path d="M532.7,82.6c7.9-1.4,14.6-0.8,20.3,1.7c5.6,2.5,10,6.2,13,10.9c3,4.7,4.6,10.2,4.8,16.5c0.2,6.2-1.1,12.5-4.1,18.7
	c-3,6.2-7.6,11.9-14,17.2c-6.4,5.3-14.7,9.2-24.9,12c1.3,4.5,3,8.3,5.1,11.4c2.1,3.1,4.8,4.9,8,5.6c5.1,1.1,10,0.6,14.9-1.6
	c4.9-2.2,9.2-5.1,12.9-8.8c3.7-3.6,6.6-7.5,8.8-11.5c2.2-4,3.1-7.3,2.8-9.8c1.7,2.1,2.1,5.2,1,9.4c-1,4.1-3.3,8.4-6.9,12.8
	c-3.6,4.4-8.2,8.5-14.1,12.2c-5.8,3.7-12.6,6.3-20.4,7.6c-11.5,2-20.9,1.1-28.1-2.9c-7.2-3.9-12.5-9.5-15.8-16.8
	c-3.4-7.2-4.9-15.4-4.6-24.5c0.3-9.1,2.1-17.9,5.3-26.3c3.2-8.4,7.9-15.8,14.1-22.1C517.1,88,524.3,84.1,532.7,82.6z M535.4,87.2
	c-2,0.3-3.7,2.8-5.3,7.2c-1.6,4.5-2.9,10-3.9,16.5c-1,6.5-1.5,13.6-1.5,21.2c0,7.6,0.6,14.6,1.7,21.2c3-2.7,5.6-6.3,7.6-10.7
	c2-4.4,3.6-9.1,4.7-14.1c1.1-5,1.9-10,2.1-15c0.3-5,0.3-9.5,0-13.5c-0.3-4-0.9-7.2-1.9-9.6C537.8,88.1,536.7,87,535.4,87.2z"/>
<g>
	<path d="M164.7,286.6c1.2-0.4,2.3-2.7,3.4-6.9c1.1-4.2,1.8-9.2,2.2-15.1c0.4-5.9,0.3-12.2-0.1-19c-0.5-6.8-1.7-12.8-3.6-18
		c-2-5.3-4.8-9.4-8.4-12.3c-3.7-2.9-8.4-3.7-14-2.3c-4.5,1.2-8.5,3.6-12.1,7.2c-3.6,3.6-6.3,7.8-8.2,12.8
		c-1.9,4.9-2.8,10.3-2.7,16.1c0.1,5.8,1.4,11.5,4,17.2c2.5,5.7,6.4,11.1,11.7,16.2c5.3,5.1,12.3,9.3,21.1,12.7
		c13.1,5,23.8,11.6,32,19.6c8.2,8.1,14,16.7,17.4,25.9c3.5,9.2,4.5,18.7,3,28.4c-1.4,9.8-5.3,18.8-11.4,27.3
		c-6.2,8.4-14.7,15.9-25.5,22.3c-10.8,6.4-24.1,11-39.7,13.7c-11.3,2-21.5,0.9-30.6-3.3c-9.1-4.2-16.6-10-22.5-17.3
		c-5.9-7.3-9.8-15.4-11.8-24.3c-2-8.8-1.6-16.9,1.2-24.3c2.8-7.3,8.3-13.1,16.6-17.2c8.3-4.1,19.7-5.1,34.4-3
		c-1.6,0.3-2.9,2.6-3.8,7c-1,4.4-1.6,9.6-1.8,15.8c-0.2,6.2,0.1,12.7,1.2,19.7c1,7,2.8,13.2,5.4,18.6c2.6,5.5,6.1,9.6,10.6,12.4
		c4.5,2.8,10.2,3.1,17.1,0.8c6-1.9,10.5-6,13.6-12.4c3.1-6.4,3.8-13.6,2.2-21.7c-1.6-8.1-6-16.4-13-25c-7-8.6-17.6-15.9-31.7-22
		c-14.4-6.2-24.7-15.1-31-26.5c-6.3-11.4-8.7-23.5-7.3-36.2c1.4-12.7,6.7-24.9,15.9-36.6c9.2-11.7,22.2-21,39.2-27.9
		c16.2-6.5,29.9-9,40.9-7.5c11.1,1.5,19.7,5.3,25.9,11.4c6.2,6.1,9.9,13.5,11.1,22.2c1.2,8.8,0.1,17.1-3.4,25.1
		c-3.5,8-9.2,14.6-17.2,19.9C187,285.3,176.9,287.5,164.7,286.6z"/>
	<path d="M265.2,401.7c1.6-0.3,3-1.9,4.2-5c1.2-3.1,2.2-6.9,3-11.6c0.8-4.7,1.5-9.9,2-15.8c0.5-5.8,0.9-11.7,1.1-17.5
		c-4.1-4.7-7.3-10.2-9.8-16.4c-2.5-6.3-3.3-12.3-2.4-18.1c0.5-4,1.8-7,3.8-9c2-2,4.4-3,7.2-3c2.8,0,5.7,0.9,8.9,2.8
		c3.2,1.9,6.2,4.7,9.2,8.3c2.1,2.7,3.9,5.8,5.3,9.2c1.4,3.4,2.6,7,3.5,10.7c2.1,0.4,4.1,0.4,6.1-0.2c1.9-0.5,3.6-1.8,5-3.8
		c-0.4,7.8-1.4,13.9-3.1,18.4c-1.7,4.5-3.9,7.8-6.5,9.9c-0.5,5.4-1.7,10.6-3.4,15.7c-1.7,5.1-4.1,9.8-7.1,13.9
		c-3,4.2-6.6,7.7-11,10.7c-4.4,2.9-9.3,4.9-15,5.9c-9.7,1.7-18,0.4-25-3.8c-7-4.2-12.4-10.1-16.2-17.5c-3.8-7.4-6-15.8-6.4-24.9
		c-0.5-9.2,0.9-17.8,4-26c3.2-8.1,8.3-15,15.4-20.7c7.1-5.6,16.3-8.7,27.6-9c-2,1.6-3.9,5.2-5.5,10.8c-1.6,5.6-2.9,12.1-3.9,19.4
		c-0.9,7.3-1.5,15-1.8,23c-0.3,8-0.1,15.4,0.6,22c0.7,6.6,1.8,12,3.5,16.1C260,400.4,262.3,402.2,265.2,401.7z M282.2,321
		c1.6,2.7,3.5,5.2,5.8,7.4c2.3,2.2,4.7,4.1,7.3,5.5c-0.1-1.3-0.4-2.7-0.8-4.2c-0.5-1.5-1-2.9-1.7-4.3c-0.6-1.4-1.3-2.6-1.9-3.6
		c-0.6-1-1.1-1.9-1.5-2.5c-1.7-2.3-3.4-3.9-4.9-4.9c-1.5-1-2.7-1.4-3.6-1.2c-0.8,0.2-1.2,1-1.1,2.3
		C279.9,316.9,280.7,318.7,282.2,321z"/>
	<path d="M409.3,349.3c-2.5,6.4-5.3,12.2-8.3,17.3c-1.2,2.2-2.6,4.5-4.2,6.6c-1.6,2.2-3.3,4.2-5,6c-1.8,1.8-3.6,3.3-5.6,4.5
		c-1.9,1.2-3.9,2-5.9,2.4c-4.2,0.7-7.4,0.1-9.6-1.9c-2.2-2-3.7-5.4-4.4-10.2c-0.8-4.8-0.9-11.1-0.3-18.8c0.6-7.7,1.6-17,3.1-27.6
		c-0.9,0.2-1.7,1.8-2.5,4.9c-0.7,3.1-1.6,7-2.5,11.6c-0.9,4.6-2,9.7-3.2,15.2c-1.2,5.5-2.8,10.6-4.8,15.4c-2,4.8-4.4,9-7.1,12.4
		c-2.8,3.5-6.2,5.6-10.3,6.3c-6,1.1-10.8,0.5-14.3-1.7c-3.5-2.2-6.1-5.5-7.8-10c-1.7-4.4-2.7-9.7-2.9-15.7c-0.2-6.1,0-12.3,0.5-18.6
		c0.5-6.4,1.2-12.7,2.1-19c0.9-6.3,1.7-12,2.3-16.9c0.6-5,0.8-9,0.7-12.1c-0.1-3.1-1-4.6-2.4-4.6c7.8-5,14-7.6,18.7-7.9
		c4.7-0.2,8.3,1.2,10.7,4.4c2.4,3.2,4,7.5,4.6,13.1c0.6,5.6,0.8,11.7,0.4,18.3c-0.4,6.6-1.1,13.3-2,20.1c-1,6.8-1.8,12.9-2.5,18.4
		c-0.7,5.5-1.1,9.9-1.1,13.3c0,3.4,0.7,4.9,2.1,4.7c1.3-0.2,2.7-2.4,4.2-6.5c1.5-4.1,3-9.3,4.4-15.5c1.4-6.2,2.8-13,4.1-20.3
		c1.3-7.3,2.4-14.4,3.3-21.2c0.8-6.8,1.4-12.8,1.7-18c0.3-5.3,0.2-8.9-0.3-10.8c9.1-4.6,16-6.6,20.8-6.1c4.8,0.5,8.2,2.6,10.2,6.2
		c2,3.6,2.9,8.4,2.7,14.3c-0.2,5.9-0.7,12-1.6,18.3c-0.9,6.3-1.9,12.4-2.9,18.2c-1,5.8-1.3,10.4-1,13.8c0.3,3.4,1.6,5.2,3.9,5.3
		C399.5,356.8,403.5,354.4,409.3,349.3z"/>
	<path d="M469.1,211.4c7.7-3.8,13.9-5,18.4-3.7c4.6,1.4,8,4.4,10.3,9.2c2.3,4.8,3.7,10.9,4.1,18.3c0.4,7.4,0.3,15.3-0.3,23.7
		c-0.6,8.4-1.6,16.7-3,25.1c-1.4,8.4-2.6,15.9-3.8,22.7c-1.2,6.8-2.1,12.3-2.8,16.5c-0.7,4.2-0.7,6.4,0,6.4c0.8,0.1,1.5-1.5,2.1-4.9
		c0.5-3.4,1.3-7.7,2.2-12.8c0.9-5.1,2.1-10.7,3.5-16.8c1.4-6.1,3.4-12,5.8-17.5c2.5-5.5,5.6-10.3,9.4-14.3c3.8-4.1,8.5-6.6,14.2-7.6
		c4.1-0.7,7,0.2,8.9,2.8c1.9,2.6,3.1,6.1,3.8,10.6c0.7,4.5,0.8,9.6,0.6,15.2c-0.3,5.7-0.6,11.3-0.9,16.8c-0.3,5.5-0.5,10.6-0.4,15.3
		c0,4.7,0.6,8.2,1.9,10.7c1.2,2.5,3.3,3.5,6,3.1c2.8-0.4,6.8-3,12-7.7c-1.2,3.3-3.2,7-5.9,11.2c-2.8,4.1-5.9,8.1-9.3,11.9
		c-3.4,3.8-6.9,7.1-10.4,9.9c-3.6,2.8-6.7,4.4-9.5,4.9c-3.9,0.7-7,0.1-9.2-1.8c-2.2-1.9-3.9-4.7-4.9-8.3c-1-3.6-1.6-7.8-1.7-12.6
		c-0.1-4.8,0-9.7,0.4-14.9c0.4-5.1,0.9-10.2,1.6-15.1c0.7-4.9,1.2-9.3,1.5-13.2c0.3-3.8,0.4-6.9,0.3-9.2c-0.1-2.3-0.8-3.3-2-3.1
		c-2,0.3-3.8,2.7-5.6,7c-1.7,4.3-3.3,9.5-4.6,15.7c-1.3,6.2-2.5,12.8-3.5,20c-1,7.1-1.7,13.7-2.2,19.8c-0.5,6-0.7,11-0.6,15
		c0.1,4,0.5,5.9,1.1,5.8c-6.8,3.5-12.5,4.9-16.9,4.1c-4.5-0.8-8-3.1-10.5-6.9c-2.6-3.8-4.4-8.9-5.4-15.3c-1.1-6.4-1.6-13.4-1.5-21.2
		c0-7.8,0.5-16,1.3-24.8c0.8-8.7,1.8-17.4,2.8-25.9c1.1-8.5,2.1-16.6,3.2-24.4c1.1-7.8,1.8-14.6,2.3-20.5c0.4-5.9,0.5-10.6,0.1-14.1
		C471.9,213.1,470.9,211.3,469.1,211.4z"/>
	<path d="M594.2,244.3c7.9-1.4,14.6-0.8,20.3,1.7c5.7,2.5,10,6.2,13,10.9c3,4.7,4.6,10.2,4.8,16.5c0.2,6.2-1.1,12.5-4.1,18.7
		c-3,6.2-7.6,11.9-14,17.2c-6.4,5.3-14.7,9.2-24.9,12c1.3,4.5,3.1,8.3,5.1,11.4c2.1,3.1,4.8,4.9,8,5.6c5.1,1.1,10,0.6,14.9-1.6
		c4.9-2.2,9.2-5.1,12.9-8.8c3.7-3.6,6.6-7.5,8.8-11.5c2.2-4,3.1-7.3,2.8-9.8c1.7,2.1,2.1,5.2,1,9.4c-1,4.1-3.3,8.4-6.9,12.8
		c-3.6,4.4-8.2,8.5-14.1,12.2c-5.8,3.7-12.6,6.3-20.4,7.6c-11.5,2-20.9,1.1-28.1-2.9c-7.2-3.9-12.5-9.5-15.8-16.8
		c-3.4-7.2-4.9-15.4-4.6-24.5c0.3-9.1,2.1-17.9,5.3-26.3c3.2-8.4,7.9-15.8,14.1-22.1C578.6,249.6,585.8,245.7,594.2,244.3z
		 M596.8,248.9c-2,0.3-3.7,2.8-5.3,7.2c-1.6,4.5-2.9,10-3.9,16.5c-1,6.5-1.5,13.6-1.5,21.2c0,7.6,0.6,14.6,1.7,21.2
		c3-2.7,5.6-6.3,7.6-10.7c2-4.4,3.6-9.1,4.7-14.1c1.1-5,1.9-10,2.1-15c0.3-5,0.3-9.5,0-13.5c-0.3-4-0.9-7.2-1.9-9.6
		C599.3,249.7,598.2,248.6,596.8,248.9z"/>
	<path d="M634.1,254.5c2.2-3.6,4.7-6.9,7.6-9.9c2.4-2.6,5.2-5.1,8.5-7.5c3.3-2.4,7-4,11-4.7c4.2-0.7,7.1,0.4,8.7,3.4
		c1.6,3,2.5,7,2.7,11.9c0.2,4.9-0.1,10.3-1,16.2c-0.9,5.9-1.8,11.4-2.7,16.6c-1,5.2-1.7,9.5-2.3,13c-0.5,3.5-0.4,5.2,0.4,5.2
		c0.8,0,1.6-1.8,2.3-5.5c0.7-3.6,1.6-8.2,2.7-13.7c1.1-5.5,2.4-11.4,4-18c1.6-6.5,3.8-12.6,6.4-18.4c2.6-5.7,5.8-10.7,9.5-15
		c3.7-4.2,8.3-6.8,13.6-7.8c4.1-0.7,7-0.1,8.7,1.7c1.7,1.9,2.8,4.4,3.3,7.6c0.4,3.2,0.4,6.9-0.2,11.1c-0.6,4.2-1.1,8.2-1.7,12.1
		c-0.6,3.9-1,7.4-1.2,10.6c-0.2,3.1,0.2,5.3,1.2,6.6c1,1.3,2.8,1.3,5.5,0.1c2.7-1.2,6.6-4.1,11.7-8.8c-1.2,3.3-3.2,7-5.9,11.2
		c-2.8,4.1-5.9,8.1-9.3,11.9c-3.4,3.8-6.9,7.1-10.4,9.9c-3.6,2.8-6.7,4.4-9.3,4.9c-5.2,0.9-8.9,0.3-11-2c-2.1-2.3-3.3-5.4-3.5-9.4
		c-0.2-4,0.2-8.4,1.2-13.2c1.1-4.8,2.1-9.3,3.2-13.5c1.1-4.2,1.8-7.7,2.2-10.4c0.4-2.7-0.2-3.9-1.8-3.6c-1.3,0.2-2.8,2.6-4.3,7.1
		c-1.6,4.5-3.1,9.9-4.6,16.4c-1.5,6.5-2.9,13.5-4.2,21.1c-1.3,7.6-2.4,14.6-3.2,21c-0.8,6.4-1.5,11.7-1.9,15.9
		c-0.4,4.3-0.3,6.3,0.2,6.3c-7.4,3.2-13.4,4.3-17.9,3.2c-4.5-1.1-7.9-3.5-10.2-7.3c-2.3-3.8-3.8-8.6-4.5-14.4
		c-0.7-5.8-0.9-11.9-0.7-18.1c0.2-6.3,0.7-12.5,1.3-18.6c0.6-6.1,1-11.4,1.2-15.7c0.2-4.4-0.1-7.5-0.8-9.4
		C638.1,252.6,636.5,252.6,634.1,254.5z"/>
	<path d="M722.9,238.8c2.2-3.6,4.7-6.9,7.6-9.9c2.4-2.6,5.2-5.1,8.5-7.5c3.3-2.4,7-4,11-4.7c4.1-0.7,6.9,0.4,8.6,3.5
		c1.7,3,2.6,7,2.7,11.9c0.1,4.9-0.2,10.3-1.1,16.2c-0.9,5.9-1.7,11.4-2.7,16.6c-0.9,5.2-1.6,9.5-2.2,13c-0.5,3.5-0.4,5.2,0.4,5.2
		c0.8,0,1.6-1.7,2.2-5.2c0.7-3.4,1.5-7.7,2.6-12.9c1-5.2,2.4-10.8,4-16.9c1.6-6.1,3.7-11.9,6.3-17.3c2.6-5.5,5.7-10.2,9.5-14.2
		c3.8-4,8.3-6.5,13.7-7.5c4.1-0.7,7,0.2,8.9,2.8c1.9,2.6,3.1,6.1,3.7,10.6c0.6,4.5,0.8,9.6,0.6,15.2c-0.2,5.7-0.5,11.2-0.8,16.8
		c-0.3,5.5-0.5,10.6-0.4,15.3c0,4.7,0.6,8.2,1.8,10.7c1.2,2.5,3.2,3.5,6,3.1c2.8-0.4,6.8-3,11.9-7.7c-1.2,3.3-3.2,7-5.9,11.2
		c-2.8,4.1-5.9,8.1-9.3,11.9c-3.4,3.8-6.9,7.1-10.4,9.9c-3.6,2.8-6.7,4.4-9.3,4.9c-5.2,0.9-9-0.4-11.4-4c-2.3-3.6-3.8-8.3-4.3-14.1
		c-0.6-5.9-0.5-12.3,0.2-19.4c0.7-7.1,1.4-13.7,2.1-19.7c0.7-6.1,1.1-11.1,1.3-15.1c0.2-4-0.5-5.9-2.1-5.6c-1.6,0.3-3.2,2.6-4.8,6.8
		c-1.6,4.3-3.2,9.5-4.7,15.7c-1.5,6.2-3,12.9-4.3,20.1c-1.3,7.2-2.3,13.8-3.1,19.9c-0.8,6.1-1.2,11.1-1.4,15.2c-0.2,4,0.1,6,0.7,5.9
		c-7.4,3.2-13.4,4.3-17.9,3.2s-7.9-3.5-10.2-7.3c-2.3-3.8-3.8-8.6-4.5-14.4c-0.7-5.8-0.9-11.9-0.7-18.1c0.2-6.3,0.7-12.5,1.3-18.6
		c0.6-6.1,1-11.4,1.2-15.7c0.2-4.4-0.1-7.5-0.8-9.4C726.8,236.9,725.2,236.9,722.9,238.8z"/>
</g>
<path d="M149.5,529.2c-2.3,2.1-3.8,5.9-4.3,11.4c-0.6,5.6-0.9,12.2-1,20c-0.1,7.8-0.1,16.3-0.1,25.7c0,9.4-0.7,19-2,28.8
	c-1.4,9.8-3.6,19.6-6.8,29.2c-3.2,9.6-7.8,18.6-14,26.8c-6.2,8.2-14.2,15.5-24.2,21.8c-9.9,6.3-22.3,11.1-37.3,14.3
	c-10.1,2.2-19,2.1-26.7-0.2c-7.6-2.4-14-6.2-19-11.3c-5-5.2-8.7-11.4-11-18.6c-2.3-7.2-3.3-14.6-3.1-22c0.2-7.5,1.8-14.7,4.9-21.6
	c3-6.9,7.4-12.6,13.1-17.2c5.7-4.5,12.7-7.5,21-8.8c8.3-1.4,18.1-0.2,29.2,3.4c-5,2.3-9.1,6.4-12.6,12.1c-3.4,5.8-6.1,12.2-8,19.4
	c-1.9,7.2-3.2,14.4-3.7,21.9c-0.5,7.4-0.3,14.1,0.9,20c1.1,5.9,3,10.5,5.5,13.7c2.5,3.3,5.9,4.2,10,2.9c8.6-2.8,14.9-7.8,19-15.1
	c4.1-7.3,6.9-15.9,8.6-25.7c1.7-9.8,2.6-20.4,2.8-31.7c0.2-11.4,0.6-22.6,1.3-33.7c-1.6,0.5-3.2,0.9-5,1.3c-1.8,0.4-3.6,0.8-5.4,1.1
	c-12,2.1-22.5,1.6-31.4-1.4c-8.9-3.1-16.2-7.9-22-14.4c-5.8-6.5-10.1-14.3-12.8-23.3c-2.7-9-3.8-18.5-3.2-28.5
	c0.6-10,2.8-19.9,6.7-29.8c3.8-9.9,9.4-18.9,16.6-27.2c7.2-8.3,16.1-15.2,26.8-20.8c10.7-5.6,23.1-9,37.3-10.3
	c14.8-1.4,27-0.2,36.7,3.4c9.6,3.7,16.7,8.6,21.3,14.7c4.6,6.1,6.7,12.7,6.5,19.9c-0.3,7.2-2.9,13.6-7.8,19.2
	c-4.9,5.6-11.9,9.8-21,12.7c-9.1,2.8-20.2,2.9-33.2,0.3c2.4-1.9,4.5-4.8,6.5-8.7c2-4,3.7-8.4,5.1-13.3c1.4-4.9,2.3-9.8,2.8-14.7
	c0.5-4.9,0.4-9.4-0.2-13.4c-0.6-4-1.9-7.2-3.8-9.5c-2-2.3-4.7-3.2-8.3-2.6c-4.4,0.8-8.6,3.2-12.5,7.3c-3.9,4.1-7.5,9.3-10.9,15.7
	c-3.3,6.4-6.2,13.5-8.6,21.3c-2.4,7.9-4.4,15.8-5.8,23.9c-1.5,8.1-2.3,16-2.5,23.8c-0.2,7.8,0.3,14.8,1.6,21.1
	c1.2,6.3,3.2,11.5,6,15.7c2.8,4.2,6.5,6.5,11.2,7.2c3.4,0.6,6.8,0.7,10.2,0.1c1-8.2,2.6-15.9,4.6-23.1c2-7.2,5.2-13.3,9.4-18.5
	c4.2-5.2,9.8-9,16.7-11.6C130.4,529.3,139,528.4,149.5,529.2z"/>
<path d="M242.2,493.3c2.2-3.6,4.7-6.9,7.6-9.9c2.4-2.6,5.2-5.1,8.5-7.5c3.3-2.4,7-4,11-4.7c4.1-0.7,6.9,0.4,8.6,3.4
	c1.7,3,2.6,7,2.7,11.9c0.1,4.9-0.2,10.3-1.1,16.2c-0.9,5.9-1.7,11.4-2.7,16.6c-0.9,5.2-1.6,9.5-2.2,13c-0.5,3.5-0.4,5.2,0.4,5.2
	c0.8,0,1.6-1.7,2.2-5.2c0.7-3.4,1.5-7.7,2.6-12.9c1-5.2,2.4-10.8,4-16.9c1.6-6.1,3.7-11.9,6.3-17.3c2.6-5.4,5.7-10.2,9.5-14.2
	c3.7-4,8.3-6.5,13.7-7.5c4.1-0.7,7,0.2,8.9,2.8c1.9,2.6,3.1,6.1,3.7,10.6c0.6,4.5,0.8,9.6,0.6,15.2c-0.2,5.7-0.5,11.2-0.8,16.8
	c-0.3,5.5-0.5,10.6-0.4,15.3c0,4.7,0.6,8.2,1.8,10.7c1.2,2.5,3.2,3.5,6,3.1c2.8-0.4,6.8-3,11.9-7.7c-1.2,3.3-3.2,7-5.9,11.2
	c-2.8,4.1-5.9,8.1-9.3,11.9c-3.4,3.8-6.9,7.1-10.4,9.9c-3.6,2.8-6.7,4.4-9.3,4.9c-5.2,0.9-9-0.4-11.4-4c-2.3-3.6-3.8-8.3-4.3-14.1
	c-0.6-5.9-0.5-12.3,0.2-19.4c0.7-7.1,1.4-13.7,2.1-19.7c0.7-6.1,1.1-11.1,1.3-15.1c0.2-4-0.5-5.9-2.1-5.6c-1.6,0.3-3.2,2.6-4.8,6.8
	c-1.6,4.3-3.2,9.5-4.7,15.7c-1.5,6.2-3,12.9-4.3,20.1c-1.3,7.2-2.3,13.8-3.1,19.9c-0.8,6.1-1.2,11.1-1.4,15.2c-0.2,4,0.1,6,0.7,5.9
	c-7.4,3.2-13.4,4.3-17.9,3.2c-4.5-1.1-7.9-3.5-10.2-7.3c-2.3-3.8-3.8-8.6-4.5-14.4c-0.7-5.8-0.9-11.9-0.7-18.1
	c0.2-6.3,0.7-12.5,1.3-18.6c0.6-6.1,1-11.4,1.2-15.7c0.2-4.4-0.1-7.5-0.8-9.4C246.1,491.4,244.6,491.4,242.2,493.3z"/>
<path d="M403.1,442.8c-1.7,9.5-4.7,16.6-9,21.2c-4.3,4.6-9.2,7.9-14.5,9.8c-0.7,6.9-1.5,13.7-2.5,20.5c-1,6.8-1.6,13-1.9,18.7
	c-0.3,5.7-0.1,10.4,0.5,14.3c0.6,3.9,2.1,6.4,4.5,7.4c2.4,1.1,5.8,0.5,10.2-1.8c4.5-2.3,10.4-6.8,17.7-13.7
	c-4.2,6.7-8.7,12.6-13.3,17.7c-4.7,5.1-9.1,9.3-13.4,12.8c-4.3,3.5-8.1,6.1-11.6,8c-3.5,1.9-6.2,3-8.1,3.4
	c-4.6,0.8-8.3,0.2-11.2-1.8c-2.9-2-5-5.1-6.4-9.2c-1.4-4.1-2.2-9.1-2.4-14.8c-0.2-5.7,0-11.9,0.5-18.5c0.5-6.6,1.3-13.5,2.3-20.6
	c1-7.1,2-14,3.1-20.8c-2.6-0.1-4.7-0.1-6.4,0c-1.7,0.1-2.8,0.5-3.3,1.3c2.7-5.5,5.9-10.4,9.6-14.7c3.7-4.3,7.4-8.3,11.2-11.9
	c3.8-3.6,7.2-7.2,10.4-10.7c3.2-3.5,5.6-7.2,7.4-11.1c1.7,2.5,2.8,5.7,3.5,9.4c0.7,3.7,1.1,7.9,1.2,12.5c5.1-0.8,9.8-1.7,13.9-2.8
	C399.1,446.4,401.8,444.8,403.1,442.8z M337.8,476.7c0,0.1,0,0.3-0.1,0.4L337.8,476.7z"/>
<path d="M407.3,391.8c7.7-3.4,13.8-4.4,18.3-3.1c4.6,1.3,8,4.2,10.2,8.6c2.3,4.5,3.7,10.2,4.3,17.2c0.6,7,0.6,14.6,0.1,22.7
	c-0.5,8.1-1.2,16.4-2.3,25c-1.1,8.5-2,16.5-2.7,24c-0.7,7.5-1.1,14.2-1.1,20c-0.1,5.8,0.6,10.1,2.1,12.8c1.4,2.7,3.9,3.5,7.3,2.4
	c3.4-1.1,8.3-4.9,14.4-11.3c-8.5,13.4-15.6,23.1-21.5,29.3c-5.9,6.1-10.7,9.5-14.5,10.2c-6,1.1-10.6-0.3-13.8-4.2
	c-3.2-3.8-5.4-9.2-6.6-16.2c-1.2-7-1.6-15.1-1.3-24.4c0.4-9.3,1.1-19,2.2-28.9c1.1-9.9,2.3-19.8,3.7-29.6c1.4-9.8,2.5-18.6,3.3-26.5
	c0.8-7.9,1.2-14.3,1-19.4C410.4,395.4,409.3,392.5,407.3,391.8z"/>
<path d="M488.1,432.7c7.9-1.4,14.6-0.8,20.3,1.7c5.7,2.5,10,6.2,13,10.9c3,4.7,4.6,10.2,4.8,16.5c0.2,6.2-1.1,12.5-4.1,18.7
	c-3,6.2-7.6,11.9-14,17.2c-6.4,5.2-14.7,9.2-24.9,12c1.3,4.5,3,8.3,5.1,11.4c2.1,3.1,4.8,4.9,8,5.6c5.1,1.1,10,0.6,14.9-1.6
	c4.9-2.2,9.2-5.1,12.9-8.8c3.7-3.6,6.6-7.5,8.8-11.5c2.2-4,3.1-7.3,2.8-9.8c1.7,2.1,2.1,5.2,1,9.4c-1,4.1-3.3,8.4-6.9,12.8
	c-3.5,4.4-8.2,8.5-14.1,12.2c-5.8,3.7-12.6,6.3-20.4,7.6c-11.5,2-20.9,1.1-28.1-2.9c-7.2-3.9-12.5-9.5-15.8-16.8
	c-3.4-7.2-4.9-15.4-4.6-24.5c0.3-9.1,2.1-17.9,5.3-26.3c3.2-8.4,7.9-15.8,14.1-22.1C472.4,438.1,479.7,434.2,488.1,432.7z
	 M490.7,437.3c-2,0.3-3.7,2.8-5.3,7.2c-1.6,4.5-2.9,10-3.9,16.5c-1,6.5-1.5,13.6-1.5,21.2c0,7.6,0.6,14.6,1.7,21.2
	c3-2.7,5.6-6.3,7.6-10.7c2-4.4,3.6-9.1,4.7-14.1c1.1-5,1.9-10,2.1-15c0.3-5,0.3-9.5,0-13.5c-0.3-4-0.9-7.2-1.9-9.6
	C493.2,438.2,492,437.1,490.7,437.3z"/>
<path d="M636,406.6c4.1-0.7,7,0.2,8.9,2.8c1.9,2.6,3.1,6.1,3.7,10.6c0.6,4.5,0.7,9.6,0.5,15.2c-0.3,5.7-0.6,11.3-0.9,16.8
	s-0.5,10.6-0.4,15.3c0,4.7,0.6,8.2,1.9,10.7c1.3,2.5,3.3,3.5,6,3.1c2.8-0.4,6.8-3,12-7.7c-1.2,3.3-3.2,7-5.9,11.2
	c-2.8,4.1-5.9,8.1-9.3,11.9c-3.4,3.8-6.9,7.1-10.4,9.9c-3.6,2.8-6.7,4.4-9.5,4.9c-3.9,0.7-7,0.1-9.2-1.8c-2.2-1.9-3.9-4.7-4.9-8.3
	c-1-3.6-1.6-7.8-1.7-12.6c-0.1-4.8,0-9.7,0.4-14.9c0.4-5.1,0.9-10.2,1.6-15.1c0.7-4.9,1.2-9.3,1.5-13.2c0.3-3.8,0.4-6.9,0.3-9.2
	c-0.1-2.3-0.8-3.3-2-3.1c-1.6,0.3-3,2.5-4.3,6.6c-1.3,4.2-2.4,9.3-3.5,15.5c-1,6.2-1.9,12.8-2.6,19.9c-0.7,7.1-1.2,13.7-1.4,19.8
	c-0.2,6.1-0.2,11.3,0,15.4c0.2,4.2,0.6,6.3,1.3,6.5c-7.3,2.9-13.3,4.1-17.8,3.5c-4.6-0.6-8.1-2.5-10.5-5.5c-2.4-3.1-4.1-7.1-4.9-12
	c-0.8-4.9-1.1-10.2-1-15.8c0.2-5.6,0.6-11.2,1.4-16.8c0.8-5.6,1.5-10.7,2.1-15.2c0.6-4.5,1-8.1,1.1-10.8c0.1-2.7-0.4-4-1.6-3.8
	c-1.4,0.3-2.9,2.5-4.4,6.7c-1.5,4.2-2.9,9.3-4.2,15.4c-1.3,6.1-2.4,12.7-3.3,19.8c-0.9,7.1-1.6,13.6-2,19.7
	c-0.4,6.1-0.5,11.1-0.4,15.2c0.2,4,0.7,6,1.7,6c-7.4,3.2-13.4,4.3-17.9,3.2c-4.5-1.1-7.9-3.5-10.2-7.3c-2.3-3.8-3.8-8.6-4.5-14.4
	c-0.7-5.8-0.9-11.9-0.7-18.1c0.2-6.3,0.7-12.5,1.3-18.6c0.6-6.1,1-11.4,1.2-15.7c0.2-4.4-0.1-7.5-0.8-9.4c-0.7-1.9-2.3-1.9-4.7,0
	c2.2-3.6,4.7-6.9,7.6-9.9c2.4-2.6,5.2-5.1,8.5-7.5c3.3-2.4,7-4,11-4.7c3.5-0.6,6,0.6,7.2,3.7c1.3,3.1,1.9,7.1,1.9,12
	c0,4.9-0.5,10.4-1.4,16.3c-0.9,5.9-1.8,11.4-2.7,16.6c-0.8,5.2-1.5,9.5-2.1,12.9c-0.5,3.5-0.4,5.2,0.4,5.2c0.8,0,1.5-1.7,2.1-5.1
	c0.6-3.4,1.3-7.7,2.2-12.9c0.8-5.2,2-10.8,3.3-16.8c1.4-6.1,3.2-11.8,5.6-17.2c2.4-5.4,5.3-10.1,9-14.2c3.6-4,8.1-6.5,13.5-7.5
	c3.5-0.6,6.1,0.6,7.6,3.6c1.5,3,2.5,7,2.8,12c0.3,4.9,0.2,10.4-0.4,16.3c-0.6,5.9-1.2,11.4-1.8,16.6c-0.7,5.1-1.1,9.4-1.4,12.7
	c-0.3,3.4,0,5,0.8,4.8c0.8-0.1,1.4-1.9,1.9-5.3c0.5-3.4,1.1-7.7,1.8-12.8c0.7-5.1,1.7-10.7,2.9-16.7c1.2-6,3-11.8,5.3-17.2
	c2.3-5.4,5.2-10.1,8.7-14C626.2,410,630.7,407.6,636,406.6z"/>
<path d="M747.3,457.6c0.3,2.5-0.6,5.8-2.8,9.8c-2.2,4-5.1,7.9-8.8,11.5c-3.7,3.6-8,6.5-12.9,8.8c-4.9,2.2-9.9,2.8-14.9,1.6
	c-3.2-0.6-5.9-2.5-8-5.6c-2.1-3.1-3.8-6.9-5.1-11.4c10.2-2.7,18.5-6.7,24.9-12c6.4-5.2,11-11,14-17.2c3-6.2,4.3-12.4,4.1-18.7
	c-0.2-6.3-1.8-11.7-4.8-16.5c-3-4.7-7.3-8.4-13-10.9c-5.7-2.5-12.4-3.1-20.3-1.7c-8.4,1.5-15.7,5.4-21.8,11.7
	c-6.1,6.3-10.8,13.6-14.1,22.1c-3.3,8.4-5,17.2-5.3,26.3c-0.3,9.1,1.3,17.3,4.6,24.5c3.4,7.2,8.7,12.8,15.8,16.8
	c7.2,3.9,16.6,4.9,28.1,2.9c7.7-1.4,14.5-3.9,20.4-7.6c5.8-3.7,10.5-7.8,14.1-12.2c3.5-4.4,5.8-8.7,6.9-12.8
	C749.3,462.9,749,459.7,747.3,457.6z M693.2,466.1c-1.2-6.6-1.7-13.6-1.7-21.2c0-7.6,0.5-14.6,1.5-21.2c1-6.5,2.3-12,3.9-16.5
	c1.6-4.5,3.4-6.9,5.3-7.2c1.3-0.2,2.4,0.9,3.4,3.2c1,2.4,1.6,5.6,1.9,9.6c0.3,4,0.3,8.5,0,13.5c-0.3,5-1,10-2.1,15
	c-1.1,5-2.7,9.7-4.7,14.1C698.7,459.9,696.2,463.4,693.2,466.1z"/>
<path d="M411.3,296.2c-1,6.2-1.9,12.5-2.8,19c-1,7.1-1.7,13.9-2.3,20.6c-0.5,6.7-0.7,12.8-0.5,18.5c0.2,5.7,1,10.6,2.4,14.8
	c1.4,4.1,3.5,7.2,6.4,9.2c2.9,2,6.6,2.6,11.2,1.8c2-0.3,4.7-1.5,8.1-3.4c3.5-1.9,7.3-4.6,11.6-8c4.3-3.5,8.7-7.7,13.4-12.8
	c4.6-5.1,9.1-11,13.3-17.7c-7.3,6.8-13.2,11.4-17.7,13.7c-4.5,2.3-7.9,2.9-10.2,1.8c-2.4-1.1-3.8-3.5-4.5-7.4
	c-0.6-3.9-0.8-8.7-0.5-14.3c0.3-5.7,0.9-11.9,1.9-18.7c1-6.8,1.8-13.6,2.5-20.5c5.3-1.9,10.2-5.1,14.5-9.8c4.3-4.6,7.3-11.7,9-21.2
	c-1.3,2-4,3.5-8.1,4.6c-4.1,1.1-8.8,2-13.9,2.8c-0.1-4.6,2.3-47.9,1.6-51.6c-0.7-3.7-1.8-6.9-3.5-9.4c-1.7,4-4.2,7.7-7.4,11.1
	c-1.5,1.6-8.6,44.8-12.8,49.1c-0.1,0,0,0,0,0c-56.4-17.9-219.5,40.9-197.5-49.9c-39.1,162,188.8-1.2,186.3,74.3"/>
<path fill="none" d="M836.3,494.9"/>
<g>
	<g>
		<path d="M693,543.5C692.9,543.5,692.9,543.5,693,543.5c-0.1-0.1-0.2-0.1-0.2-0.2c0,0-0.1-0.1-0.1-0.1c0,0,0,0.1,0,0.1
			c0,0,0,0.1,0,0.1c0,0,0,0.1,0,0.1c-0.2,1-0.5,1.9-0.7,2.9c0,0.1,0,0.2,0,0.2c0,0,0.1,0.1,0.2,0c1.1-0.3,2.1-0.6,3.2-0.9
			c0.1,0,0.2-0.1,0.2-0.1c0-0.1,0-0.1-0.1-0.2C694.6,544.9,693.8,544.2,693,543.5z M863.1,420.9c-0.1-0.5-4.7-0.4-4.9,0.1
			c-3,8.2-25.5,31.4-27.8,31.7c-2.8,0.4-4.8-0.6-6-3.1c-1.2-2.5-1.8-6.1-1.8-10.7c0-4.7,0.1-9.8,0.5-15.3c0.3-5.5,0.6-11.1,0.8-16.8
			c0.2-5.6,0-10.7-0.6-15.2c-0.6-4.5-1.8-8-3.7-10.6c-1.9-2.6-4.8-3.5-8.9-2.8c-5.4,0.9-9.9,3.4-13.7,7.5c-3.8,4-6.9,8.8-9.5,14.2
			c-2.6,5.5-4.6,11.2-6.3,17.3c-1.6,6.1-3,11.7-4,16.9c-1,5.2-1.9,9.5-2.6,12.9c-0.7,3.4-1.4,5.2-2.2,5.2c-0.8,0-0.9-1.7-0.4-5.2
			c0.5-3.5,1.3-7.8,2.2-13c0.9-5.2,1.8-10.7,2.7-16.6c0.9-5.9,1.2-11.3,1.1-16.2c-0.1-4.9-1-8.9-2.7-11.9c-1.7-3-4.6-4.2-8.6-3.4
			c-4.1,0.7-7.7,2.3-11,4.7c-3.3,2.4-6.1,4.9-8.5,7.5c-2.9,2.9-5.4,6.2-7.6,9.9c2.4-1.9,3.9-1.9,4.7,0c0.7,1.9,1,5,0.8,9.4
			c-0.2,4.4-0.6,9.6-1.2,15.7c-0.6,6.1-1,12.3-1.3,18.6c-0.2,6.3,0,12.3,0.7,18.1c0.7,5.8,2.2,10.6,4.5,14.4
			c2.3,3.8,5.7,6.2,10.2,7.3c4.5,1.1,10.5,0,17.9-3.2c-0.7,0.1-0.9-1.8-0.7-5.9c0.2-4,0.6-9.1,1.4-15.2c0.8-6.1,1.8-12.7,3.1-19.9
			c1.3-7.2,2.7-13.9,4.3-20.1c1.5-6.2,3.1-11.5,4.7-15.7c1.6-4.3,3.2-6.5,4.8-6.8c1.6-0.3,2.3,1.6,2.1,5.6c-0.2,4-0.6,9.1-1.3,15.1
			c-0.7,6.1-1.4,12.7-2.1,19.7c-0.7,7.1-0.8,13.6-0.2,19.4c0.6,5.9,2,10.6,4.3,14.1c2.3,3.6,6.1,4.9,11.3,4c2.6-0.5,5.7-2.1,9.3-4.9
			c3.6-2.8,7-6.1,10.4-9.9c3.4-3.8,6.5-7.7,9.3-11.9c1.4-2,9.8-11.3,16.8-19.9c-0.1,0-6.1,16.5-6.2,16.4
			C800.2,550.5,248.9,635.2,201.7,574c-2.3-2.9-3.8-6.9-5.1-11.4c10.2-2.7,18.5-6.7,24.9-12c6.4-5.3,11-11,14-17.2
			c3-6.2,4.3-12.4,4.1-18.7c-0.2-6.3-1.8-11.7-4.8-16.5c-3-4.7-7.3-8.4-13-10.9c-5.7-2.5-12.4-3.1-20.3-1.7
			c-8.4,1.5-15.7,5.4-21.8,11.7c-6.1,6.3-10.8,13.6-14.1,22.1c-3.3,8.4-4.2,17.2-5.3,26.3c-18.9,156.6,552.6,42.3,673.6-46.9
			C839.8,494.4,869.4,454.4,863.1,420.9z M193.8,535.5c0-7.6,0.5-14.6,1.5-21.2c1-6.5,2.3-12,3.9-16.5c1.6-4.5,3.4-6.9,5.3-7.2
			c1.3-0.2,2.4,0.9,3.4,3.2c1,2.4,1.6,5.6,1.9,9.6c0.3,4,0.3,8.5,0,13.5c-0.3,5-1,10-2.1,15c-1.1,5-2.7,9.7-4.7,14.1
			c-2,4.4-4.5,8-7.6,10.7C194.3,550.2,193.7,543.1,193.8,535.5z M703.4,548.3c0,0.1-0.1,0.1-0.2,0.2c-1.8,0.5-3.6,1-5.4,1.6
			c-0.1,0-0.2,0-0.3,0c-0.1,0-0.2-0.1-0.2-0.2c-0.1-0.3-0.2-0.6-0.3-0.9c0-0.1,0-0.2,0-0.3c0.1-0.1,0.1-0.1,0.2-0.2
			c0.3-0.1,0.5-0.2,0.8-0.2c0.1,0,0.2-0.1,0.2-0.1c0-0.1,0-0.1-0.1-0.2c-0.3-0.2-0.6-0.5-0.9-0.7c-0.1-0.1-0.2-0.1-0.3-0.1
			c-0.1,0-0.2,0-0.4,0c-1.6,0.5-3.3,0.9-4.9,1.4c-0.1,0-0.2,0.1-0.3,0.2c-0.1,0.1-0.1,0.2-0.2,0.3c-0.1,0.3-0.2,0.7-0.3,1
			c0,0.1,0,0.2,0,0.2c0.1,0,0.1,0.1,0.2,0c0.3-0.1,0.5-0.1,0.8-0.2c0.1,0,0.2,0,0.3,0c0.1,0,0.2,0.1,0.2,0.2
			c0.1,0.3,0.2,0.6,0.3,0.9c0,0.1,0,0.2,0,0.3c0,0.1-0.1,0.1-0.2,0.2c-1.8,0.5-3.6,1-5.4,1.5c-0.1,0-0.2,0-0.3,0
			c-0.1,0-0.2-0.1-0.2-0.2c-0.1-0.3-0.2-0.6-0.3-0.9c0-0.1,0-0.2,0-0.3c0.1-0.1,0.1-0.1,0.2-0.2c0.6-0.2,1.2-0.3,1.8-0.5
			c0.1,0,0.2-0.1,0.3-0.2c0.1-0.1,0.1-0.2,0.2-0.3c0.5-2.1,1.1-4.2,1.6-6.3c0-0.1,0-0.2,0-0.2c-0.1,0-0.1-0.1-0.2,0
			c-0.2,0.1-0.5,0.1-0.7,0.2c-0.1,0-0.2,0-0.3,0c-0.1,0-0.1-0.1-0.2-0.2c-0.1-0.3-0.2-0.6-0.3-0.9c0-0.1,0-0.2,0-0.3
			c0-0.1,0.1-0.1,0.2-0.2c2-0.6,4-1.1,6.1-1.7c0.1,0,0.2,0,0.3,0c0.1,0,0.2,0.1,0.2,0.2c0.1,0.3,0.2,0.6,0.3,0.9c0,0.1,0,0.2,0,0.3
			c0,0.1-0.1,0.1-0.2,0.2c-0.2,0.1-0.5,0.1-0.7,0.2c-0.1,0-0.2,0.1-0.2,0.1c0,0.1,0,0.1,0.1,0.2c1.7,1.5,3.4,2.9,5.2,4.3
			c0.1,0.1,0.2,0.1,0.3,0.1c0.1,0,0.2,0,0.3,0c0.6-0.2,1.2-0.4,1.8-0.5c0.1,0,0.2,0,0.3,0c0.1,0,0.2,0.1,0.2,0.2
			c0.1,0.3,0.2,0.6,0.3,0.9C703.5,548.1,703.4,548.2,703.4,548.3z M718.2,542.5c-0.3,0.5-0.7,1-1,1.5c-0.1,0.1-0.1,0.2-0.3,0.2
			c-0.1,0.1-0.2,0.1-0.3,0.2c-2.4,0.8-4.9,1.5-7.3,2.3c-0.1,0-0.2,0-0.4,0c-0.1,0-0.3,0-0.4,0c-0.6-0.2-1.2-0.4-1.8-0.6
			c-0.1,0-0.2-0.1-0.3-0.2c-0.1-0.1-0.2-0.2-0.2-0.3c-0.6-1.8-1.3-3.6-1.9-5.4c0-0.1-0.1-0.2-0.2-0.2c-0.1,0-0.2,0-0.3,0
			c-0.5,0.1-1,0.3-1.4,0.4c-0.1,0-0.2,0-0.3,0c-0.1,0-0.2-0.1-0.2-0.2c-0.1-0.3-0.2-0.6-0.3-0.9c0-0.1,0-0.2,0-0.3
			c0-0.1,0.1-0.1,0.2-0.2c1.8-0.5,3.5-1.1,5.3-1.6c0.1,0,0.2,0,0.3,0c0.1,0,0.2,0.1,0.2,0.2c0.1,0.3,0.2,0.6,0.3,0.9
			c0,0.1,0,0.2,0,0.3c0,0.1-0.1,0.1-0.2,0.2c-0.5,0.1-1,0.3-1.4,0.4c-0.1,0-0.2,0.1-0.2,0.2c0,0.1-0.1,0.2,0,0.3
			c0.5,1.5,1.1,3,1.6,4.6c0,0.1,0.1,0.2,0.2,0.3c0.1,0.1,0.2,0.1,0.3,0.2c0.1,0,0.3,0.1,0.4,0.1c0.1,0,0.2,0,0.4,0
			c0.1,0,0.3,0,0.4,0c2.1-0.6,4.1-1.3,6.2-1.9c0.1,0,0.2-0.1,0.3-0.2c0.1-0.1,0.2-0.2,0.3-0.2c0.1-0.1,0.1-0.2,0.2-0.3
			c0.1-0.1,0.1-0.2,0.1-0.3c0-0.1,0-0.2,0-0.3c-0.6-1.5-1.1-3-1.7-4.5c0-0.1-0.1-0.2-0.2-0.2c-0.1,0-0.2,0-0.3,0
			c-0.5,0.2-0.9,0.3-1.4,0.5c-0.1,0-0.2,0-0.3,0c-0.1,0-0.2-0.1-0.2-0.2c-0.1-0.3-0.2-0.6-0.3-0.9c0-0.1,0-0.2,0-0.3
			c0-0.1,0.1-0.1,0.2-0.2c1.7-0.6,3.5-1.1,5.2-1.7c0.1,0,0.2,0,0.3,0c0.1,0,0.1,0.1,0.2,0.2c0.1,0.3,0.2,0.6,0.3,0.9
			c0,0.1,0,0.2,0,0.3c0,0.1-0.1,0.1-0.2,0.2c-0.5,0.2-1,0.3-1.4,0.5c-0.1,0-0.2,0.1-0.2,0.2c0,0.1-0.1,0.2,0,0.3
			c0.7,1.8,1.3,3.5,2,5.3c0,0.1,0,0.2,0,0.3C718.3,542.3,718.3,542.4,718.2,542.5z M734.8,536.9c-0.3,0.5-0.7,1-1,1.5
			c-0.1,0.1-0.1,0.2-0.2,0.2c-0.1,0.1-0.2,0.1-0.3,0.2c-2.7,1-5.5,1.9-8.2,2.8c-0.1,0-0.2,0.1-0.4,0.1c-0.1,0-0.3,0-0.4,0
			c-0.6-0.1-1.2-0.2-1.8-0.4c-0.1,0-0.2-0.1-0.3-0.1c-0.1-0.1-0.1-0.2-0.1-0.3c0.1-0.3,0.1-0.6,0.2-0.9c0-0.1,0.1-0.2,0.2-0.2
			c0.1-0.1,0.2-0.1,0.3-0.1c0.4,0.1,0.9,0.2,1.3,0.3c0.1,0,0.2,0,0.4,0c0.1,0,0.3,0,0.4-0.1c2.4-0.8,4.8-1.6,7.2-2.5
			c0.1,0,0.2-0.1,0.3-0.2c0.1-0.1,0.2-0.2,0.2-0.2c0.1-0.1,0.1-0.2,0.2-0.3c0.1-0.1,0.1-0.2,0.1-0.3c0-0.1,0-0.2,0-0.3
			c0-0.1-0.1-0.1-0.1-0.2c0-0.1-0.1-0.2-0.2-0.3c-0.1-0.1-0.2-0.1-0.3-0.2c-0.1,0-0.3-0.1-0.4-0.1c-0.1,0-0.2,0-0.4,0
			c-0.1,0-0.2,0-0.3,0.1c-2.6,0.9-5.1,1.8-7.7,2.6c-0.1,0-0.2,0-0.4,0c-0.1,0-0.3,0-0.4,0c-0.6-0.2-1.2-0.4-1.8-0.5
			c-0.1,0-0.2-0.1-0.3-0.2c-0.1-0.1-0.2-0.2-0.2-0.3c-0.2-0.6-0.4-1.2-0.7-1.8c0-0.1,0-0.2,0-0.3c0-0.1,0.1-0.2,0.1-0.3
			c0.3-0.5,0.7-1,1-1.5c0.1-0.1,0.1-0.2,0.3-0.2c0.1-0.1,0.2-0.1,0.3-0.2c2.8-0.9,5.6-1.9,8.4-2.8c0.1,0,0.2-0.1,0.4-0.1
			c0.1,0,0.3,0,0.4,0c0.5,0.1,1,0.2,1.5,0.3c0.1,0,0.2,0.1,0.2,0.1c0.1,0.1,0.1,0.2,0.1,0.3c-0.1,0.3-0.1,0.6-0.2,0.9
			c0,0.1-0.1,0.2-0.2,0.2c-0.1,0.1-0.2,0.1-0.3,0.1c-0.3-0.1-0.7-0.1-1-0.2c-0.1,0-0.2,0-0.4,0c-0.1,0-0.3,0-0.4,0.1
			c-2.4,0.8-4.9,1.7-7.4,2.5c-0.1,0-0.2,0.1-0.3,0.2c-0.1,0.1-0.2,0.2-0.3,0.2c-0.1,0.1-0.1,0.2-0.2,0.3c-0.1,0.1-0.1,0.2-0.1,0.3
			c0,0.1,0,0.2,0,0.3c0,0.1,0.1,0.2,0.1,0.2c0,0.1,0.1,0.2,0.2,0.3c0.1,0.1,0.2,0.1,0.3,0.2c0.1,0,0.3,0.1,0.4,0.1
			c0.1,0,0.2,0,0.4,0c0.1,0,0.3,0,0.4,0c2.6-0.9,5.1-1.7,7.7-2.6c0.1,0,0.2-0.1,0.4-0.1c0.1,0,0.3,0,0.4,0c0.6,0.2,1.2,0.3,1.8,0.5
			c0.1,0,0.2,0.1,0.3,0.2c0.1,0.1,0.2,0.2,0.2,0.3c0.2,0.6,0.5,1.2,0.7,1.8c0,0.1,0,0.2,0,0.3C734.9,536.7,734.8,536.8,734.8,536.9z
			 M747.6,526.3c0,0.1-0.1,0.2-0.2,0.2c-0.3,0.1-0.6,0.2-0.9,0.4c-0.1,0-0.2,0-0.3,0c-0.1,0-0.2-0.1-0.2-0.2c0-0.1-0.1-0.2-0.1-0.3
			c0-0.1-0.1-0.2-0.2-0.2c-0.1,0-0.2,0-0.3,0c-1.1,0.4-2.2,0.8-3.4,1.2c-0.1,0-0.2,0.1-0.2,0.2c0,0.1,0,0.2,0,0.3
			c0.7,1.7,1.4,3.4,2.1,5.1c0,0.1,0.1,0.2,0.2,0.2c0.1,0,0.2,0,0.3,0c0.5-0.2,0.9-0.3,1.4-0.5c0.1,0,0.2,0,0.3,0
			c0.1,0,0.2,0.1,0.2,0.2c0.1,0.3,0.2,0.6,0.4,0.9c0,0.1,0,0.2,0,0.3c0,0.1-0.1,0.2-0.2,0.2c-1.7,0.6-3.4,1.3-5.1,1.9
			c-0.1,0-0.2,0-0.3,0c-0.1,0-0.2-0.1-0.2-0.2c-0.1-0.3-0.2-0.6-0.4-0.9c0-0.1,0-0.2,0-0.3c0-0.1,0.1-0.2,0.2-0.2
			c0.5-0.2,0.9-0.3,1.4-0.5c0.1,0,0.2-0.1,0.2-0.2c0-0.1,0-0.2,0-0.3c-0.7-1.7-1.4-3.4-2.1-5.1c0-0.1-0.1-0.2-0.2-0.2
			c-0.1,0-0.2,0-0.3,0c-1.1,0.4-2.2,0.8-3.4,1.2c-0.1,0-0.2,0.1-0.2,0.2c0,0.1,0,0.2,0,0.3c0.1,0.1,0.1,0.3,0.2,0.4
			c0,0.1,0,0.2,0,0.3c0,0.1-0.1,0.2-0.2,0.2c-0.3,0.1-0.6,0.2-0.9,0.3c-0.1,0-0.2,0-0.3,0c-0.1,0-0.2-0.1-0.2-0.2
			c-0.3-0.6-0.5-1.3-0.8-1.9c0-0.1,0-0.2,0-0.3c0-0.1,0.1-0.1,0.2-0.2c4.1-1.5,8.2-3,12.2-4.5c0.1,0,0.2,0,0.3,0
			c0.1,0,0.2,0.1,0.2,0.2c0.3,0.6,0.5,1.2,0.8,1.9C747.6,526.1,747.6,526.2,747.6,526.3z M757.4,529.7c0,0.1-0.1,0.2-0.2,0.2
			c-1.7,0.7-3.4,1.3-5.1,2c-0.1,0-0.2,0-0.3,0c-0.1,0-0.2-0.1-0.2-0.2c-0.1-0.3-0.2-0.6-0.4-0.9c0-0.1,0-0.2,0-0.3
			c0-0.1,0.1-0.2,0.2-0.2c0.5-0.2,0.9-0.4,1.4-0.5c0.1,0,0.2-0.1,0.2-0.2c0-0.1,0-0.2,0-0.3c-0.7-1.7-1.4-3.4-2.1-5.1
			c0-0.1-0.1-0.2-0.2-0.2c-0.1,0-0.2,0-0.3,0c-0.5,0.2-0.9,0.4-1.4,0.5c-0.1,0-0.2,0-0.3,0c-0.1,0-0.2-0.1-0.2-0.2
			c-0.1-0.3-0.2-0.6-0.4-0.9c0-0.1,0-0.2,0-0.3c0-0.1,0.1-0.2,0.2-0.2c1.7-0.6,3.3-1.3,5-1.9c0.1,0,0.2,0,0.3,0
			c0.1,0,0.2,0.1,0.2,0.2c0.1,0.3,0.2,0.6,0.4,0.9c0,0.1,0,0.2,0,0.3c0,0.1-0.1,0.1-0.2,0.2c-0.5,0.2-0.9,0.4-1.4,0.5
			c-0.1,0-0.2,0.1-0.2,0.2c0,0.1,0,0.2,0,0.3c0.7,1.7,1.4,3.4,2.2,5.1c0,0.1,0.1,0.2,0.2,0.2c0.1,0,0.2,0,0.3,0
			c0.5-0.2,0.9-0.4,1.4-0.5c0.1,0,0.2,0,0.3,0c0.1,0,0.2,0.1,0.2,0.2c0.1,0.3,0.3,0.6,0.4,0.9C757.5,529.6,757.5,529.6,757.4,529.7z
			 M771.6,523.9c0,0.1-0.1,0.2-0.2,0.2c-0.2,0.1-0.5,0.2-0.7,0.3c-0.1,0-0.2,0.1-0.3,0.1c-0.1,0-0.3,0-0.4,0c-3.2-1-6.4-2-9.5-3
			c-0.1,0-0.2,0-0.2,0c0,0,0,0.1,0,0.2c0.6,1.4,1.2,2.8,1.8,4.2c0,0.1,0.1,0.2,0.2,0.2c0.1,0,0.2,0,0.3,0c0.5-0.2,1-0.4,1.5-0.6
			c0.1,0,0.2,0,0.3,0c0.1,0,0.2,0.1,0.2,0.2c0.1,0.3,0.3,0.6,0.4,0.8c0,0.1,0,0.2,0,0.3c0,0.1-0.1,0.2-0.2,0.2c-1.7,0.7-3.3,1.4-5,2
			c-0.1,0-0.2,0-0.3,0c-0.1,0-0.2-0.1-0.2-0.2c-0.1-0.3-0.2-0.6-0.4-0.9c0-0.1,0-0.2,0-0.3c0-0.1,0.1-0.2,0.2-0.2
			c0.4-0.2,0.8-0.3,1.2-0.5c0.1,0,0.2-0.1,0.2-0.2c0-0.1,0-0.2,0-0.3c-0.7-1.7-1.5-3.3-2.2-5c0-0.1-0.1-0.2-0.2-0.2
			c-0.1,0-0.2,0-0.3,0c-0.4,0.2-0.8,0.3-1.2,0.5c-0.1,0-0.2,0-0.3,0c-0.1,0-0.2-0.1-0.2-0.2c-0.1-0.3-0.2-0.6-0.4-0.9
			c0-0.1,0-0.2,0-0.3c0-0.1,0.1-0.2,0.2-0.2c0.8-0.3,1.6-0.6,2.4-1c0.1,0,0.2-0.1,0.3-0.1c0.1,0,0.2,0,0.3,0
			c3.2,1.1,6.5,2.1,9.8,3.1c0.1,0,0.2,0,0.2,0c0,0,0-0.1,0-0.2c-0.6-1.4-1.3-2.9-1.9-4.3c0-0.1-0.1-0.2-0.2-0.2c-0.1,0-0.2,0-0.3,0
			c-0.4,0.2-0.9,0.4-1.3,0.6c-0.1,0-0.2,0-0.3,0c-0.1,0-0.2-0.1-0.2-0.2c-0.1-0.3-0.2-0.6-0.4-0.8c0-0.1,0-0.2,0-0.3
			c0-0.1,0.1-0.2,0.2-0.2c1.6-0.7,3.3-1.4,4.9-2.1c0.1,0,0.2,0,0.3,0c0.1,0,0.2,0.1,0.2,0.2c0.1,0.3,0.3,0.6,0.4,0.8
			c0,0.1,0,0.2,0,0.3c0,0.1-0.1,0.2-0.2,0.2c-0.4,0.2-0.9,0.4-1.3,0.6c-0.1,0-0.2,0.1-0.2,0.2c0,0.1,0,0.2,0,0.3
			c1,2.2,1.9,4.3,2.9,6.5C771.7,523.7,771.7,523.8,771.6,523.9z M777,522.1c-0.1,0.2-0.1,0.5-0.2,0.7c0,0.1-0.1,0.2-0.2,0.3
			c-0.1,0.1-0.2,0.2-0.3,0.2c-0.1,0-0.2,0.1-0.2,0.1c-0.1,0-0.2,0-0.3,0c-0.1,0-0.2-0.1-0.2-0.2c-0.1-0.1-0.1-0.3-0.2-0.4
			c-0.1-0.2-0.2-0.4-0.3-0.6c-0.1-0.3-0.3-0.6-0.4-0.8c0-0.1,0-0.2,0-0.3c0-0.1,0.1-0.2,0.2-0.2c0.3-0.1,0.7-0.3,1-0.4
			c0.1,0,0.2,0,0.3,0c0.1,0,0.2,0.1,0.2,0.2c0.1,0.3,0.3,0.6,0.4,0.8c0,0.1,0.1,0.2,0.1,0.3C777,521.9,777,522,777,522.1z
			 M794.5,506.3c0,0.1-0.1,0.2-0.2,0.2c-0.3,0.1-0.6,0.3-0.9,0.4c-0.1,0-0.2,0-0.3,0c-0.1,0-0.2-0.1-0.2-0.2
			c-0.1-0.1-0.1-0.2-0.2-0.3c0-0.1-0.1-0.2-0.2-0.2c-0.1,0-0.2,0-0.3,0c-1.1,0.5-2.1,1-3.2,1.5c-0.1,0-0.2,0.1-0.2,0.2
			c0,0.1,0,0.2,0,0.3c0.8,1.6,1.6,3.3,2.4,4.9c0,0.1,0.1,0.2,0.2,0.2c0.1,0,0.2,0,0.3,0c0.4-0.2,0.9-0.4,1.3-0.6c0.1,0,0.2,0,0.3,0
			c0.1,0,0.2,0.1,0.2,0.2c0.1,0.3,0.3,0.6,0.4,0.8c0,0.1,0,0.2,0,0.3c0,0.1-0.1,0.2-0.2,0.2c-1.6,0.8-3.2,1.5-4.9,2.2
			c-0.1,0-0.2,0-0.3,0c-0.1,0-0.2-0.1-0.2-0.2c-0.1-0.3-0.3-0.6-0.4-0.8c0-0.1,0-0.2,0-0.3c0-0.1,0.1-0.2,0.2-0.2
			c0.4-0.2,0.9-0.4,1.3-0.6c0.1,0,0.2-0.1,0.2-0.2c0-0.1,0-0.2,0-0.3c-0.8-1.6-1.6-3.3-2.4-4.9c0-0.1-0.1-0.2-0.2-0.2
			c-0.1,0-0.2,0-0.3,0c-1.1,0.5-2.1,1-3.2,1.4c-0.1,0-0.2,0.1-0.2,0.2c0,0.1,0,0.2,0,0.3c0.1,0.1,0.1,0.2,0.2,0.4c0,0.1,0,0.2,0,0.3
			c0,0.1-0.1,0.2-0.2,0.2c-0.3,0.1-0.6,0.3-0.9,0.4c-0.1,0-0.2,0-0.3,0c-0.1,0-0.2-0.1-0.2-0.2c-0.3-0.6-0.6-1.3-0.9-1.9
			c0-0.1,0-0.2,0-0.3c0-0.1,0.1-0.2,0.2-0.2c3.9-1.7,7.7-3.5,11.6-5.3c0.1,0,0.2-0.1,0.3,0c0.1,0,0.2,0.1,0.2,0.2
			c0.3,0.6,0.6,1.2,0.9,1.8C794.5,506.1,794.5,506.2,794.5,506.3z M813.2,504.6c0,0.1-0.1,0.2-0.2,0.2c-1.6,0.8-3.1,1.6-4.7,2.4
			c-0.1,0-0.2,0.1-0.3,0c-0.1,0-0.2-0.1-0.2-0.2c-0.1-0.3-0.3-0.6-0.4-0.8c0-0.1-0.1-0.2,0-0.3c0-0.1,0.1-0.2,0.2-0.2
			c0.3-0.1,0.6-0.3,0.9-0.4c0.1,0,0.1-0.1,0.1-0.1c0,0-0.1-0.1-0.2-0.1c-1.2-0.1-2.4-0.2-3.6-0.3c-0.1,0-0.2,0-0.3,0.1
			c-0.1,0.1-0.2,0.1-0.2,0.2c-0.6,1-1.3,2-1.9,3c0,0.1-0.1,0.1,0,0.2c0,0,0.1,0,0.2,0c0.3-0.1,0.6-0.3,0.9-0.4c0.1,0,0.2,0,0.3,0
			c0.1,0,0.2,0.1,0.2,0.2c0.1,0.3,0.3,0.6,0.4,0.8c0,0.1,0.1,0.2,0,0.3c0,0.1-0.1,0.2-0.2,0.2c-1.6,0.8-3.2,1.6-4.8,2.3
			c-0.1,0-0.2,0.1-0.3,0c-0.1,0-0.2-0.1-0.2-0.2c-0.1-0.3-0.3-0.6-0.4-0.8c0-0.1-0.1-0.2,0-0.3c0-0.1,0.1-0.2,0.2-0.2
			c0.3-0.1,0.5-0.3,0.8-0.4c0.1,0,0.2-0.1,0.3-0.2c0.1-0.1,0.2-0.2,0.2-0.3c0.9-1.4,1.8-2.9,2.8-4.4c0.1-0.1,0.1-0.2,0-0.2
			c0-0.1-0.1-0.1-0.2-0.1c-1.7-0.2-3.4-0.3-5.2-0.5c-0.1,0-0.2,0-0.3,0c-0.1,0-0.2,0.1-0.3,0.1c-0.3,0.1-0.5,0.3-0.8,0.4
			c-0.1,0-0.2,0-0.3,0c-0.1,0-0.2-0.1-0.2-0.2c-0.1-0.3-0.3-0.6-0.4-0.9c0-0.1,0-0.2,0-0.3c0-0.1,0.1-0.2,0.2-0.2
			c1.6-0.8,3.2-1.5,4.7-2.3c0.1,0,0.2-0.1,0.3,0c0.1,0,0.2,0.1,0.2,0.2c0.1,0.3,0.3,0.6,0.4,0.9c0,0.1,0.1,0.2,0,0.3
			c0,0.1-0.1,0.2-0.2,0.2c-0.3,0.1-0.6,0.3-0.9,0.4c-0.1,0-0.1,0.1-0.1,0.1c0,0,0.1,0.1,0.2,0.1c1.2,0.1,2.4,0.2,3.6,0.3
			c0.1,0,0.2,0,0.3-0.1c0.1-0.1,0.2-0.1,0.2-0.2c0.6-1,1.2-2,1.9-3c0-0.1,0.1-0.1,0-0.2c0,0-0.1,0-0.2,0c-0.3,0.1-0.6,0.3-0.8,0.4
			c-0.1,0-0.2,0.1-0.3,0c-0.1,0-0.2-0.1-0.2-0.2c-0.1-0.3-0.3-0.6-0.4-0.9c0-0.1,0-0.2,0-0.3c0-0.1,0.1-0.2,0.2-0.2
			c1.6-0.8,3.1-1.6,4.7-2.4c0.1,0,0.2-0.1,0.3,0c0.1,0,0.2,0.1,0.2,0.2c0.1,0.3,0.3,0.6,0.4,0.8c0,0.1,0.1,0.2,0,0.3
			c0,0.1-0.1,0.2-0.2,0.2c-0.3,0.1-0.5,0.3-0.8,0.4c-0.1,0-0.2,0.1-0.3,0.2c-0.1,0.1-0.2,0.2-0.2,0.3c-0.9,1.5-1.8,2.9-2.7,4.4
			c-0.1,0.1-0.1,0.2,0,0.2c0,0.1,0.1,0.1,0.2,0.1c1.7,0.1,3.4,0.3,5.2,0.4c0.1,0,0.2,0,0.3,0c0.1,0,0.2-0.1,0.3-0.1
			c0.3-0.1,0.5-0.3,0.8-0.4c0.1,0,0.2-0.1,0.3,0c0.1,0,0.2,0.1,0.2,0.2c0.1,0.3,0.3,0.6,0.4,0.8
			C813.2,504.4,813.2,504.5,813.2,504.6z"/>
	</g>
</g>
</svg>
