<?xml version="1.0" encoding="utf-8"?>
<!-- Generator: Adobe Illustrator 19.1.0, SVG Export Plug-In . SVG Version: 6.00 Build 0)  -->
<!DOCTYPE svg PUBLIC "-//W3C//DTD SVG 1.1//EN" "http://www.w3.org/Graphics/SVG/1.1/DTD/svg11.dtd">
<svg version="1.1" id="Layer_1" xmlns="http://www.w3.org/2000/svg" xmlns:xlink="http://www.w3.org/1999/xlink" x="0px" y="0px"
	 viewBox="-541 845.4 284.4 110.6" style="enable-background:new -541 845.4 284.4 110.6;" xml:space="preserve">
<g>
	<path d="M-494.7,904.4c3.2,0,5.9,0.5,8.1,1.4c2.2,0.9,4,2.1,5.4,3.7c1.4,1.5,2.4,3.2,3.1,5.2c0.6,1.9,1,4,1,6s-0.3,4-1,6
		c-0.6,2-1.7,3.7-3.1,5.2c-1.4,1.5-3.2,2.7-5.4,3.7c-2.2,0.9-4.9,1.4-8.1,1.4h-11.7v18.2h-11.2v-50.8H-494.7z M-497.7,928.3
		c1.3,0,2.5-0.1,3.7-0.3c1.2-0.2,2.2-0.6,3.1-1.1s1.6-1.3,2.2-2.3c0.5-1,0.8-2.3,0.8-3.9c0-1.6-0.3-2.9-0.8-3.9s-1.3-1.8-2.2-2.3
		s-1.9-0.9-3.1-1.1s-2.4-0.3-3.7-0.3h-8.7v15.2L-497.7,928.3L-497.7,928.3z"/>
	<path d="M-475.5,928.8c0.9-2.4,2.2-4.4,3.8-6.1c1.7-1.7,3.6-3,6-3.9c2.3-0.9,4.9-1.4,7.8-1.4s5.5,0.5,7.9,1.4
		c2.3,0.9,4.3,2.2,6,3.9c1.7,1.7,2.9,3.7,3.8,6.1c0.9,2.4,1.4,5.1,1.4,8c0,2.9-0.5,5.6-1.4,8c-0.9,2.4-2.2,4.4-3.8,6.1
		c-1.7,1.7-3.7,3-6,3.9c-2.3,0.9-5,1.4-7.9,1.4s-5.5-0.4-7.8-1.4c-2.3-0.9-4.3-2.2-6-3.9c-1.7-1.7-2.9-3.7-3.8-6.1
		c-0.9-2.4-1.4-5-1.4-8S-476.4,931.2-475.5,928.8 M-466.3,941.1c0.3,1.4,0.8,2.7,1.5,3.8c0.7,1.1,1.6,2,2.7,2.7s2.6,1,4.3,1
		c1.7,0,3.1-0.3,4.3-1s2.1-1.5,2.8-2.7c0.7-1.1,1.2-2.4,1.5-3.8c0.3-1.4,0.4-2.8,0.4-4.3s-0.1-2.9-0.4-4.3c-0.3-1.4-0.8-2.7-1.5-3.8
		c-0.7-1.1-1.6-2-2.8-2.7c-1.2-0.7-2.6-1-4.3-1c-1.7,0-3.1,0.3-4.3,1c-1.1,0.7-2.1,1.6-2.7,2.7c-0.7,1.1-1.2,2.3-1.5,3.8
		c-0.3,1.4-0.4,2.9-0.4,4.3C-466.8,938.3-466.6,939.7-466.3,941.1"/>
	<path d="M-415.1,918.4v6.8h-7.4v18.2c0,1.7,0.3,2.8,0.9,3.4c0.6,0.6,1.7,0.9,3.4,0.9c0.6,0,1.1,0,1.6-0.1c0.5,0,1-0.1,1.5-0.2v7.8
		c-0.9,0.1-1.8,0.2-2.8,0.3c-1,0-2.1,0.1-3.1,0.1c-1.6,0-3-0.1-4.4-0.3s-2.6-0.6-3.7-1.2s-1.9-1.5-2.5-2.6c-0.6-1.1-0.9-2.6-0.9-4.5
		v-21.9h-6.1v-6.7h6.1v-11h10.1v11H-415.1z"/>
	<path d="M-400.2,946.3c1.5,1.5,3.7,2.2,6.5,2.2c2,0,3.8-0.5,5.3-1.5s2.4-2.1,2.7-3.2h8.9c-1.4,4.4-3.6,7.6-6.5,9.5
		c-2.9,1.9-6.5,2.8-10.7,2.8c-2.9,0-5.5-0.5-7.8-1.4c-2.3-0.9-4.3-2.2-5.9-3.9c-1.6-1.7-2.9-3.7-3.7-6.1c-0.9-2.4-1.3-5-1.3-7.8
		c0-2.7,0.4-5.3,1.3-7.7c0.9-2.4,2.2-4.4,3.8-6.1c1.7-1.7,3.6-3.1,5.9-4.1c2.3-1,4.8-1.5,7.6-1.5c3.1,0,5.8,0.6,8.2,1.8
		c2.3,1.2,4.2,2.8,5.7,4.9c1.5,2,2.6,4.4,3.2,7c0.7,2.6,0.9,5.3,0.7,8.2h-26.5C-402.6,942.5-401.8,944.8-400.2,946.3 M-388.8,927
		c-1.2-1.3-3-2-5.5-2c-1.6,0-2.9,0.3-4,0.8c-1.1,0.5-1.9,1.2-2.6,2c-0.6,0.8-1.1,1.7-1.4,2.6c-0.3,0.9-0.4,1.7-0.5,2.4h16.4
		C-386.8,930.2-387.6,928.3-388.8,927"/>
	<path d="M-363,946c0.4,0.8,1,1.4,1.7,1.9c0.7,0.5,1.5,0.9,2.5,1.1c0.9,0.2,1.9,0.4,2.9,0.4c0.7,0,1.5-0.1,2.2-0.2
		c0.8-0.2,1.5-0.4,2.1-0.8s1.2-0.8,1.6-1.4c0.4-0.6,0.6-1.3,0.6-2.2c0-1.5-1-2.7-3-3.4c-2-0.8-4.8-1.5-8.4-2.3
		c-1.5-0.3-2.9-0.7-4.3-1.2c-1.4-0.4-2.6-1-3.7-1.8c-1.1-0.7-2-1.7-2.6-2.8c-0.7-1.1-1-2.5-1-4.1c0-2.4,0.5-4.3,1.4-5.8
		s2.1-2.7,3.7-3.6c1.5-0.9,3.2-1.5,5.1-1.8c1.9-0.4,3.8-0.5,5.8-0.5s3.9,0.2,5.8,0.6c1.9,0.4,3.5,1,5,1.9c1.5,0.9,2.7,2.1,3.7,3.6
		s1.5,3.4,1.7,5.6h-9.6c-0.1-1.9-0.9-3.3-2.2-3.9c-1.3-0.7-2.9-1-4.7-1c-0.6,0-1.2,0-1.8,0.1c-0.7,0.1-1.3,0.2-1.8,0.5
		c-0.5,0.2-1,0.6-1.4,1c-0.4,0.5-0.6,1.1-0.6,1.8c0,0.9,0.3,1.6,1,2.2c0.7,0.6,1.5,1,2.6,1.4c1.1,0.4,2.3,0.7,3.7,1
		c1.4,0.3,2.8,0.6,4.2,0.9c1.5,0.3,2.9,0.7,4.3,1.2c1.4,0.5,2.6,1.1,3.7,1.9c1.1,0.8,2,1.8,2.6,2.9c0.7,1.2,1,2.6,1,4.3
		c0,2.4-0.5,4.4-1.5,6.1c-1,1.6-2.2,2.9-3.8,3.9s-3.4,1.7-5.4,2.1c-2,0.4-4.1,0.6-6.1,0.6c-2.1,0-4.2-0.2-6.3-0.6
		c-2-0.4-3.8-1.1-5.4-2.1c-1.6-1-2.9-2.3-3.9-3.9c-1-1.6-1.6-3.7-1.7-6.1h9.6C-363.7,944.3-363.5,945.2-363,946"/>
	<path d="M-314.4,918.4v6.8h-7.4v18.2c0,1.7,0.3,2.8,0.9,3.4c0.6,0.6,1.7,0.9,3.4,0.9c0.6,0,1.1,0,1.6-0.1c0.5,0,1-0.1,1.5-0.2v7.8
		c-0.9,0.1-1.8,0.2-2.8,0.3c-1,0-2.1,0.1-3.1,0.1c-1.6,0-3-0.1-4.4-0.3c-1.4-0.2-2.6-0.6-3.7-1.2s-1.9-1.5-2.5-2.6
		c-0.6-1.1-0.9-2.6-0.9-4.5v-21.9h-6.2v-6.7h6.1v-11h10.1v11H-314.4z"/>
	<path d="M-308.8,904.4h10.1v8.3h-10.1V904.4z M-298.7,955.1h-10.1v-36.7h10.1V955.1z"/>
	<path d="M-293.3,928.8c0.9-2.4,2.2-4.4,3.8-6.1c1.7-1.7,3.6-3,6-3.9c2.3-0.9,4.9-1.4,7.8-1.4s5.5,0.5,7.9,1.4
		c2.3,0.9,4.3,2.2,6,3.9s2.9,3.7,3.8,6.1c0.9,2.4,1.4,5.1,1.4,8c0,2.9-0.4,5.6-1.4,8c-0.9,2.4-2.2,4.4-3.8,6.1c-1.7,1.7-3.7,3-6,3.9
		c-2.3,0.9-5,1.4-7.9,1.4s-5.5-0.4-7.8-1.4c-2.3-0.9-4.3-2.2-6-3.9s-2.9-3.7-3.8-6.1c-0.9-2.4-1.4-5-1.4-8
		C-294.6,933.8-294.2,931.2-293.3,928.8 M-284.1,941.1c0.3,1.4,0.8,2.7,1.5,3.8s1.6,2,2.7,2.7s2.6,1,4.3,1c1.7,0,3.1-0.3,4.3-1
		c1.2-0.7,2.1-1.5,2.8-2.7c0.7-1.1,1.2-2.4,1.5-3.8c0.3-1.4,0.4-2.8,0.4-4.3s-0.1-2.9-0.4-4.3c-0.3-1.4-0.8-2.7-1.5-3.8
		c-0.7-1.1-1.6-2-2.8-2.7c-1.2-0.7-2.6-1-4.3-1c-1.7,0-3.1,0.3-4.3,1c-1.1,0.7-2,1.6-2.7,2.7s-1.2,2.3-1.5,3.8
		c-0.3,1.4-0.4,2.9-0.4,4.3C-284.5,938.3-284.4,939.7-284.1,941.1"/>
	<polygon points="-535.1,898 -535.1,892.1 -531.9,892.1 -531.9,898 -526,898 -526,901.2 -531.9,901.2 -531.9,907.1 -535.1,907.1 
		-535.1,901.2 -541,901.2 -541,898 	"/>
	<polygon points="-501.9,845.4 -490,880.3 -489.9,880.3 -478.7,845.4 -463,845.4 -463,896.1 -473.4,896.1 -473.4,860.2 
		-473.6,860.2 -486,896.1 -494.6,896.1 -507,860.5 -507.2,860.5 -507.2,896.1 -517.6,896.1 -517.6,845.4 	"/>
	<path d="M-455.4,864.8c1-1.6,2.4-2.8,4-3.8c1.6-0.9,3.4-1.6,5.4-2c2-0.4,4-0.6,6.1-0.6c1.8,0,3.7,0.1,5.6,0.4
		c1.9,0.3,3.6,0.8,5.2,1.5c1.6,0.8,2.8,1.8,3.8,3.2c1,1.4,1.5,3.1,1.5,5.4V888c0,1.7,0.1,3.2,0.3,4.8c0.2,1.5,0.5,2.7,1,3.4h-10.2
		c-0.2-0.6-0.3-1.1-0.5-1.7c-0.1-0.6-0.2-1.2-0.2-1.8c-1.6,1.7-3.5,2.8-5.7,3.5c-2.2,0.7-4.4,1-6.7,1c-1.8,0-3.4-0.2-4.9-0.6
		c-1.5-0.4-2.8-1.1-4-2c-1.1-0.9-2-2-2.7-3.4c-0.6-1.4-1-3-1-4.9c0-2.1,0.4-3.8,1.1-5.2c0.7-1.4,1.7-2.4,2.8-3.2
		c1.2-0.8,2.5-1.4,4-1.8c1.5-0.4,3-0.7,4.5-1c1.5-0.2,3-0.4,4.5-0.6c1.5-0.1,2.8-0.4,3.9-0.6c1.1-0.3,2-0.7,2.7-1.2
		c0.7-0.5,1-1.3,0.9-2.4c0-1.1-0.2-2-0.5-2.6c-0.4-0.6-0.8-1.1-1.4-1.5c-0.6-0.4-1.3-0.6-2.1-0.7c-0.8-0.1-1.6-0.2-2.5-0.2
		c-2,0-3.6,0.4-4.7,1.3c-1.1,0.9-1.8,2.3-2,4.3h-10C-457,868.3-456.4,866.4-455.4,864.8 M-435.4,879c-0.6,0.2-1.3,0.4-2.1,0.5
		c-0.7,0.1-1.5,0.3-2.3,0.4c-0.8,0.1-1.6,0.2-2.4,0.4c-0.8,0.1-1.5,0.3-2.2,0.6c-0.7,0.2-1.4,0.6-1.9,1s-1,0.9-1.3,1.5
		s-0.5,1.4-0.5,2.3c0,0.9,0.2,1.7,0.5,2.3c0.3,0.6,0.8,1.1,1.4,1.5c0.6,0.4,1.2,0.6,2,0.7c0.8,0.1,1.5,0.2,2.3,0.2
		c2,0,3.5-0.3,4.6-1c1.1-0.7,1.9-1.5,2.4-2.4c0.5-0.9,0.8-1.9,1-2.8c0.1-0.9,0.2-1.7,0.2-2.3v-3.8
		C-434.3,878.5-434.8,878.8-435.4,879"/>
	<path d="M-397.8,859.4v6.8h-7.4v18.2c0,1.7,0.3,2.8,0.9,3.4c0.6,0.6,1.7,0.9,3.4,0.9c0.6,0,1.1,0,1.6-0.1c0.5,0,1-0.1,1.5-0.2v7.8
		c-0.9,0.1-1.8,0.2-2.8,0.3c-1,0-2.1,0.1-3.1,0.1c-1.6,0-3-0.1-4.4-0.3c-1.4-0.2-2.6-0.6-3.7-1.2c-1.1-0.6-1.9-1.5-2.5-2.6
		c-0.6-1.1-0.9-2.6-0.9-4.5v-21.9h-6.1v-6.7h6.1v-11h10.1v11H-397.8z"/>
	<path d="M-382.8,845.4v19.1h0.2c1.3-2.1,2.9-3.7,4.9-4.7s3.9-1.5,5.8-1.5c2.7,0,4.9,0.4,6.6,1.1c1.7,0.7,3.1,1.8,4.1,3.1
		c1,1.3,1.7,2.9,2.1,4.8c0.4,1.9,0.6,3.9,0.6,6.2v22.6h-10.1v-20.7c0-3-0.5-5.3-1.4-6.8c-0.9-1.5-2.6-2.2-5-2.2
		c-2.8,0-4.7,0.8-6,2.5c-1.2,1.6-1.8,4.3-1.8,8.1v19.3h-10.1v-50.9H-382.8z"/>
	<path d="M-339.5,907.1c-1.9,1.3-4.6,1.9-8.1,1.9c-1,0-2.1,0-3.1-0.1s-2-0.2-3.1-0.2v-8.3c0.9,0.1,1.9,0.2,2.9,0.3
		c1,0.1,2,0.1,3,0.1c1.3-0.1,2.3-0.7,3-1.6c0.6-0.9,1-1.9,1-3c0-0.8-0.1-1.6-0.4-2.3l-12.9-34.5h10.7l8.3,25.2h0.1l8-25.2h10.4
		l-15.3,41.3C-336,903.7-337.5,905.8-339.5,907.1"/>
	<path d="M-309.4,887c0.4,0.8,1,1.4,1.7,1.9c0.7,0.5,1.5,0.9,2.5,1.1c0.9,0.2,1.9,0.4,2.9,0.4c0.7,0,1.5-0.1,2.2-0.2
		c0.8-0.2,1.5-0.4,2.1-0.8s1.2-0.8,1.6-1.4c0.4-0.6,0.6-1.3,0.6-2.2c0-1.5-1-2.7-3-3.4c-2-0.8-4.8-1.5-8.4-2.3
		c-1.5-0.3-2.9-0.7-4.3-1.2c-1.4-0.5-2.6-1-3.7-1.8c-1.1-0.7-2-1.7-2.6-2.8c-0.7-1.1-1-2.5-1-4.1c0-2.4,0.5-4.3,1.4-5.8
		s2.1-2.7,3.7-3.6c1.5-0.9,3.2-1.5,5.1-1.8c1.9-0.4,3.8-0.5,5.8-0.5s3.9,0.2,5.8,0.6c1.9,0.4,3.5,1,5,1.9c1.5,0.9,2.7,2.1,3.7,3.6
		s1.6,3.4,1.7,5.6h-9.6c-0.1-1.9-0.9-3.3-2.2-3.9c-1.3-0.7-2.9-1-4.7-1c-0.6,0-1.2,0-1.8,0.1c-0.7,0.1-1.3,0.2-1.8,0.5
		c-0.5,0.2-1,0.6-1.4,1c-0.4,0.5-0.6,1.1-0.6,1.8c0,0.9,0.3,1.6,1,2.2c0.7,0.6,1.5,1,2.6,1.4c1.1,0.4,2.3,0.7,3.7,1
		c1.4,0.3,2.8,0.6,4.2,0.9c1.5,0.3,2.9,0.7,4.3,1.2s2.6,1.1,3.7,1.9c1.1,0.8,2,1.8,2.6,2.9c0.7,1.2,1,2.6,1,4.3
		c0,2.4-0.5,4.4-1.5,6.1c-1,1.6-2.2,2.9-3.8,3.9s-3.4,1.7-5.4,2.1c-2,0.4-4.1,0.6-6.1,0.6c-2.1,0-4.2-0.2-6.3-0.6
		c-2-0.4-3.9-1.1-5.4-2.1c-1.6-1-2.9-2.3-3.9-3.9c-1-1.6-1.6-3.7-1.7-6.1h9.6C-310.1,885.3-309.9,886.2-309.4,887"/>
</g>
</svg>
