<?xml version="1.0" encoding="utf-8"?>
<!-- Generator: Adobe Illustrator 17.1.0, SVG Export Plug-In . SVG Version: 6.00 Build 0)  -->
<!DOCTYPE svg PUBLIC "-//W3C//DTD SVG 1.1//EN" "http://www.w3.org/Graphics/SVG/1.1/DTD/svg11.dtd">
<svg version="1.1" id="Layer_1" xmlns="http://www.w3.org/2000/svg" xmlns:xlink="http://www.w3.org/1999/xlink" x="0px" y="0px"
	 viewBox="0 0 284.4 110.6" enable-background="new 0 0 284.4 110.6" xml:space="preserve">
<g>
	<path fill="#003E7E" d="M46.3,59c3.2,0,5.9,0.5,8.1,1.4c2.2,0.9,4,2.1,5.4,3.7c1.4,1.5,2.4,3.2,3.1,5.2c0.6,1.9,1,4,1,6
		c0,2-0.3,4-1,6c-0.6,2-1.7,3.7-3.1,5.2c-1.4,1.5-3.2,2.7-5.4,3.7c-2.2,0.9-4.9,1.4-8.1,1.4H34.6v18.2H23.4V59H46.3z M43.3,82.9
		c1.3,0,2.5-0.1,3.7-0.3c1.2-0.2,2.2-0.6,3.1-1.1c0.9-0.5,1.6-1.3,2.2-2.3c0.5-1,0.8-2.3,0.8-3.9c0-1.6-0.3-2.9-0.8-3.9
		c-0.5-1-1.3-1.8-2.2-2.3c-0.9-0.5-1.9-0.9-3.1-1.1c-1.2-0.2-2.4-0.3-3.7-0.3h-8.7v15.2H43.3z"/>
	<path fill="#003E7E" d="M65.5,83.4c0.9-2.4,2.2-4.4,3.8-6.1c1.7-1.7,3.6-3,6-3.9c2.3-0.9,4.9-1.4,7.8-1.4c2.9,0,5.5,0.5,7.9,1.4
		c2.3,0.9,4.3,2.2,6,3.9c1.7,1.7,2.9,3.7,3.8,6.1c0.9,2.4,1.4,5.1,1.4,8c0,2.9-0.5,5.6-1.4,8c-0.9,2.4-2.2,4.4-3.8,6.1
		c-1.7,1.7-3.7,3-6,3.9c-2.3,0.9-5,1.4-7.9,1.4c-2.9,0-5.5-0.4-7.8-1.4c-2.3-0.9-4.3-2.2-6-3.9c-1.7-1.7-2.9-3.7-3.8-6.1
		c-0.9-2.4-1.4-5-1.4-8C64.1,88.4,64.6,85.8,65.5,83.4 M74.7,95.7c0.3,1.4,0.8,2.7,1.5,3.8c0.7,1.1,1.6,2,2.7,2.7
		c1.1,0.7,2.6,1,4.3,1c1.7,0,3.1-0.3,4.3-1c1.2-0.7,2.1-1.5,2.8-2.7c0.7-1.1,1.2-2.4,1.5-3.8c0.3-1.4,0.4-2.8,0.4-4.3
		c0-1.5-0.1-2.9-0.4-4.3c-0.3-1.4-0.8-2.7-1.5-3.8c-0.7-1.1-1.6-2-2.8-2.7c-1.2-0.7-2.6-1-4.3-1c-1.7,0-3.1,0.3-4.3,1
		c-1.1,0.7-2.1,1.6-2.7,2.7c-0.7,1.1-1.2,2.3-1.5,3.8c-0.3,1.4-0.4,2.9-0.4,4.3C74.2,92.9,74.4,94.3,74.7,95.7"/>
	<path fill="#003E7E" d="M125.9,73v6.8h-7.4v18.2c0,1.7,0.3,2.8,0.9,3.4c0.6,0.6,1.7,0.9,3.4,0.9c0.6,0,1.1,0,1.6-0.1
		c0.5,0,1-0.1,1.5-0.2v7.8c-0.9,0.1-1.8,0.2-2.8,0.3c-1,0-2.1,0.1-3.1,0.1c-1.6,0-3-0.1-4.4-0.3c-1.4-0.2-2.6-0.6-3.7-1.2
		c-1.1-0.6-1.9-1.5-2.5-2.6c-0.6-1.1-0.9-2.6-0.9-4.5V79.7h-6.1V73h6.1V62h10.1v11H125.9z"/>
	<path fill="#003E7E" d="M140.8,100.9c1.5,1.5,3.7,2.2,6.5,2.2c2,0,3.8-0.5,5.3-1.5c1.5-1,2.4-2.1,2.7-3.2h8.9
		c-1.4,4.4-3.6,7.6-6.5,9.5c-2.9,1.9-6.5,2.8-10.7,2.8c-2.9,0-5.5-0.5-7.8-1.4c-2.3-0.9-4.3-2.2-5.9-3.9c-1.6-1.7-2.9-3.7-3.7-6.1
		c-0.9-2.4-1.3-5-1.3-7.8c0-2.7,0.4-5.3,1.3-7.7c0.9-2.4,2.2-4.4,3.8-6.1c1.7-1.7,3.6-3.1,5.9-4.1c2.3-1,4.8-1.5,7.6-1.5
		c3.1,0,5.8,0.6,8.2,1.8c2.3,1.2,4.2,2.8,5.7,4.9c1.5,2,2.6,4.4,3.2,7c0.7,2.6,0.9,5.3,0.7,8.2h-26.5
		C138.4,97.1,139.2,99.4,140.8,100.9 M152.2,81.6c-1.2-1.3-3-2-5.5-2c-1.6,0-2.9,0.3-4,0.8c-1.1,0.5-1.9,1.2-2.6,2
		c-0.6,0.8-1.1,1.7-1.4,2.6c-0.3,0.9-0.4,1.7-0.5,2.4h16.4C154.2,84.8,153.4,82.9,152.2,81.6"/>
	<path fill="#003E7E" d="M178,100.6c0.4,0.8,1,1.4,1.7,1.9c0.7,0.5,1.5,0.9,2.5,1.1c0.9,0.2,1.9,0.4,2.9,0.4c0.7,0,1.5-0.1,2.2-0.2
		c0.8-0.2,1.5-0.4,2.1-0.8c0.6-0.4,1.2-0.8,1.6-1.4c0.4-0.6,0.6-1.3,0.6-2.2c0-1.5-1-2.7-3-3.4c-2-0.8-4.8-1.5-8.4-2.3
		c-1.5-0.3-2.9-0.7-4.3-1.2c-1.4-0.4-2.6-1-3.7-1.8c-1.1-0.7-2-1.7-2.6-2.8c-0.7-1.1-1-2.5-1-4.1c0-2.4,0.5-4.3,1.4-5.8
		c0.9-1.5,2.1-2.7,3.7-3.6c1.5-0.9,3.2-1.5,5.1-1.8c1.9-0.4,3.8-0.5,5.8-0.5c2,0,3.9,0.2,5.8,0.6c1.9,0.4,3.5,1,5,1.9
		c1.5,0.9,2.7,2.1,3.7,3.6c1,1.5,1.5,3.4,1.7,5.6h-9.6c-0.1-1.9-0.9-3.3-2.2-3.9c-1.3-0.7-2.9-1-4.7-1c-0.6,0-1.2,0-1.8,0.1
		c-0.7,0.1-1.3,0.2-1.8,0.5c-0.5,0.2-1,0.6-1.4,1c-0.4,0.5-0.6,1.1-0.6,1.8c0,0.9,0.3,1.6,1,2.2c0.7,0.6,1.5,1,2.6,1.4
		c1.1,0.4,2.3,0.7,3.7,1c1.4,0.3,2.8,0.6,4.2,0.9c1.5,0.3,2.9,0.7,4.3,1.2c1.4,0.5,2.6,1.1,3.7,1.9c1.1,0.8,2,1.8,2.6,2.9
		c0.7,1.2,1,2.6,1,4.3c0,2.4-0.5,4.4-1.5,6.1c-1,1.6-2.2,2.9-3.8,3.9c-1.6,1-3.4,1.7-5.4,2.1c-2,0.4-4.1,0.6-6.1,0.6
		c-2.1,0-4.2-0.2-6.3-0.6c-2-0.4-3.8-1.1-5.4-2.1c-1.6-1-2.9-2.3-3.9-3.9c-1-1.6-1.6-3.7-1.7-6.1h9.6
		C177.3,98.9,177.5,99.8,178,100.6"/>
	<path fill="#003E7E" d="M226.6,73v6.8h-7.4v18.2c0,1.7,0.3,2.8,0.9,3.4c0.6,0.6,1.7,0.9,3.4,0.9c0.6,0,1.1,0,1.6-0.1
		c0.5,0,1-0.1,1.5-0.2v7.8c-0.9,0.1-1.8,0.2-2.8,0.3c-1,0-2.1,0.1-3.1,0.1c-1.6,0-3-0.1-4.4-0.3c-1.4-0.2-2.6-0.6-3.7-1.2
		c-1.1-0.6-1.9-1.5-2.5-2.6c-0.6-1.1-0.9-2.6-0.9-4.5V79.7H203V73h6.1V62h10.1v11H226.6z"/>
	<path fill="#003E7E" d="M232.2,59h10.1v8.3h-10.1V59z M242.3,109.7h-10.1V73h10.1V109.7z"/>
	<path fill="#003E7E" d="M247.7,83.4c0.9-2.4,2.2-4.4,3.8-6.1c1.7-1.7,3.6-3,6-3.9c2.3-0.9,4.9-1.4,7.8-1.4c2.9,0,5.5,0.5,7.9,1.4
		c2.3,0.9,4.3,2.2,6,3.9c1.7,1.7,2.9,3.7,3.8,6.1c0.9,2.4,1.4,5.1,1.4,8c0,2.9-0.4,5.6-1.4,8c-0.9,2.4-2.2,4.4-3.8,6.1
		c-1.7,1.7-3.7,3-6,3.9c-2.3,0.9-5,1.4-7.9,1.4c-2.9,0-5.5-0.4-7.8-1.4c-2.3-0.9-4.3-2.2-6-3.9c-1.7-1.7-2.9-3.7-3.8-6.1
		c-0.9-2.4-1.4-5-1.4-8C246.4,88.4,246.8,85.8,247.7,83.4 M256.9,95.7c0.3,1.4,0.8,2.7,1.5,3.8c0.7,1.1,1.6,2,2.7,2.7
		c1.1,0.7,2.6,1,4.3,1c1.7,0,3.1-0.3,4.3-1c1.2-0.7,2.1-1.5,2.8-2.7c0.7-1.1,1.2-2.4,1.5-3.8c0.3-1.4,0.4-2.8,0.4-4.3
		c0-1.5-0.1-2.9-0.4-4.3c-0.3-1.4-0.8-2.7-1.5-3.8c-0.7-1.1-1.6-2-2.8-2.7c-1.2-0.7-2.6-1-4.3-1c-1.7,0-3.1,0.3-4.3,1
		c-1.1,0.7-2,1.6-2.7,2.7c-0.7,1.1-1.2,2.3-1.5,3.8c-0.3,1.4-0.4,2.9-0.4,4.3C256.5,92.9,256.6,94.3,256.9,95.7"/>
	<polygon fill="#BABCBE" points="5.9,52.6 5.9,46.7 9.1,46.7 9.1,52.6 15,52.6 15,55.8 9.1,55.8 9.1,61.7 5.9,61.7 5.9,55.8 0,55.8 
		0,52.6 	"/>
	<polygon fill="#EE3124" points="39.1,0 51,34.9 51.1,34.9 62.3,0 78,0 78,50.7 67.6,50.7 67.6,14.8 67.4,14.8 55,50.7 46.4,50.7 
		34,15.1 33.8,15.1 33.8,50.7 23.4,50.7 23.4,0 	"/>
	<path fill="#EE3124" d="M85.6,19.4c1-1.6,2.4-2.8,4-3.8c1.6-0.9,3.4-1.6,5.4-2c2-0.4,4-0.6,6.1-0.6c1.8,0,3.7,0.1,5.6,0.4
		c1.9,0.3,3.6,0.8,5.2,1.5c1.6,0.8,2.8,1.8,3.8,3.2c1,1.4,1.5,3.1,1.5,5.4v19.1c0,1.7,0.1,3.2,0.3,4.8c0.2,1.5,0.5,2.7,1,3.4h-10.2
		c-0.2-0.6-0.3-1.1-0.5-1.7c-0.1-0.6-0.2-1.2-0.2-1.8c-1.6,1.7-3.5,2.8-5.7,3.5c-2.2,0.7-4.4,1-6.7,1c-1.8,0-3.4-0.2-4.9-0.6
		c-1.5-0.4-2.8-1.1-4-2c-1.1-0.9-2-2-2.7-3.4c-0.6-1.4-1-3-1-4.9c0-2.1,0.4-3.8,1.1-5.2c0.7-1.4,1.7-2.4,2.8-3.2
		c1.2-0.8,2.5-1.4,4-1.8c1.5-0.4,3-0.7,4.5-1c1.5-0.2,3-0.4,4.5-0.6c1.5-0.1,2.8-0.4,3.9-0.6c1.1-0.3,2-0.7,2.7-1.2
		c0.7-0.5,1-1.3,0.9-2.4c0-1.1-0.2-2-0.5-2.6c-0.4-0.6-0.8-1.1-1.4-1.5c-0.6-0.4-1.3-0.6-2.1-0.7c-0.8-0.1-1.6-0.2-2.5-0.2
		c-2,0-3.6,0.4-4.7,1.3c-1.1,0.9-1.8,2.3-2,4.3H83.8C84,22.9,84.6,21,85.6,19.4 M105.6,33.6c-0.6,0.2-1.3,0.4-2.1,0.5
		c-0.7,0.1-1.5,0.3-2.3,0.4c-0.8,0.1-1.6,0.2-2.4,0.4c-0.8,0.1-1.5,0.3-2.2,0.6c-0.7,0.2-1.4,0.6-1.9,1s-1,0.9-1.3,1.5
		c-0.3,0.6-0.5,1.4-0.5,2.3c0,0.9,0.2,1.7,0.5,2.3c0.3,0.6,0.8,1.1,1.4,1.5c0.6,0.4,1.2,0.6,2,0.7c0.8,0.1,1.5,0.2,2.3,0.2
		c2,0,3.5-0.3,4.6-1c1.1-0.7,1.9-1.5,2.4-2.4c0.5-0.9,0.8-1.9,1-2.8c0.1-0.9,0.2-1.7,0.2-2.3v-3.8C106.7,33.1,106.2,33.4,105.6,33.6
		"/>
	<path fill="#EE3124" d="M143.2,14v6.8h-7.4v18.2c0,1.7,0.3,2.8,0.9,3.4c0.6,0.6,1.7,0.9,3.4,0.9c0.6,0,1.1,0,1.6-0.1
		c0.5,0,1-0.1,1.5-0.2v7.8c-0.9,0.1-1.8,0.2-2.8,0.3c-1,0-2.1,0.1-3.1,0.1c-1.6,0-3-0.1-4.4-0.3c-1.4-0.2-2.6-0.6-3.7-1.2
		c-1.1-0.6-1.9-1.5-2.5-2.6c-0.6-1.1-0.9-2.6-0.9-4.5V20.7h-6.1V14h6.1V3h10.1v11H143.2z"/>
	<path fill="#EE3124" d="M158.2,0v19.1h0.2c1.3-2.1,2.9-3.7,4.9-4.7c2-1,3.9-1.5,5.8-1.5c2.7,0,4.9,0.4,6.6,1.1
		c1.7,0.7,3.1,1.8,4.1,3.1c1,1.3,1.7,2.9,2.1,4.8c0.4,1.9,0.6,3.9,0.6,6.2v22.6h-10.1V30c0-3-0.5-5.3-1.4-6.8
		c-0.9-1.5-2.6-2.2-5-2.2c-2.8,0-4.7,0.8-6,2.5c-1.2,1.6-1.8,4.3-1.8,8.1v19.3h-10.1V0H158.2z"/>
	<path fill="#EE3124" d="M201.5,61.7c-1.9,1.3-4.6,1.9-8.1,1.9c-1,0-2.1,0-3.1-0.1c-1-0.1-2-0.2-3.1-0.2v-8.3
		c0.9,0.1,1.9,0.2,2.9,0.3c1,0.1,2,0.1,3,0.1c1.3-0.1,2.3-0.7,3-1.6c0.6-0.9,1-1.9,1-3c0-0.8-0.1-1.6-0.4-2.3L183.8,14h10.7
		l8.3,25.2h0.1l8-25.2h10.4l-15.3,41.3C205,58.3,203.5,60.4,201.5,61.7"/>
	<path fill="#EE3124" d="M231.6,41.6c0.4,0.8,1,1.4,1.7,1.9c0.7,0.5,1.5,0.9,2.5,1.1c0.9,0.2,1.9,0.4,2.9,0.4c0.7,0,1.5-0.1,2.2-0.2
		c0.8-0.2,1.5-0.4,2.1-0.8c0.6-0.4,1.2-0.8,1.6-1.4c0.4-0.6,0.6-1.3,0.6-2.2c0-1.5-1-2.7-3-3.4c-2-0.8-4.8-1.5-8.4-2.3
		c-1.5-0.3-2.9-0.7-4.3-1.2c-1.4-0.5-2.6-1-3.7-1.8c-1.1-0.7-2-1.7-2.6-2.8c-0.7-1.1-1-2.5-1-4.1c0-2.4,0.5-4.3,1.4-5.8
		c0.9-1.5,2.1-2.7,3.7-3.6c1.5-0.9,3.2-1.5,5.1-1.8c1.9-0.4,3.8-0.5,5.8-0.5c2,0,3.9,0.2,5.8,0.6c1.9,0.4,3.5,1,5,1.9
		c1.5,0.9,2.7,2.1,3.7,3.6c1,1.5,1.6,3.4,1.7,5.6h-9.6c-0.1-1.9-0.9-3.3-2.2-3.9c-1.3-0.7-2.9-1-4.7-1c-0.6,0-1.2,0-1.8,0.1
		c-0.7,0.1-1.3,0.2-1.8,0.5c-0.5,0.2-1,0.6-1.4,1c-0.4,0.5-0.6,1.1-0.6,1.8c0,0.9,0.3,1.6,1,2.2c0.7,0.6,1.5,1,2.6,1.4
		c1.1,0.4,2.3,0.7,3.7,1c1.4,0.3,2.8,0.6,4.2,0.9c1.5,0.3,2.9,0.7,4.3,1.2c1.4,0.5,2.6,1.1,3.7,1.9c1.1,0.8,2,1.8,2.6,2.9
		c0.7,1.2,1,2.6,1,4.3c0,2.4-0.5,4.4-1.5,6.1c-1,1.6-2.2,2.9-3.8,3.9c-1.6,1-3.4,1.7-5.4,2.1c-2,0.4-4.1,0.6-6.1,0.6
		c-2.1,0-4.2-0.2-6.3-0.6c-2-0.4-3.9-1.1-5.4-2.1c-1.6-1-2.9-2.3-3.9-3.9c-1-1.6-1.6-3.7-1.7-6.1h9.6
		C230.9,39.9,231.1,40.8,231.6,41.6"/>
</g>
</svg>
