<?xml version="1.0" encoding="utf-8"?>
<!-- Generator: Adobe Illustrator 19.1.0, SVG Export Plug-In . SVG Version: 6.00 Build 0)  -->
<!DOCTYPE svg PUBLIC "-//W3C//DTD SVG 1.1//EN" "http://www.w3.org/Graphics/SVG/1.1/DTD/svg11.dtd">
<svg version="1.1" id="Layer_1" xmlns="http://www.w3.org/2000/svg" xmlns:xlink="http://www.w3.org/1999/xlink" x="0px" y="0px"
	 viewBox="-503 847 360 108" style="enable-background:new -503 847 360 108;" xml:space="preserve">
<style type="text/css">
	.st0{clip-path:url(#SVGID_2_);}
</style>
<g id="Layer_1_1_">
</g>
<g id="Layer_2">
	<g id="Shield_x5F_shape.tif">
		
			<image style="overflow:visible;enable-background:new    ;" width="268" height="289" id="Shield_x5F_shape_2_" xlink:href="9D7BBAF4A1ED2B3A.png"  transform="matrix(0.3866 0 0 0.3869 -514.4556 844.7334)">
		</image>
	</g>
	<g>
		<g>
			<g>
				<g>
					<defs>
						<rect id="SVGID_1_" x="-501.5" y="851.9" width="355.4" height="99.1"/>
					</defs>
					<clipPath id="SVGID_2_">
						<use xlink:href="#SVGID_1_"  style="overflow:visible;"/>
					</clipPath>
					<path class="st0" d="M-436.7,865.7l-5.8,20.9l5.8,21.3h-7.4l-4.8-17.6v17.6h-7.4v-42.2h7.4v17l4.8-17H-436.7L-436.7,865.7z
						 M-466.4,883h7.4v6.7h-7.4V883L-466.4,883z M-480.4,873.1v27.3h3.7v-27.3H-480.4L-480.4,873.1z M-470.1,866.6
						c0.6,0.6,0.9,1.4,0.9,2.2v35.9c0,0.9-0.4,1.7-0.9,2.2c-0.6,0.6-1.4,0.9-2.2,0.9h-12.3c-0.9,0-1.7-0.4-2.2-0.9
						c-0.6-0.6-0.9-1.4-0.9-2.2v-35.9c0-0.9,0.4-1.7,0.9-2.2c0.6-0.6,1.4-0.9,2.2-0.9h12.3C-471.5,865.6-470.7,866-470.1,866.6
						L-470.1,866.6L-470.1,866.6z M-424.5,851.9h-76.9c0,0-2.8,35,13,66.6c8.1,16.2,24.8,31.9,25.4,32.4l0,0l0,0l0,0l0,0
						c0.6-0.5,17.3-16.2,25.4-32.4C-421.7,886.9-424.5,851.9-424.5,851.9L-424.5,851.9z"/>
				</g>
			</g>
		</g>
		<path d="M-384.6,875.3c0-1.9-1.1-3.3-3.1-3.3s-3.1,1.3-3.1,3.3v23.6c0,1.9,1.1,3.3,3.1,3.3s3.1-1.3,3.1-3.3V875.3L-384.6,875.3z
			 M-387.7,907.9c-5.8,0-9.6-3.9-9.6-9.5v-22.6c0-5.6,3.8-9.5,9.6-9.5c5.8,0,9.6,4,9.6,9.5v22.6C-378.1,904-381.9,907.9-387.7,907.9
			L-387.7,907.9z"/>
		<polygon points="-373.5,907.2 -373.5,867 -367.1,867 -367.1,901.4 -357.8,901.4 -357.8,907.2 		"/>
		<polygon points="-335.2,907.2 -335.2,877.3 -336.4,885.8 -340.2,907.2 -345,907.2 -348.6,885.8 -349.8,877.3 -349.8,907.2 
			-355.5,907.2 -355.5,867 -346.8,867 -343.3,887.3 -342.2,895.1 -341.1,887.3 -337.6,867 -329.1,867 -329.1,907.2 		"/>
		<path d="M-315.9,907.9c-5.8,0-9.4-3.6-9.4-9.2v-3.6h5.9v3.4c0,2.5,1.1,4,3.4,4s3.4-1.4,3.4-3.6c0-3.5-1.8-6.1-5.1-9.7
			c-3.3-3.3-7.2-8-7.2-13.2c0-5.4,3.1-9.8,9.4-9.8c5.4,0,8.9,3.7,8.9,9.2v3.6h-5.8v-3.6c0-2.2-1-3.7-3.1-3.7c-1.9,0-3.1,1.2-3.1,3.3
			c0,3.9,1.7,5.9,5.5,9.8c3.9,4,6.8,8.1,6.8,13.2C-306.5,904.4-310.6,907.9-315.9,907.9L-315.9,907.9z"/>
		<polygon points="-292.4,872.8 -292.4,907.2 -298.8,907.2 -298.8,872.8 -305,872.8 -305,867 -286.3,867 -286.3,872.8 		"/>
		<polygon points="-283.2,907.2 -283.2,867 -267.1,867 -267.1,872.6 -276.8,872.6 -276.8,883.8 -270.1,883.8 -270.1,889.1 
			-276.8,889.1 -276.8,901.3 -267.1,901.3 -267.1,907.2 		"/>
		<path d="M-251.1,876.5c0-2.5-1-3.8-3.2-3.8h-3v28.8h3c2.2,0,3.2-1.3,3.2-3.8V876.5L-251.1,876.5z M-253.9,907.2h-9.8V867h9.8
			c5.8,0,9.2,3.6,9.2,9.6v21.3C-244.7,903.9-248.1,907.2-253.9,907.2L-253.9,907.2z"/>
		<polygon points="-240.5,890.8 -240.5,886.3 -229.7,886.3 -229.7,890.8 		"/>
		<polygon points="-212.1,907.2 -216.6,890.5 -218.7,896.3 -218.7,907.2 -225.1,907.2 -225.1,867 -218.7,867 -218.7,885.9 
			-212.1,867 -205.8,867 -212.2,884.1 -205.5,907.2 		"/>
		<polygon points="-201.6,907.2 -201.6,867 -195.2,867 -195.2,907.2 		"/>
		<path d="M-177.6,875.1c0-1.7-0.7-2.6-2.2-2.6h-3.2v12.7h3.1c1.6,0,2.4-0.9,2.4-2.8v-7.3H-177.6z M-173.9,907.4
			c-2.5,0-3.4-2.4-3.4-5.6v-8.6c0-1.6-0.8-3-2.6-3h-3.1v17h-6.4V867h10.3c4.5,0,7.9,2.5,7.9,7.9v7.1c0,2.7-1.2,4.7-3.8,5.7
			c2.6,0.9,3.9,3.1,3.9,5.6v8.2c0,1.8,0.4,3.1,1.2,4.1v1.8H-173.9L-173.9,907.4z"/>
		<polygon points="-152.7,907.2 -157.2,890.5 -159.4,896.3 -159.4,907.2 -165.8,907.2 -165.8,867 -159.4,867 -159.4,885.9 
			-152.7,867 -146.4,867 -152.9,884.1 -146.2,907.2 		"/>
	</g>
	<g>
		<path d="M-305.1,918.7v3.5h5v2.7h-5v7.1h-3.1v-16h8.4v2.7H-305.1L-305.1,918.7z"/>
		<path d="M-288.5,932h-3.1v-16h3.1V932z"/>
		<path d="M-279.4,915.7h2.2l9.7,11.1V916h3.1v16.3h-2.1l-9.8-11.1V932h-3.1L-279.4,915.7L-279.4,915.7z"/>
		<path d="M-252.8,918.7v3.5h5.5v2.7h-5.5v4.3h5.7v2.8h-8.9v-16h8.9v2.7H-252.8L-252.8,918.7z"/>
		<path d="M-226.6,932h-3.1v-16h4.7c2.1,0,3.2,0.3,4.2,1.2c1.1,0.9,1.6,2.3,1.6,3.8c0,3.2-2,5-5.4,5h-2L-226.6,932L-226.6,932z
			 M-225.3,923.4c2,0,3-0.8,3-2.4s-1-2.4-3-2.4h-1.2v4.8H-225.3z"/>
		<path d="M-211,928.6l-1.4,3.4h-3.3l6.9-16.3h2.3l6.7,16.3h-3.3l-1.4-3.4H-211z M-207.7,920.4l-2.3,5.8h4.6L-207.7,920.4z"/>
		<path d="M-190.1,932h-3.1v-16h4.7c2.1,0,3.2,0.3,4.2,1.2c1.1,0.9,1.6,2.3,1.6,3.8c0,3.2-2,5-5.4,5h-2L-190.1,932L-190.1,932z
			 M-188.8,923.4c2,0,3-0.8,3-2.4s-1-2.4-3-2.4h-1.2v4.8H-188.8z"/>
		<path d="M-172.6,918.7v3.5h5.5v2.7h-5.5v4.3h5.7v2.8h-8.9v-16h8.9v2.7H-172.6L-172.6,918.7z"/>
		<path d="M-147.4,932h-3.8l-4.3-6.4h-0.4v6.4h-3.1v-16h4.6c1.8,0,3.1,0.4,4,1.2c1,0.8,1.6,2.2,1.6,3.6c0,1.6-0.7,3-1.9,3.8
			c-0.5,0.4-0.9,0.5-1.8,0.7L-147.4,932z M-155,923.4c2,0,3.1-0.9,3.1-2.4s-1.1-2.4-3.1-2.4h-1v4.8
			C-155.9,923.4-155,923.4-155,923.4z"/>
	</g>
</g>
</svg>
