<?xml version="1.0" encoding="utf-8"?>
<!-- Generator: Adobe Illustrator 19.1.0, SVG Export Plug-In . SVG Version: 6.00 Build 0)  -->
<!DOCTYPE svg PUBLIC "-//W3C//DTD SVG 1.1//EN" "http://www.w3.org/Graphics/SVG/1.1/DTD/svg11.dtd">
<svg version="1.1" id="Layer_1" xmlns="http://www.w3.org/2000/svg" xmlns:xlink="http://www.w3.org/1999/xlink" x="0px" y="0px"
	 viewBox="-427 865.5 511.9 70.5" style="enable-background:new -427 865.5 511.9 70.5;" xml:space="preserve">
<g>
	<path d="M-324.8,931.1c-7.2,0-13.8-0.8-19.6-6.6l7.5-7.5c3.8,3.8,8.7,4.3,12.3,4.3c4,0,8.1-1.3,8.1-4.8c0-2.3-1.2-3.9-4.9-4.2
		l-7.2-0.7c-8.3-0.8-13.4-4.4-13.4-12.9c0-9.5,8.4-14.7,17.8-14.7c7.2,0,13.2,1.2,17.6,5.4l-7.1,7.2c-2.7-2.4-6.7-3.1-10.7-3.1
		c-4.6,0-6.5,2.1-6.5,4.4c0,1.7,0.7,3.6,4.8,4l7.2,0.7c9.1,0.9,13.7,5.7,13.7,13.5C-305.3,926.3-314,931.1-324.8,931.1z"/>
	<path d="M-285.3,930.6c-9.4,0-13.3-6.6-13.3-13.2v-22.8h-4.9v-8.7h4.9v-13.6h11.5v13.6h8.1v8.7h-8.1v22.1c0,2.6,1.2,4.2,4,4.2h4.2
		v9.7C-278.9,930.6-285.3,930.6-285.3,930.6z"/>
	<path d="M-273.9,876.7v-9.4h11.8v9.4H-273.9z M-273.7,930.6v-46h11.5v46H-273.7z"/>
	<path d="M-236.3,931.1c-9.2,0-20.6-4.9-20.6-23.6c0-18.6,11.4-23.5,20.6-23.5c6.4,0,11.1,1.9,15.2,6.2l-7.8,7.8
		c-2.4-2.6-4.4-3.6-7.4-3.6c-2.7,0-4.9,1-6.5,3c-1.8,2.2-2.6,5.3-2.6,10.2c0,4.9,0.8,8,2.6,10.3c1.7,2,3.8,3,6.5,3
		c3,0,5-1.1,7.4-3.6l7.8,7.7C-225.1,929.1-229.9,931.1-236.3,931.1z"/>
	<path d="M-189.4,930.6l-11.3-19.2l-4.9,5.5v13.7H-217v-62.9h11.5v35.7l15.3-18.8h13.9l-16.4,18.6l17.7,27.5h-14.4V930.6z"/>
	<path d="M-165.5,911.2c0,5.9,3.6,10.2,10.1,10.2c5,0,7.5-1.4,10.4-4.3l7,6.8c-4.7,4.7-9.2,7.2-17.5,7.2c-10.9,0-21.3-4.9-21.3-23.6
		c0-15,8.1-23.5,20.1-23.5c12.8,0,20.1,9.4,20.1,22v5.1h-28.9V911.2z M-149.1,898.4c-1.2-2.7-3.8-4.8-7.7-4.8c-3.9,0-6.5,2-7.7,4.8
		c-0.7,1.7-1,2.9-1.1,4.9h17.6C-148.1,901.3-148.4,900-149.1,898.4z"/>
	<path d="M-106.3,897.1c-1.8-1.8-3.3-2.7-6.1-2.7c-3.5,0-7.4,2.7-7.4,8.5v27.7h-11.5v-46h11.2v4.4c2.2-2.7,6.6-4.9,11.6-4.9
		c4.5,0,7.7,1.1,10.9,4.3L-106.3,897.1z"/>
	<path d="M-379.8,935.7c-0.7,0.3-1.6,0.2-2.5,0.3c-0.8,0-1.9,0-2.4-0.4c-0.3-0.2-0.3-0.7-0.3-1c0-0.3,0.1-0.8,0.1-1.1
		c0.1-0.4,0.2-1,0-1.3c-0.2-0.3-0.9-0.2-1.3-0.4c-0.4-0.2-0.5-0.8-0.6-1.4c0-0.2-0.2-0.4-0.2-0.5c-0.1-0.9,0.2-2.2,0.4-3.1
		c0.2-1,0.5-1.9,0.7-2.9c0.3-1.4,0.3-3,0.2-4.5c0-0.8-0.2-1.4,0-2c0.1-0.6,0.4-1.1,0.5-1.7c0-0.2,0-0.4,0-0.6c0-0.2,0.1-0.3,0.1-0.5
		c0-0.4-0.1-0.9-0.1-1.4c-0.1-1.3,0-3.2,0.1-4.3c0-0.4,0.2-0.8-0.1-1c-1.4,0-2.6,0.2-3.9,0.4c-3.4,0.4-7.8,0.5-11.1-0.2
		c-0.3-0.1-0.6-0.1-0.9-0.1c-2.4-0.5-4.5-1.6-6.2-2.9c-0.3-0.2-0.6-0.4-0.9-0.7c-0.3-0.2-0.6-0.5-0.9-0.7c-1.3-0.6-3.1,0.1-3.7,1
		c-0.2,0.3-0.4,0.8-0.6,1.2c-0.2,0.4-0.4,0.8-0.5,1.2c-0.9,2-1.9,4-2.8,6c-0.5,1.2-1.1,2.5-1.5,3.8c-0.8,2.8-0.1,6.5,0.6,9.2
		c0.1,0.2,0.2,0.5,0.3,0.8c0.2,0.6,0.6,1.5,1.1,1.9c0.3,0.2,0.7,0.4,1,0.6c0.4,0.3,0.6,0.9,0.9,1.5c0.1,0.2,0.3,0.5,0.4,0.8
		c0.3,0.6,0.5,1.1-0.2,1.5c-0.5,0.3-1.3,0.3-2,0.4c-0.3,0.1-0.2,0.5-0.4,0.7c-0.1,0.1-0.6,0.3-0.8,0.4c-0.9,0.3-2.5,0.3-3.2,0
		c-0.4-0.1-0.8-0.4-0.9-0.7c-0.2-0.6,0.3-1.3-0.1-1.7c-0.2-0.2-0.6-0.2-0.9-0.3c-0.5-0.2-0.9-0.7-1.2-1.2c-0.5-1.4-0.2-3.5-0.3-5.2
		c0-0.5-0.1-1-0.1-1.6c0-1-0.3-2-0.4-3c-0.1-0.5-0.2-0.9-0.3-1.3c-0.2-0.7-0.3-1.5-0.5-2.2c-0.2-0.8-0.2-1.6,0-2.2
		c0.1-0.2,0.3-0.4,0.4-0.6c0.2-0.4,0.2-0.8,0.2-1.2c-0.1-0.2-0.6,0-0.7-0.2c-0.3-2.2-0.6-4.3-0.8-6.6c-0.1-0.8-0.1-1.5-0.1-2.3
		c-0.1-1.5,0-3.1-0.2-4.6c-0.1-0.7-0.2-1.4-0.3-2.1c-0.3-2-0.8-4.5-0.4-6.6c0.5-1.5,1-2.6,1.8-3.6c0.5-0.7,1.1-1.3,1.7-2
		c0.6-0.6,1.3-1.2,2-1.7c0.5-0.3,1-0.7,1.5-1c1.1-0.5,2.6-1,4.2-1.1c1.6-0.1,3.4-0.1,4.9,0.2c1.5,0.3,3,0.5,4.5,0.8
		c1.4,0.3,2.8,0.7,4.2,1c0.2,0,0.3,0.2,0.5,0.2c0.4,0.1,0.9,0.1,1.4,0.3c1.3,0.3,2.9,0.5,4.5,0.5c1.7,0,3.2,0,4.6-0.4
		c0.2-0.1,0.4-0.2,0.6-0.2c0.2-0.1,0.5-0.1,0.7-0.1c0.1,0,0.3-0.2,0.4-0.3c0.8-0.4,1.5-0.8,2.2-1.3c0.6-0.4,1-0.7,1.8-1
		c0.3-0.1,0.7-0.3,1-0.4c0.7-0.2,1.5-0.4,2-0.8c0.9-0.5,1.5-1.3,2.2-2c0.7-0.6,1.5-1.3,2.3-1.9c1.6-1.3,3.2-2.4,4.7-3.6
		c0.8-0.6,1.6-1.2,2.5-1.7c1.7-1,3.5-2.1,6-2.3c1-0.1,2-0.1,3,0c0.3,0,0.6,0.2,0.9,0.1c0.3-0.1,0.5-0.5,0.6-0.8
		c0.4-0.7,0.6-1.1,1-1.9c0.2-0.5,0.1-1,0.6-1s0.4,1.3,0.4,1.8c0,0.6-0.1,1.4,0,1.8c0.1,0.3,0.5,0.7,0.9,0.7c0.3,0,0.5-0.2,0.7-0.4
		c0.3-0.2,0.5-0.2,0.7-0.4c0.4-0.3,0.9-0.8,1.3-1.2c0.3-0.3,0.9-1.2,1.4-1.1c1,0.1,0,1.6-0.2,2c-0.5,1.1-1,2-1.6,3
		c-0.2,0.4-0.8,1-0.8,1.5c0,0.3,0.3,0.5,0.4,0.9c0.1,0.2,0.1,0.3,0.2,0.5c0.3,0.8,0.6,1.9,0.9,2.8c0.2,0.8,0.4,1.6,0.7,2.3
		s0.7,1.4,1,2.2c0.1,0.2,0.1,0.4,0.2,0.6c0.6,1.6,1.2,3.4,2,5c0.3,0.6,0.7,1.4,0.7,2.3c0,1-0.5,1.5-1,2.3c-0.2,0.4-0.6,1-1,1.1
		c-0.3,0.1-0.6,0-0.9,0c-0.4,0.1-0.7,0.3-1,0.3c-0.9,0.1-1.8-0.6-2-1.3c-0.1-0.2,0-0.5-0.1-0.8c-0.2-1.1-0.8-1.6-1.5-2.4
		c-0.5-0.5-0.9-0.8-1.5-1.1c-0.9-0.5-1.8-0.7-2.8-1.2c-0.3-0.2-0.8-0.4-1.1-0.3c-0.5,0.1-1,0.9-1.4,1.4c-2.4,3.2-4.6,6.5-6.9,9.6
		c-1.6,2.1-3.2,4.2-4.5,6.5c-0.3,0.6-0.5,1.3-0.8,2c-0.2,0.7-0.4,1.4-0.6,2.2c-0.9,2.6-1.2,5.8-2,8.5c-0.1,0.3-0.1,0.6-0.2,0.9
		c-0.4,1.4-0.8,3-1.2,4.5c-0.3,1.1-0.4,2.6-0.5,4c0,1.4-0.1,3.3,0.4,4.1c0.3,0.5,1.2,0.6,1.5,1.1c0.2,0.3,0.4,1,0.7,1.4
		c0.2,0.3,0.7,0.9,0.6,1.4c0,0.3-0.3,0.6-0.6,0.7c-0.3,0.1-0.7,0.1-1,0.2C-379.7,935.1-379.5,935.5-379.8,935.7z"/>
	<path d="M-46,884c-5.7,0-9.9,1.8-13.8,5.8c-2.9-4-7.1-5.8-12.2-5.8c-4.2,0-8.5,1.7-11.5,4.8v-4.2h-11.2v46h11.5v-27.8
		c0-6.3,4.1-8.4,7.7-8.4s7.6,2.1,7.6,8.4v27.8h11.5v-28.1c0-6,4.2-8.1,7.7-8.1c3.6,0,7.6,2.1,7.6,8.4v27.8h11.5v-29.4
		c0-5-1.3-9.4-5-13.1C-37.2,885.5-41.4,884-46,884z"/>
	<path d="M3.9,912.4c0,6.3-4.1,8.4-7.7,8.4s-7.6-2.1-7.6-8.4v-27.8h-11.5V914c0,5,1,9.4,4.7,13.1c2.6,2.6,6.3,4.1,10.9,4.1
		c4.2,0,8.5-1.6,11.5-4.8v4.2h11.2v-46H3.9V912.4z"/>
	<path d="M34.2,916.7v-49H22.7v49.7c0,6.5,4,13.2,13.4,13.2h6.5v-9.7h-4.4C35.4,920.9,34.2,919.5,34.2,916.7z"/>
	<path d="M84.9,906c0-12.6-7.2-22-20.1-22c-11.9,0-20.1,8.5-20.1,23.5c0,18.6,10.4,23.6,21.3,23.6c8.3,0,12.8-2.6,17.5-7.2l-7-6.8
		c-2.9,2.9-5.4,4.3-10.4,4.3c-6.5,0-10.1-4.3-10.1-10.2h28.8V906H84.9z M56.1,903.3c0.1-2,0.4-3.3,1.1-4.9c1.2-2.7,3.8-4.8,7.7-4.8
		c3.9,0,6.4,2,7.7,4.8c0.7,1.7,1,2.9,1.1,4.9H56.1z"/>
</g>
</svg>
